BasicallyASansSerif-Regular.ufo
<glyph name="exclamation" format="2">
  <advance width="396.3364485981308"/>
  <unicode hex="0021"/>
  <outline>
    <contour>
      <point x="142.65420560747663" y="293.1869158878504" type="line"/>
      <point x="253.68224299065417" y="293.1869158878504" type="line"/>
      <point x="253.68224299065417" y="1094.9999999999998" type="line"/>
      <point x="142.65420560747663" y="1094.9999999999998" type="line"/>
    </contour>
    <contour>
      <point x="290.01869158878503" y="76.85046728971962" type="curve" smooth="yes"/>
      <point x="290.01869158878503" y="127.54411978093457"/>
      <point x="248.86187679028035" y="168.70093457943923"/>
      <point x="198.1682242990654" y="168.70093457943923" type="curve" smooth="yes"/>
      <point x="147.47457180785045" y="168.70093457943923"/>
      <point x="106.31775700934578" y="127.54411978093458"/>
      <point x="106.31775700934578" y="76.85046728971962" type="curve" smooth="yes"/>
      <point x="106.31775700934578" y="26.156814798504676"/>
      <point x="147.47457180785042" y="-15.000000000000002"/>
      <point x="198.1682242990654" y="-15.000000000000002" type="curve" smooth="yes"/>
      <point x="248.86187679028035" y="-15.000000000000016"/>
      <point x="290.01869158878503" y="26.156814798504648"/>
    </contour>
  </outline>
</glyph>
<glyph name="quote_dbl" format="2">
  <advance width="533.9302325581396"/>
  <unicode hex="0022"/>
  <outline>
    <contour>
      <point x="318.11163" y="711.02616" type="line"/>
      <point x="428.1907" y="711.02616" type="line"/>
      <point x="428.1907" y="1079.68605" type="line"/>
      <point x="318.11163" y="1079.68605" type="line"/>
    </contour>
    <contour>
      <point x="105.73953" y="711.02616" type="line"/>
      <point x="215.8186" y="711.02616" type="line"/>
      <point x="215.8186" y="1079.68605" type="line"/>
      <point x="105.73953" y="1079.68605" type="line"/>
    </contour>
  </outline>
</glyph>
<glyph name="quotedbl" format="2">
  <advance width="555.8130841121495"/>
  <unicode hex="0022"/>
  <outline>
    <contour>
      <point x="338.46728971962614" y="779.7196261682242" type="line"/>
      <point x="449.4953271028037" y="779.7196261682242" type="line"/>
      <point x="449.4953271028037" y="1077.4766355140187" type="line"/>
      <point x="338.46728971962614" y="1077.4766355140187" type="line"/>
    </contour>
    <contour>
      <point x="106.31775700934578" y="779.7196261682242" type="line"/>
      <point x="217.34579439252335" y="779.7196261682242" type="line"/>
      <point x="217.34579439252335" y="1077.4766355140187" type="line"/>
      <point x="106.31775700934578" y="1077.4766355140187" type="line"/>
    </contour>
  </outline>
</glyph>
<glyph name="numbersign" format="2">
  <advance width="946.176653973969"/>
  <unicode hex="0023"/>
  <outline>
    <contour>
      <point x="144.0798110961914" y="0" type="line"/>
      <point x="257.18592834472656" y="0" type="line"/>
      <point x="312.73419189453125" y="285.7710266113281" type="line"/>
      <point x="534.7308807373047" y="285.7710266113281" type="line"/>
      <point x="479.1826171875" y="0" type="line"/>
      <point x="592.2887268066406" y="0" type="line"/>
      <point x="647.8369903564453" y="285.7710266113281" type="line"/>
      <point x="853.4018707275391" y="285.7710266113281" type="line"/>
      <point x="853.4018707275391" y="396.799072265625" type="line"/>
      <point x="669.4186553955078" y="396.799072265625" type="line"/>
      <point x="724.966911315918" y="682.5700912475586" type="line"/>
      <point x="930.5317916870117" y="682.5700912475586" type="line"/>
      <point x="930.5317916870117" y="793.5981292724609" type="line"/>
      <point x="746.5485763549805" y="793.5981292724609" type="line"/>
      <point x="802.0968399047852" y="1079.3691635131836" type="line"/>
      <point x="688.9907302856445" y="1079.3691635131836" type="line"/>
      <point x="633.4424667358398" y="793.5981292724609" type="line"/>
      <point x="411.4457778930664" y="793.5981292724609" type="line"/>
      <point x="466.9940414428711" y="1079.3691635131836" type="line"/>
      <point x="353.8879165649414" y="1079.3691635131836" type="line"/>
      <point x="298.3396530151367" y="793.5981292724609" type="line"/>
      <point x="92.7747802734375" y="793.5981292724609" type="line"/>
      <point x="92.7747802734375" y="682.5700912475586" type="line"/>
      <point x="276.75799560546875" y="682.5700912475586" type="line"/>
      <point x="221.20973205566406" y="396.799072265625" type="line"/>
      <point x="15.644859313964844" y="396.799072265625" type="line"/>
      <point x="15.644859313964844" y="285.7710266113281" type="line"/>
      <point x="199.62806701660156" y="285.7710266113281" type="line"/>
    </contour>
    <contour>
      <point x="334.31585693359375" y="396.799072265625" type="line"/>
      <point x="389.8641128540039" y="682.5700912475586" type="line"/>
      <point x="611.8608016967773" y="682.5700912475586" type="line"/>
      <point x="556.3125457763672" y="396.799072265625" type="line"/>
    </contour>
  </outline>
</glyph>
<glyph name="dollar" format="2">
  <advance width="904.0373831775702"/>
  <unicode hex="0024"/>
  <outline>
    <contour>
      <point x="404.38773345947266" y="619.9092178344727" type="line"/>
      <point x="282.2047099999999" y="641.45339"/>
      <point x="197.15888" y="716.03177"/>
      <point x="197.15888" y="801.09813" type="curve"/>
      <point x="197.15888" y="890.78634772032"/>
      <point x="287.4549710139627" y="965.7088937547992"/>
      <point x="406.68224334716797" y="981.080436706543" type="curve"/>
      <point x="406.68224334716797" y="619.5046310424805" type="line"/>
    </contour>
    <contour>
      <point x="55.85047149658203" y="294.0420608520508" type="line"/>
      <point x="55.85047" y="135.63073476203"/>
      <point x="209.12603035989255" y="4.581478384632419"/>
      <point x="406.68224334716797" y="-12.986923217773438" type="curve"/>
      <point x="406.68224334716797" y="-121.12149810791016" type="line"/>
      <point x="497.35514068603516" y="-121.12149810791016" type="line"/>
      <point x="497.35514068603516" y="-12.987823486328125" type="line"/>
      <point x="694.9113509916469" y="4.581478384632426"/>
      <point x="848.1869200000001" y="135.6307347620299"/>
      <point x="848.1869200000001" y="294.04206" type="curve"/>
      <point x="848.18692" y="426.92419640195715"/>
      <point x="733.8759137401921" y="561.8115506438187"/>
      <point x="512.9741497053353" y="600.762502334267" type="curve"/>
      <point x="497.35514068603516" y="603.5165557861328" type="line"/>
      <point x="497.35514068603516" y="981.0766143798828" type="line"/>
      <point x="616.5824169100814" y="965.7088937547991"/>
      <point x="706.8785" y="890.78634772032"/>
      <point x="706.8785" y="801.0981300000001" type="curve"/>
      <point x="817.9065399169922" y="801.0981292724609" type="line"/>
      <point x="817.90654" y="950.8150809270401"/>
      <point x="678.1123144957312" y="1074.797067298102"/>
      <point x="497.35514068603516" y="1092.7531356811523" type="curve"/>
      <point x="497.35514068603516" y="1201.1214981079102" type="line"/>
      <point x="406.68224334716797" y="1201.1214981079102" type="line"/>
      <point x="406.68224334716797" y="1092.7532501220703" type="line"/>
      <point x="225.92507404321137" y="1074.7970672981023"/>
      <point x="86.13083999999994" y="950.8150809270403"/>
      <point x="86.13083999999992" y="801.0981300000001" type="curve"/>
      <point x="86.13083999999999" y="672.6786345614553"/>
      <point x="193.80331688365754" y="544.3001618264055"/>
      <point x="393.4330623983735" y="509.10000065485985" type="curve"/>
      <point x="406.68224334716797" y="506.76380920410156" type="line"/>
      <point x="406.68224334716797" y="98.52197265625" type="line"/>
      <point x="270.613523641597" y="113.62969567202599"/>
      <point x="166.87850000000003" y="195.64068842893"/>
      <point x="166.87850000000003" y="294.04205999999994" type="curve"/>
    </contour>
    <contour>
      <point x="504.3893127441406" y="489.5354232788086" type="line"/>
      <point x="642.0520000000001" y="465.26177"/>
      <point x="737.15888" y="385.12510000000003"/>
      <point x="737.15888" y="294.04206" type="curve"/>
      <point x="737.15888" y="195.64068842892993"/>
      <point x="633.4238563584031" y="113.62969567202599"/>
      <point x="497.35514068603516" y="98.521728515625" type="curve"/>
      <point x="497.35514068603516" y="490.7757339477539" type="line"/>
    </contour>
  </outline>
</glyph>
<glyph name="percent" format="2">
  <advance width="1256.8277703604806"/>
  <unicode hex="0025"/>
  <outline>
    <contour>
      <point x="554.99599" y="840.38051" type="curve" smooth="yes"/>
      <point x="554.99599" y="980.90883"/>
      <point x="440.90482" y="1095.0"/>
      <point x="300.3765" y="1095.0" type="curve" smooth="yes"/>
      <point x="159.84818" y="1095.0"/>
      <point x="45.75701" y="980.90883"/>
      <point x="45.75701" y="840.38051" type="curve" smooth="yes"/>
      <point x="45.75701" y="699.85218"/>
      <point x="159.84818" y="585.76101"/>
      <point x="300.3765" y="585.76101" type="curve" smooth="yes"/>
      <point x="440.90482" y="585.76101"/>
      <point x="554.99599" y="699.85218"/>
    </contour>
    <contour>
      <point x="166.44949" y="0.0" type="line"/>
      <point x="279.8188" y="0.0" type="line"/>
      <point x="1090.37828" y="1080.0" type="line"/>
      <point x="977.00897" y="1080.0" type="line"/>
    </contour>
    <contour>
      <point x="443.96796" y="840.38051" type="curve" smooth="yes"/>
      <point x="443.96796" y="761.13023"/>
      <point x="379.62678" y="696.78905"/>
      <point x="300.3765" y="696.78905" type="curve" smooth="yes"/>
      <point x="221.12622" y="696.78905"/>
      <point x="156.78505" y="761.13023"/>
      <point x="156.78505" y="840.38051" type="curve" smooth="yes"/>
      <point x="156.78505" y="919.63079"/>
      <point x="221.12622" y="983.97196"/>
      <point x="300.3765" y="983.97196" type="curve" smooth="yes"/>
      <point x="379.62678" y="983.97196"/>
      <point x="443.96796" y="919.63079"/>
    </contour>
    <contour>
      <point x="1211.07076" y="239.61949" type="curve" smooth="yes"/>
      <point x="1211.07076" y="380.14782"/>
      <point x="1096.97959" y="494.23899"/>
      <point x="956.45127" y="494.23899" type="curve" smooth="yes"/>
      <point x="815.92295" y="494.23899"/>
      <point x="701.83178" y="380.14782"/>
      <point x="701.83178" y="239.61949" type="curve" smooth="yes"/>
      <point x="701.83178" y="99.09117"/>
      <point x="815.92295" y="-15.0"/>
      <point x="956.45127" y="-15.0" type="curve" smooth="yes"/>
      <point x="1096.97959" y="-15.0"/>
      <point x="1211.07076" y="99.09117"/>
    </contour>
    <contour>
      <point x="1100.04272" y="239.61949" type="curve" smooth="yes"/>
      <point x="1100.04272" y="160.36921"/>
      <point x="1035.70155" y="96.02804"/>
      <point x="956.45127" y="96.02804" type="curve" smooth="yes"/>
      <point x="877.20099" y="96.02804"/>
      <point x="812.85981" y="160.36921"/>
      <point x="812.85981" y="239.61949" type="curve" smooth="yes"/>
      <point x="812.85981" y="318.86977"/>
      <point x="877.20099" y="383.21095"/>
      <point x="956.45127" y="383.21095" type="curve" smooth="yes"/>
      <point x="1035.70155" y="383.21095"/>
      <point x="1100.04272" y="318.86977"/>
    </contour>
  </outline>
</glyph>
<glyph name="ampersand" format="2">
  <advance width="967.6281618051788"/>
  <unicode hex="0026"/>
  <outline>
    <contour>
      <point x="308.8507766723633" y="768.1216278076172" type="line"/>
      <point x="288.86815" y="791.7958"/>
      <point x="277.90654" y="821.77683"/>
      <point x="277.90654" y="852.75701" type="curve"/>
      <point x="277.90654" y="925.17651"/>
      <point x="336.70199" y="983.97196"/>
      <point x="409.1215" y="983.97196" type="curve" smooth="yes"/>
      <point x="481.541" y="983.97196"/>
      <point x="540.33645" y="925.17651"/>
      <point x="540.33645" y="852.75701" type="curve"/>
      <point x="540.33645" y="805.72699"/>
      <point x="515.56667" y="764.40039"/>
      <point x="478.31968" y="741.27609" type="curve"/>
      <point x="381.98985290527344" y="681.4710159301758" type="line"/>
    </contour>
    <contour>
      <point x="263.73955" y="477.41696" type="curve"/>
      <point x="359.0164337158203" y="536.555534362793" type="line"/>
      <point x="657.9569396972656" y="182.38947296142578" type="line"/>
      <point x="593.2111267647846" y="128.47208190083776"/>
      <point x="509.9719972219" y="96.02804"/>
      <point x="419.21494999999993" y="96.02803999999996" type="curve"/>
      <point x="282.73204" y="96.02804"/>
      <point x="171.92523" y="195.52803"/>
      <point x="171.92523" y="318.08411" type="curve"/>
      <point x="171.92523" y="384.45797"/>
      <point x="208.35973" y="443.04258"/>
    </contour>
    <contour>
      <point x="60.8972" y="318.08411" type="curve"/>
      <point x="60.8972" y="134.24999"/>
      <point x="221.454" y="-15.0"/>
      <point x="419.21495" y="-15.0" type="curve"/>
      <point x="537.24608407199" y="-15.0"/>
      <point x="645.4757631532359" y="27.298785931107012"/>
      <point x="729.5592727661133" y="97.55949401855469" type="curve"/>
      <point x="811.9061965942383" y="0" type="line"/>
      <point x="957.1982574462891" y="0" type="line"/>
      <point x="806.5170440673828" y="178.51769256591797" type="line"/>
      <point x="867.5243066647373" y="259.55729783377654"/>
      <point x="903.7009300000001" y="360.33022375529"/>
      <point x="903.70093" y="469.48598" type="curve"/>
      <point x="792.6728973388672" y="469.48597717285156" type="line"/>
      <point x="792.6729" y="394.5430573223"/>
      <point x="770.5503331449266" y="324.7263661396082"/>
      <point x="732.4849243164062" y="266.22633361816406" type="curve"/>
      <point x="454.35772705078125" y="595.7340774536133" type="line"/>
      <point x="536.8426895141602" y="646.9326782226562" type="line"/>
      <point x="605.61841" y="689.62192"/>
      <point x="651.36449" y="765.91992"/>
      <point x="651.36449" y="852.75701" type="curve"/>
      <point x="651.36449" y="986.45455"/>
      <point x="542.81904" y="1095.0"/>
      <point x="409.1215" y="1095.0" type="curve" smooth="yes"/>
      <point x="275.42395" y="1095.0"/>
      <point x="166.8785" y="986.45455"/>
      <point x="166.8785" y="852.75701" type="curve"/>
      <point x="166.8785" y="795.56282"/>
      <point x="187.11532" y="740.21324"/>
      <point x="224.00633" y="696.50708" type="curve"/>
      <point x="286.6556625366211" y="622.284065246582" type="line"/>
      <point x="205.24968719482422" y="571.7442626953125" type="line"/>
      <point x="118.30716" y="517.76716"/>
      <point x="60.8972" y="424.22308"/>
    </contour>
  </outline>
</glyph>
<glyph name="quote" format="2">
  <advance width="321.5581395348837"/>
  <unicode hex="0027"/>
  <outline>
    <contour>
      <point x="105.73953" y="711.02616" type="line"/>
      <point x="215.8186" y="711.02616" type="line"/>
      <point x="215.8186" y="1079.68605" type="line"/>
      <point x="105.73953" y="1079.68605" type="line"/>
    </contour>
  </outline>
</glyph>
<glyph name="quotesingle" format="2">
  <advance width="323.66355140186914"/>
  <unicode hex="0027"/>
  <outline>
    <contour>
      <point x="106.31775700934578" y="779.7196261682242" type="line"/>
      <point x="217.34579439252335" y="779.7196261682242" type="line"/>
      <point x="217.34579439252335" y="1077.4766355140187" type="line"/>
      <point x="106.31775700934578" y="1077.4766355140187" type="line"/>
    </contour>
  </outline>
</glyph>
<glyph name="parenleft" format="2">
  <advance width="445.79912960999786"/>
  <unicode hex="0028"/>
  <outline>
    <contour>
      <point x="409.96735" y="-55.51402" type="line"/>
      <point x="200.46571" y="334.93401"/>
      <point x="200.46571" y="804.36506"/>
      <point x="409.96735" y="1194.81308" type="curve"/>
      <point x="285.33935" y="1194.81308" type="line"/>
      <point x="93.97145" y="800.11572"/>
      <point x="93.971" y="339.18631"/>
      <point x="285.33799" y="-55.51402" type="curve"/>
    </contour>
  </outline>
</glyph>
<glyph name="parenright" format="2">
  <advance width="445.7991296099979"/>
  <unicode hex="0029"/>
  <outline>
    <contour>
      <point x="35.83178" y="-55.51402" type="curve"/>
      <point x="160.46114" y="-55.51402" type="line"/>
      <point x="351.82813" y="339.18631"/>
      <point x="351.82768" y="800.11572"/>
      <point x="160.45978" y="1194.81308" type="curve"/>
      <point x="35.83178" y="1194.81308" type="line"/>
      <point x="245.33342" y="804.36506"/>
      <point x="245.33342" y="334.93401"/>
    </contour>
  </outline>
</glyph>
<glyph name="asterisk" format="2">
  <advance width="783.4480646569561"/>
  <unicode hex="002A"/>
  <outline>
    <contour>
      <point x="653.7021713256836" y="532.1431579589844" type="line"/>
      <point x="707.8480606079102" y="625.9266128540039" type="line"/>
      <point x="497.5813522338867" y="745.9186019897461" type="line"/>
      <point x="707.8480606079102" y="865.9105987548828" type="line"/>
      <point x="653.7021713256836" y="959.6940536499023" type="line"/>
      <point x="444.6526870727539" y="837.5937271118164" type="line"/>
      <point x="445.8699264526367" y="1079.686050415039" type="line"/>
      <point x="337.57813262939453" y="1079.686050415039" type="line"/>
      <point x="338.79537200927734" y="837.5937347412109" type="line"/>
      <point x="129.74590301513672" y="959.6940536499023" type="line"/>
      <point x="75.5999984741211" y="865.9105987548828" type="line"/>
      <point x="285.86671447753906" y="745.9186096191406" type="line"/>
      <point x="75.5999984741211" y="625.9266128540039" type="line"/>
      <point x="129.74590301513672" y="532.1431579589844" type="line"/>
      <point x="338.79537200927734" y="654.2434768676758" type="line"/>
      <point x="337.57813262939453" y="412.15116119384766" type="line"/>
      <point x="445.8699264526367" y="412.15116119384766" type="line"/>
      <point x="444.6526870727539" y="654.2434844970703" type="line"/>
    </contour>
  </outline>
</glyph>
<glyph name="plus" format="2">
  <advance width="989.8317757009345"/>
  <unicode hex="002B"/>
  <outline>
    <contour>
      <point x="106.31775665283203" y="434.01869201660156" type="line"/>
      <point x="439.40187072753906" y="434.01869201660156" type="line"/>
      <point x="439.40187072753906" y="100.93457794189453" type="line"/>
      <point x="550.4299087524414" y="100.93457794189453" type="line"/>
      <point x="550.4299087524414" y="434.01869201660156" type="line"/>
      <point x="883.5140151977539" y="434.01869201660156" type="line"/>
      <point x="883.5140151977539" y="545.0467300415039" type="line"/>
      <point x="550.4299087524414" y="545.0467300415039" type="line"/>
      <point x="550.4299087524414" y="878.1308441162109" type="line"/>
      <point x="439.40187072753906" y="878.1308441162109" type="line"/>
      <point x="439.40187072753906" y="545.0467300415039" type="line"/>
      <point x="106.31775665283203" y="545.0467300415039" type="line"/>
    </contour>
  </outline>
</glyph>
<glyph name="comma" format="2">
  <advance width="417.5836851305501"/>
  <unicode hex="002C"/>
  <outline>
    <contour>
      <point x="158.53623962402344" y="-317.5825881958008" type="line" smooth="yes"/>
      <point x="264.61783784849064" y="-186.5827211454989"/>
      <point x="291.75113073731364" y="-43.83925963134409"/>
      <point x="291.7511298560551" y="78.60464999999999" type="curve"/>
      <point x="291.7511291503906" y="176.65116119384766" type="line"/>
      <point x="178.56841278076172" y="176.65116119384766" type="line"/>
      <point x="178.56841278076172" y="78.60465240478516" type="line" smooth="yes"/>
      <point x="178.56841278076172" y="-20.233402824742484"/>
      <point x="158.43424261534034" y="-137.85942005666737"/>
      <point x="70.57674" y="-246.3544" type="curve"/>
    </contour>
  </outline>
</glyph>
<glyph name="hyphen" format="2">
  <advance width="742.5420560747663"/>
  <unicode hex="002D"/>
  <outline>
    <contour>
      <point x="106.31775700934578" y="434.018691588785" type="line"/>
      <point x="636.2242990654205" y="434.018691588785" type="line"/>
      <point x="636.2242990654205" y="545.0467289719626" type="line"/>
      <point x="106.31775700934578" y="545.0467289719626" type="line"/>
    </contour>
  </outline>
</glyph>
<glyph name="period" format="2">
  <advance width="366.0560747663551"/>
  <unicode hex="002E"/>
  <outline>
    <contour>
      <point x="274.8785" y="76.85047" type="curve" smooth="yes"/>
      <point x="274.8785" y="127.54412"/>
      <point x="233.72169" y="168.70093"/>
      <point x="183.02804" y="168.70093" type="curve" smooth="yes"/>
      <point x="132.33438" y="168.70093"/>
      <point x="91.17757" y="127.54412"/>
      <point x="91.17757" y="76.85047" type="curve" smooth="yes"/>
      <point x="91.17757" y="26.15681"/>
      <point x="132.33438" y="-15.0"/>
      <point x="183.02804" y="-15.0" type="curve" smooth="yes"/>
      <point x="233.72169" y="-15.0"/>
      <point x="274.8785" y="26.15681"/>
    </contour>
  </outline>
</glyph>
<glyph name="slash" format="2">
  <advance width="760.9379102304878"/>
  <unicode hex="002F"/>
  <outline>
    <contour>
      <point x="105.73953" y="-79.25581" type="line"/>
      <point x="227.91506" y="-79.25581" type="line"/>
      <point x="700.40768" y="1218.90698" type="line"/>
      <point x="578.23215" y="1218.90698" type="line"/>
    </contour>
  </outline>
</glyph>
<glyph name="zero" format="2">
  <advance width="914.1308411214952"/>
  <unicode hex="0030"/>
  <outline>
    <contour>
      <point x="711.9252319335938" y="350.8878479003906" type="line"/>
      <point x="711.9252336448598" y="210.22689163177563"/>
      <point x="597.7263793962616" y="96.02803738317756"/>
      <point x="457.06542056074755" y="96.02803738317759" type="curve" smooth="yes"/>
      <point x="316.40446172523355" y="96.02803738317762"/>
      <point x="202.20560747663546" y="210.22689163177571"/>
      <point x="202.2056074766355" y="350.88785046728975" type="curve"/>
      <point x="202.20560455322266" y="729.1121520996094" type="line"/>
      <point x="202.2056074766355" y="869.7731083682243"/>
      <point x="316.4044617252336" y="983.9719626168223"/>
      <point x="457.0654205607476" y="983.9719626168223" type="curve" smooth="yes"/>
      <point x="597.7263793962617" y="983.9719626168223"/>
      <point x="711.9252336448598" y="869.7731083682243"/>
      <point x="711.9252336448598" y="729.1121495327102" type="curve"/>
    </contour>
    <contour>
      <point x="91.17756652832031" y="350.8878479003906" type="line"/>
      <point x="91.17757009345793" y="148.94885015887857"/>
      <point x="255.12642025233635" y="-14.999999999999973"/>
      <point x="457.06542056074755" y="-14.999999999999973" type="curve" smooth="yes"/>
      <point x="659.0044208691587" y="-14.999999999999973"/>
      <point x="822.9532710280373" y="148.94885015887843"/>
      <point x="822.9532710280373" y="350.88785046728964" type="curve"/>
      <point x="822.9532699584961" y="729.1121520996094" type="line"/>
      <point x="822.9532710280373" y="931.0511498411213"/>
      <point x="659.0044208691587" y="1094.9999999999998"/>
      <point x="457.0654205607476" y="1094.9999999999998" type="curve" smooth="yes"/>
      <point x="255.12642025233646" y="1094.9999999999998"/>
      <point x="91.17757009345793" y="931.0511498411214"/>
      <point x="91.17757009345793" y="729.1121495327102" type="curve"/>
    </contour>
  </outline>
</glyph>
<glyph name="one" format="2">
  <advance width="672.2242990654205"/>
  <unicode hex="0031"/>
  <outline>
    <contour>
      <point x="323.4953308105469" y="0" type="line"/>
      <point x="434.5233612060547" y="0" type="line"/>
      <point x="434.5233612060547" y="1079.3691635131836" type="line"/>
      <point x="323.4953308105469" y="1079.3691635131836" type="line"/>
      <point x="141.81307983398438" y="974.4748687744141" type="line"/>
      <point x="141.81307983398438" y="846.2707290649414" type="line"/>
      <point x="323.4953308105469" y="951.1650238037109" type="line"/>
    </contour>
  </outline>
</glyph>
<glyph name="two" format="2">
  <advance width="898.9906542056074"/>
  <unicode hex="0032"/>
  <outline>
    <contour>
      <point x="101.27102661132812" y="0" type="line"/>
      <point x="802.766357421875" y="0" type="line"/>
      <point x="802.766357421875" y="111.02803802490234" type="line"/>
      <point x="268.2435073852539" y="111.02803802490234" type="line"/>
      <point x="670.3098969313169" y="468.9836079249666" type="line"/>
      <point x="705.8617298957687" y="500.63503903352057"/>
      <point x="802.76636" y="591.4586361542337"/>
      <point x="802.76636" y="744.25234" type="curve"/>
      <point x="802.76636" y="937.8352400000001"/>
      <point x="645.6016000000001" y="1095.0"/>
      <point x="452.01869" y="1095.0" type="curve" smooth="yes"/>
      <point x="258.43579" y="1095.0"/>
      <point x="101.27103" y="937.83524"/>
      <point x="101.27103" y="744.25234" type="curve"/>
      <point x="212.299072265625" y="744.2523422241211" type="line"/>
      <point x="212.29907" y="876.5572"/>
      <point x="319.71383" y="983.97196"/>
      <point x="452.01869" y="983.97196" type="curve" smooth="yes"/>
      <point x="584.3235500000001" y="983.97196"/>
      <point x="691.73832" y="876.5572"/>
      <point x="691.73832" y="744.25234" type="curve"/>
      <point x="691.73832" y="639.7750227577262"/>
      <point x="625.6352456371458" y="577.8641152095012"/>
      <point x="596.4820087507045" y="551.9092879129622" type="curve"/>
      <point x="101.27102661132812" y="111.02803802490234" type="line"/>
    </contour>
  </outline>
</glyph>
<glyph name="three" format="2">
  <advance width="909.0841121495326"/>
  <unicode hex="0033"/>
  <outline>
    <contour>
      <point x="91.17756652832031" y="298.6517333984375" type="line"/>
      <point x="91.17757" y="124.72231"/>
      <point x="254.14772" y="-15.0"/>
      <point x="457.06542" y="-15.0" type="curve" smooth="yes"/>
      <point x="659.98312" y="-15.0"/>
      <point x="822.95327" y="124.72231"/>
      <point x="822.95327" y="298.65173" type="curve"/>
      <point x="822.95327" y="407.26230417784"/>
      <point x="759.404640768412" y="502.53414760974806"/>
      <point x="662.2631454467773" y="558.7727127075195" type="curve"/>
      <point x="747.6411592845907" y="612.6756326336999"/>
      <point x="802.76636" y="699.59305995546"/>
      <point x="802.76636" y="798.13771" type="curve"/>
      <point x="802.76636" y="962.80088"/>
      <point x="648.85275" y="1095.0"/>
      <point x="457.06542" y="1095.0" type="curve" smooth="yes"/>
      <point x="265.27809" y="1095.0"/>
      <point x="111.36449" y="962.80088"/>
      <point x="111.36449" y="798.13771" type="curve"/>
      <point x="222.39251708984375" y="798.1377105712891" type="line"/>
      <point x="222.39252" y="900.57531"/>
      <point x="327.38538" y="983.97196"/>
      <point x="457.06542" y="983.97196" type="curve" smooth="yes"/>
      <point x="586.74546" y="983.97196"/>
      <point x="691.73832" y="900.57531"/>
      <point x="691.73832" y="798.13771" type="curve"/>
      <point x="691.73832" y="708.2328384734076"/>
      <point x="611.0187469911249" y="612.3034621163731"/>
      <point x="437.06542" y="612.303459725063" type="curve"/>
      <point x="396.5046691894531" y="612.3034591674805" type="line"/>
      <point x="396.5046691894531" y="501.27542877197266" type="line"/>
      <point x="437.06542205810547" y="501.27542877197266" type="line"/>
      <point x="622.4254692459702" y="501.27542877197266"/>
      <point x="711.92523" y="397.56976222535246"/>
      <point x="711.92523" y="298.65173" type="curve"/>
      <point x="711.92523" y="186.95694"/>
      <point x="597.89781" y="96.02804"/>
      <point x="457.06542" y="96.02804" type="curve" smooth="yes"/>
      <point x="316.23304" y="96.02804"/>
      <point x="202.20561" y="186.95694"/>
      <point x="202.20561" y="298.65173" type="curve"/>
    </contour>
  </outline>
</glyph>
<glyph name="four" format="2">
  <advance width="980.0372093023257"/>
  <unicode hex="0034"/>
  <outline>
    <contour>
      <point x="85.6465072631836" y="250.71428680419922" type="line"/>
      <point x="627.7993392944336" y="250.71428680419922" type="line"/>
      <point x="627.7993392944336" y="0" type="line"/>
      <point x="741.1518936157227" y="0" type="line"/>
      <point x="741.1518936157227" y="250.71428680419922" type="line"/>
      <point x="924.5302276611328" y="250.71428680419922" type="line"/>
      <point x="924.5302276611328" y="362.2825927734375" type="line"/>
      <point x="741.1518936157227" y="362.2825927734375" type="line"/>
      <point x="741.1518936157227" y="1079.686050415039" type="line"/>
      <point x="601.807487487793" y="1079.686050415039" type="line"/>
      <point x="85.6465072631836" y="361.3904571533203" type="line"/>
    </contour>
    <contour>
      <point x="223.03772735595703" y="362.2825927734375" type="line"/>
      <point x="627.7993392944336" y="927.9124298095703" type="line"/>
      <point x="627.7993392944336" y="362.2825927734375" type="line"/>
    </contour>
  </outline>
</glyph>
<glyph name="five" format="2">
  <advance width="891.4716394727474"/>
  <unicode hex="0035"/>
  <outline>
    <contour>
      <point x="800.29407" y="350.88785" type="curve" smooth="yes"/>
      <point x="800.29407" y="552.82685"/>
      <point x="636.34522" y="716.7757"/>
      <point x="434.40622" y="716.7757" type="curve" smooth="yes"/>
      <point x="360.25204888792" y="716.7757"/>
      <point x="291.22061188463687" y="694.6682254619943"/>
      <point x="234.18425750732422" y="656.6782836914062" type="curve"/>
      <point x="267.00765228271484" y="968.9719619750977" type="line"/>
      <point x="759.671989440918" y="968.9719619750977" type="line"/>
      <point x="759.671989440918" y="1080" type="line"/>
      <point x="167.0375518798828" y="1080" type="line"/>
      <point x="106.31775665283203" y="502.2897186279297" type="line"/>
      <point x="229.43592071533203" y="502.2897186279297" type="line"/>
      <point x="275.87888" y="565.04098"/>
      <point x="350.42628" y="605.74766"/>
      <point x="434.40622" y="605.74766" type="curve" smooth="yes"/>
      <point x="575.06718" y="605.74766"/>
      <point x="689.26603" y="491.54881"/>
      <point x="689.26603" y="350.88785" type="curve" smooth="yes"/>
      <point x="689.26603" y="210.22689"/>
      <point x="575.06718" y="96.02804"/>
      <point x="434.40622" y="96.02804" type="curve" smooth="yes"/>
      <point x="350.4312" y="96.02804"/>
      <point x="275.88762" y="136.72995"/>
      <point x="229.44413" y="199.48598" type="curve"/>
      <point x="101.27102661132812" y="199.48597717285156" type="line"/>
      <point x="158.90382" y="72.99925"/>
      <point x="286.45945" y="-15.0"/>
      <point x="434.40622" y="-15.0" type="curve" smooth="yes"/>
      <point x="636.34522" y="-15.0"/>
      <point x="800.29407" y="148.94885"/>
    </contour>
  </outline>
</glyph>
<glyph name="six" format="2">
  <advance width="889.233644859813"/>
  <unicode hex="0036"/>
  <outline>
    <contour>
      <point x="818.07477" y="358.68017" type="curve" smooth="yes"/>
      <point x="818.07477" y="564.79721"/>
      <point x="650.73387" y="732.13811"/>
      <point x="444.61682" y="732.13811" type="curve" smooth="yes"/>
      <point x="421.43957607865" y="732.13811"/>
      <point x="398.75263063551427" y="730.0221968045469"/>
      <point x="376.73865509033203" y="725.9633407592773" type="curve"/>
      <point x="616.6125564575195" y="1079.3691635131836" type="line"/>
      <point x="482.42469024658203" y="1079.3691635131836" type="line"/>
      <point x="146.85957677993196" y="584.9545286722166" type="line"/>
      <point x="114.55307453893727" y="537.3548025163636"/>
      <point x="71.15888000000002" y="464.40655743189274"/>
      <point x="71.15888000000002" y="358.6801699999999" type="curve" smooth="yes"/>
      <point x="71.15888" y="152.5631199999999"/>
      <point x="238.49976999999993" y="-14.777779999999975"/>
      <point x="444.61682" y="-14.77778" type="curve" smooth="yes"/>
      <point x="650.73387" y="-14.77778"/>
      <point x="818.07477" y="152.56312"/>
    </contour>
    <contour>
      <point x="707.04673" y="358.68017" type="curve" smooth="yes"/>
      <point x="707.04673" y="213.84116"/>
      <point x="589.45583" y="96.25026"/>
      <point x="444.61682" y="96.25026" type="curve" smooth="yes"/>
      <point x="299.77782" y="96.25026"/>
      <point x="182.18692" y="213.84116"/>
      <point x="182.18692" y="358.68017" type="curve" smooth="yes"/>
      <point x="182.18692" y="503.51917"/>
      <point x="299.77782" y="621.11007"/>
      <point x="444.61682" y="621.11007" type="curve" smooth="yes"/>
      <point x="589.45583" y="621.11007"/>
      <point x="707.04673" y="503.51917"/>
    </contour>
  </outline>
</glyph>
<glyph name="seven" format="2">
  <advance width="843.8130841121497"/>
  <unicode hex="0037"/>
  <outline>
    <contour>
      <point x="140.97196197509766" y="0" type="line"/>
      <point x="266.0113830566406" y="0" type="line"/>
      <point x="767.6074829101562" y="968.3411178588867" type="line"/>
      <point x="767.6074829101562" y="1079.3691635131836" type="line"/>
      <point x="81.2523422241211" y="1079.3691635131836" type="line"/>
      <point x="81.2523422241211" y="968.3411178588867" type="line"/>
      <point x="642.5680618286133" y="968.3411178588867" type="line"/>
    </contour>
  </outline>
</glyph>
<glyph name="eight" format="2">
  <advance width="919.1775700934579"/>
  <unicode hex="0038"/>
  <outline>
    <contour>
      <point x="833.0467289719626" y="302.74415887850466" type="curve" smooth="yes"/>
      <point x="833.0467289719626" y="413.4717219928327"/>
      <point x="766.3331876493083" y="511.046658125745"/>
      <point x="665.2682952880859" y="567.9258499145508" type="curve"/>
      <point x="748.7304433535583" y="621.3409602295333"/>
      <point x="802.7663551401869" y="706.4445500210276"/>
      <point x="802.7663551401869" y="802.2301401869157" type="curve" smooth="yes"/>
      <point x="802.7663551401869" y="963.8142232210513"/>
      <point x="648.9936405084111" y="1094.9999999999998"/>
      <point x="459.58878504672896" y="1094.9999999999998" type="curve" smooth="yes"/>
      <point x="270.1839295850467" y="1094.9999999999998"/>
      <point x="116.41121495327101" y="963.8142232210513"/>
      <point x="116.41121495327101" y="802.2301401869157" type="curve" smooth="yes"/>
      <point x="116.41121495327101" y="706.4472969504391"/>
      <point x="170.44402751157642" y="621.3458414225012"/>
      <point x="253.90221405029297" y="567.9233169555664" type="curve"/>
      <point x="152.84142401442048" y="511.0423310848193"/>
      <point x="86.1308411214953" y="413.46926684399943"/>
      <point x="86.13084112149527" y="302.74415887850455" type="curve" smooth="yes"/>
      <point x="86.13084112149531" y="127.37638507619158"/>
      <point x="253.47173645607467" y="-15.0"/>
      <point x="459.58878504672884" y="-15.0" type="curve" smooth="yes"/>
      <point x="665.7058336373832" y="-15.000000000000057"/>
      <point x="833.0467289719626" y="127.3763850761915"/>
    </contour>
    <contour>
      <point x="691.7383177570093" y="802.2301401869157" type="curve" smooth="yes"/>
      <point x="691.7383177570093" y="701.9240986256774"/>
      <point x="587.715599035514" y="620.4883177570091"/>
      <point x="459.58878504672896" y="620.4883177570091" type="curve" smooth="yes"/>
      <point x="331.46197105794386" y="620.4883177570092"/>
      <point x="227.43925233644853" y="701.9240986256774"/>
      <point x="227.43925233644856" y="802.2301401869157" type="curve" smooth="yes"/>
      <point x="227.43925233644856" y="902.536181748154"/>
      <point x="331.46197105794386" y="983.9719626168223"/>
      <point x="459.58878504672896" y="983.9719626168223" type="curve" smooth="yes"/>
      <point x="587.715599035514" y="983.9719626168223"/>
      <point x="691.7383177570093" y="902.536181748154"/>
    </contour>
    <contour>
      <point x="722.018691588785" y="302.74415887850466" type="curve" smooth="yes"/>
      <point x="722.018691588785" y="188.6544265490887"/>
      <point x="604.4277921644859" y="96.02803738317756"/>
      <point x="459.58878504672884" y="96.02803738317756" type="curve" smooth="yes"/>
      <point x="314.74977792897187" y="96.02803738317756"/>
      <point x="197.15887850467288" y="188.65442654908875"/>
      <point x="197.15887850467288" y="302.74415887850466" type="curve" smooth="yes"/>
      <point x="197.15887850467288" y="416.83389120792054"/>
      <point x="314.7497779289719" y="509.4602803738317"/>
      <point x="459.58878504672896" y="509.4602803738317" type="curve" smooth="yes"/>
      <point x="604.4277921644859" y="509.4602803738317"/>
      <point x="722.018691588785" y="416.83389120792054"/>
    </contour>
  </outline>
</glyph>
<glyph name="nine" format="2">
  <advance width="873.7570093457944"/>
  <unicode hex="0039"/>
  <outline>
    <contour>
      <point x="802.7663551401869" y="729.1121495327101" type="curve" smooth="yes"/>
      <point x="802.7663551401869" y="931.0511498411213"/>
      <point x="638.8175049813083" y="1094.9999999999998"/>
      <point x="436.8785046728972" y="1094.9999999999998" type="curve" smooth="yes"/>
      <point x="234.93950436448597" y="1094.9999999999998"/>
      <point x="70.99065420560747" y="931.0511498411214"/>
      <point x="70.99065420560747" y="729.1121495327102" type="curve" smooth="yes"/>
      <point x="70.99065420560747" y="527.173149224299"/>
      <point x="234.9395043644859" y="363.2242990654205"/>
      <point x="436.8785046728971" y="363.2242990654205" type="curve" smooth="yes"/>
      <point x="465.4962901016036" y="363.2242990654205"/>
      <point x="493.3511139796981" y="366.5169069768376"/>
      <point x="520.0842056274414" y="372.7528533935547" type="curve"/>
      <point x="296.1116943359375" y="0" type="line"/>
      <point x="425.6407165527344" y="0" type="line"/>
      <point x="750.5056076049805" y="540.6659774780273" type="line"/>
      <point x="750.4958343505859" y="540.6718444824219" type="line"/>
      <point x="783.6743672640334" y="595.7131721165032"/>
      <point x="802.766355140187" y="660.200667616465"/>
    </contour>
    <contour>
      <point x="691.7383177570093" y="729.1121495327102" type="curve" smooth="yes"/>
      <point x="691.7383177570093" y="588.4511906971961"/>
      <point x="577.539463508411" y="474.25233644859804"/>
      <point x="436.8785046728971" y="474.25233644859804" type="curve" smooth="yes"/>
      <point x="296.2175458373831" y="474.25233644859804"/>
      <point x="182.018691588785" y="588.4511906971961"/>
      <point x="182.01869158878503" y="729.1121495327102" type="curve" smooth="yes"/>
      <point x="182.01869158878503" y="869.7731083682243"/>
      <point x="296.21754583738317" y="983.9719626168223"/>
      <point x="436.8785046728972" y="983.9719626168223" type="curve" smooth="yes"/>
      <point x="577.5394635084111" y="983.9719626168223"/>
      <point x="691.7383177570093" y="869.7731083682243"/>
    </contour>
  </outline>
</glyph>
<glyph name="colon" format="2">
  <advance width="388.7441860465117"/>
  <unicode hex="003A"/>
  <outline>
    <contour>
      <point x="298.07442" y="720.16621" type="curve" smooth="yes"/>
      <point x="298.07442" y="777.40109"/>
      <point x="251.60696" y="823.86854"/>
      <point x="194.37209" y="823.86854" type="curve" smooth="yes"/>
      <point x="137.13722" y="823.86854"/>
      <point x="90.66977" y="777.40109"/>
      <point x="90.66977" y="720.16621" type="curve" smooth="yes"/>
      <point x="90.66977" y="662.93134"/>
      <point x="137.13722" y="616.46389"/>
      <point x="194.37209" y="616.46389" type="curve" smooth="yes"/>
      <point x="251.60696" y="616.46389"/>
      <point x="298.07442" y="662.93134"/>
    </contour>
    <contour>
      <point x="298.07442" y="88.81344" type="curve" smooth="yes"/>
      <point x="298.07442" y="146.04831"/>
      <point x="251.60696" y="192.51576"/>
      <point x="194.37209" y="192.51576" type="curve" smooth="yes"/>
      <point x="137.13722" y="192.51576"/>
      <point x="90.66977" y="146.04831"/>
      <point x="90.66977" y="88.81344" type="curve" smooth="yes"/>
      <point x="90.66977" y="31.57857"/>
      <point x="137.13722" y="-14.88889"/>
      <point x="194.37209" y="-14.88889" type="curve" smooth="yes"/>
      <point x="251.60696" y="-14.88889"/>
      <point x="298.07442" y="31.57857"/>
    </contour>
  </outline>
</glyph>
<glyph name="semicolon" format="2">
  <advance width="374.7795907363822"/>
  <unicode hex="003B"/>
  <outline>
    <contour>
      <point x="283.60202" y="700.34579" type="curve" smooth="yes"/>
      <point x="283.60202" y="751.03945"/>
      <point x="242.44521" y="792.19626"/>
      <point x="191.75155" y="792.19626" type="curve" smooth="yes"/>
      <point x="141.0579" y="792.19626"/>
      <point x="99.90109" y="751.03945"/>
      <point x="99.90109" y="700.34579" type="curve" smooth="yes"/>
      <point x="99.90109" y="649.65214"/>
      <point x="141.0579" y="608.49533"/>
      <point x="191.75155" y="608.49533" type="curve" smooth="yes"/>
      <point x="242.44521" y="608.49533"/>
      <point x="283.60202" y="649.65214"/>
    </contour>
    <contour>
      <point x="167.14376068115234" y="-238.45793914794922" type="line"/>
      <point x="247.015702547391" y="-100.11566887640754"/>
      <point x="247.26556941103917" y="17.679149637300476"/>
      <point x="247.26557054938326" y="100.56074999999998" type="curve"/>
      <point x="247.26557159423828" y="176.63551330566406" type="line"/>
      <point x="136.23753356933594" y="176.63551330566406" type="line"/>
      <point x="136.23753356933594" y="100.56075286865234" type="line"/>
      <point x="136.23753356933594" y="24.409322605785164"/>
      <point x="136.23752715901207" y="-69.93302329603027"/>
      <point x="70.99065" y="-182.94393" type="curve"/>
    </contour>
  </outline>
</glyph>
<glyph name="less" format="2">
  <advance width="1020.9217289719625"/>
  <unicode hex="003C"/>
  <outline>
    <contour>
      <point x="106.48597717285156" y="549.4641723632812" type="line"/>
      <point x="106.48597717285156" y="429.6012496948242" type="line"/>
      <point x="914.4357528686523" y="100.93457794189453" type="line"/>
      <point x="914.4357528686523" y="220.79750061035156" type="line"/>
      <point x="253.81339263916016" y="489.53271484375" type="line"/>
      <point x="914.4357528686523" y="758.2679214477539" type="line"/>
      <point x="914.4357528686523" y="878.1308364868164" type="line"/>
    </contour>
  </outline>
</glyph>
<glyph name="equal" format="2">
  <advance width="990.1682242990653"/>
  <unicode hex="003D"/>
  <outline>
    <contour>
      <point x="106.48598" y="580.37383" type="line"/>
      <point x="883.68224" y="580.37383" type="line"/>
      <point x="883.68224" y="691.40187" type="line"/>
      <point x="106.48598" y="691.40187" type="line"/>
    </contour>
    <contour>
      <point x="106.48598" y="287.66355" type="line"/>
      <point x="883.68224" y="287.66355" type="line"/>
      <point x="883.68224" y="398.69159" type="line"/>
      <point x="106.48598" y="398.69159" type="line"/>
    </contour>
  </outline>
</glyph>
<glyph name="greater" format="2">
  <advance width="919.3362645348838"/>
  <unicode hex="003E"/>
  <outline>
    <contour>
      <point x="105.73953247070312" y="100.46511840820312" type="line"/>
      <point x="813.5967330932617" y="432.5455780029297" type="line"/>
      <point x="813.5967330932617" y="546.9893112182617" type="line"/>
      <point x="105.73953247070312" y="879.0697708129883" type="line"/>
      <point x="105.73953247070312" y="753.0525207519531" type="line"/>
      <point x="668.7862396240234" y="489.76744079589844" type="line"/>
      <point x="105.73953247070312" y="226.48236083984375" type="line"/>
    </contour>
  </outline>
</glyph>
<glyph name="question" format="2">
  <advance width="808.485981308411"/>
  <unicode hex="003F"/>
  <outline>
    <contour>
      <point x="333.92523193359375" y="293.40914154052734" type="line"/>
      <point x="444.9532699584961" y="293.40914154052734" type="line"/>
      <point x="444.9532699584961" y="440.5893249511719" type="line"/>
      <point x="606.8216820129301" y="460.65155807085887"/>
      <point x="732.2803700000001" y="598.8449373426"/>
      <point x="732.28037" y="766.1095500000001" type="curve"/>
      <point x="732.28037" y="947.15831"/>
      <point x="585.29175" y="1094.14694"/>
      <point x="404.24299" y="1094.14694" type="curve" smooth="yes"/>
      <point x="223.19423" y="1094.14694"/>
      <point x="76.20561" y="947.15831"/>
      <point x="76.20561" y="766.10955" type="curve"/>
      <point x="187.233642578125" y="766.1095504760742" type="line"/>
      <point x="187.23364" y="885.88027"/>
      <point x="284.47227" y="983.1189"/>
      <point x="404.24299" y="983.1189" type="curve" smooth="yes"/>
      <point x="524.01371" y="983.1189"/>
      <point x="621.25234" y="885.8802700000001"/>
      <point x="621.25234" y="766.10955" type="curve"/>
      <point x="621.25234" y="668.0176105493695"/>
      <point x="553.4518803151553" y="549.1002055499703"/>
      <point x="384.24299" y="549.1002105964832" type="curve"/>
      <point x="333.92523193359375" y="549.100212097168" type="line"/>
    </contour>
    <contour>
      <point x="481.28972" y="77.07269" type="curve" smooth="yes"/>
      <point x="481.28972" y="127.76634"/>
      <point x="440.1329" y="168.92316"/>
      <point x="389.43925" y="168.92316" type="curve" smooth="yes"/>
      <point x="338.7456" y="168.92316"/>
      <point x="297.58879" y="127.76634"/>
      <point x="297.58879" y="77.07269" type="curve" smooth="yes"/>
      <point x="297.58879" y="26.37904"/>
      <point x="338.7456" y="-14.77778"/>
      <point x="389.43925" y="-14.77778" type="curve" smooth="yes"/>
      <point x="440.1329" y="-14.77778"/>
      <point x="481.28972" y="26.37904"/>
    </contour>
  </outline>
</glyph>
<glyph name="at" format="2">
  <advance width="1394.6302325581394"/>
  <unicode hex="0040"/>
  <outline>
    <contour>
      <point x="697.31512" y="235.22994" type="curve" smooth="yes"/>
      <point x="567.90921" y="235.22994"/>
      <point x="462.84803" y="340.29112"/>
      <point x="462.84803" y="469.69703" type="curve"/>
      <point x="462.84803" y="599.10293"/>
      <point x="567.90921" y="704.16411"/>
      <point x="697.31512" y="704.16411" type="curve" smooth="yes"/>
      <point x="826.72102" y="704.16411"/>
      <point x="931.7822" y="599.10293"/>
      <point x="931.7822" y="469.69703" type="curve"/>
      <point x="931.7822" y="340.29112"/>
      <point x="826.72102" y="235.22994"/>
    </contour>
    <contour>
      <point x="180.22326" y="472.85982" type="curve"/>
      <point x="180.22326" y="758.25058"/>
      <point x="411.92435" y="989.95168"/>
      <point x="697.31512" y="989.95168" type="curve" smooth="yes"/>
      <point x="982.7058900000001" y="989.95168"/>
      <point x="1214.40698" y="758.2505900000001"/>
      <point x="1214.40698" y="472.85982" type="curve"/>
      <point x="1214.40698" y="372.44586373321073"/>
      <point x="1177.1476947142135" y="241.87604"/>
      <point x="1105.18326" y="241.87604" type="curve"/>
      <point x="1041.5360121670578" y="241.87604"/>
      <point x="1040.150010024903" y="325.51880237828016"/>
      <point x="1040.1500099630928" y="359.01368" type="curve"/>
      <point x="1040.1500091552734" y="796.7695236206055" type="line"/>
      <point x="931.7822036743164" y="796.7695236206055" type="line"/>
      <point x="931.7822036743164" y="698.6501922607422" type="line"/>
      <point x="876.2708778928627" y="768.0321550468261"/>
      <point x="793.2767360949399" y="811.6584100000001"/>
      <point x="692.5709299999999" y="811.65841" type="curve" smooth="yes"/>
      <point x="503.83731" y="811.65841"/>
      <point x="350.98614" y="658.43065"/>
      <point x="350.98614" y="469.69703" type="curve"/>
      <point x="350.98614" y="279.86205999999993"/>
      <point x="505.10804999999993" y="127.73565000000004"/>
      <point x="694.94302" y="127.73565" type="curve" smooth="yes"/>
      <point x="805.98406785976" y="127.73565"/>
      <point x="900.717802808761" y="180.77595536425906"/>
      <point x="959.8957595825195" y="262.8951416015625" type="curve"/>
      <point x="980.9487340941862" y="192.33319673910844"/>
      <point x="1032.26830991794" y="142.80542000000003"/>
      <point x="1105.18326" y="142.80542000000003" type="curve"/>
      <point x="1222.9395" y="142.80542"/>
      <point x="1319.03023" y="290.2822799999999"/>
      <point x="1319.03023" y="472.85982" type="curve"/>
      <point x="1319.03023" y="815.9937300000001"/>
      <point x="1040.4490300000002" y="1094.57494"/>
      <point x="697.31512" y="1094.57494" type="curve" smooth="yes"/>
      <point x="354.18121" y="1094.57494"/>
      <point x="75.6" y="815.99373"/>
      <point x="75.6" y="472.85982" type="curve"/>
      <point x="75.6" y="129.72591"/>
      <point x="354.18121" y="-148.8553"/>
      <point x="697.31512" y="-148.8553" type="curve"/>
      <point x="886.71474" y="-148.8553"/>
      <point x="1056.44704" y="-63.97972"/>
      <point x="1170.51882" y="69.78217" type="curve"/>
      <point x="1023.089241027832" y="69.78217315673828" type="line"/>
      <point x="933.87489" y="-1.535060000000044"/>
      <point x="820.5500200000001" y="-44.23204"/>
      <point x="697.31512" y="-44.23204" type="curve"/>
      <point x="411.9243499999999" y="-44.23203999999996"/>
      <point x="180.22326000000004" y="187.46904999999992"/>
    </contour>
  </outline>
</glyph>
<glyph name="A" format="2">
  <advance width="1062.7149532709693"/>
  <unicode hex="0041"/>
  <anchor x="531.3574766355139" y="1200.4906542056074" name="above" identifier="above"/>
  <anchor x="531.3574766355139" y="-121.12149532710279" name="below" identifier="below"/>
  <anchor x="1047.0700934579438" y="0" name="ogonek" identifier="ogonek"/>
  <outline>
    <contour>
      <point x="15.644859313964844" y="0" type="line"/>
      <point x="136.15281677246094" y="0" type="line"/>
      <point x="262.81065368652344" y="300.1602096557617" type="line"/>
      <point x="799.9043045043945" y="300.1602096557617" type="line"/>
      <point x="926.562141418457" y="0" type="line"/>
      <point x="1047.0700912475586" y="0" type="line"/>
      <point x="591.611457824707" y="1079.3691635131836" type="line"/>
      <point x="471.10350036621094" y="1079.3691635131836" type="line"/>
    </contour>
    <contour>
      <point x="309.6608657836914" y="411.18824768066406" type="line"/>
      <point x="531.3574829101562" y="936.5762023925781" type="line"/>
      <point x="753.0540924072266" y="411.18824768066406" type="line"/>
    </contour>
  </outline>
</glyph>
<glyph name="B" format="2">
  <advance width="974.6915887850466"/>
  <unicode hex="0042"/>
  <outline>
    <contour>
      <point x="106.31775665283203" y="0" type="line"/>
      <point x="616.0373764038086" y="0" type="line"/>
      <point x="780.37395" y="0.0"/>
      <point x="913.79439" y="133.42044"/>
      <point x="913.79439" y="297.75701" type="curve" smooth="yes"/>
      <point x="913.79439" y="408.18576193318995"/>
      <point x="853.5497713411" y="504.65465537499006"/>
      <point x="764.1624526977539" y="556.0521621704102" type="curve"/>
      <point x="827.935296971773" y="610.6666659220646"/>
      <point x="868.3738299999999" y="691.7696277619101"/>
      <point x="868.3738299999999" y="782.2429900000001" type="curve" smooth="yes"/>
      <point x="868.37383" y="946.57956"/>
      <point x="734.95339" y="1080.0"/>
      <point x="570.61682" y="1080.0" type="curve"/>
      <point x="106.31775665283203" y="1080" type="line"/>
    </contour>
    <contour>
      <point x="570.6168212890625" y="968.9719619750977" type="line"/>
      <point x="673.67535" y="968.97196"/>
      <point x="757.34579" y="885.30151"/>
      <point x="757.34579" y="782.24299" type="curve" smooth="yes"/>
      <point x="757.34579" y="679.18447"/>
      <point x="673.67535" y="595.51402"/>
      <point x="570.61682" y="595.51402" type="curve"/>
      <point x="217.34578704833984" y="595.5140228271484" type="line"/>
      <point x="217.34578704833984" y="968.9719619750977" type="line"/>
    </contour>
    <contour>
      <point x="616.0373764038086" y="484.48597717285156" type="line"/>
      <point x="719.09591" y="484.48598"/>
      <point x="802.76636" y="400.81553"/>
      <point x="802.76636" y="297.75701" type="curve" smooth="yes"/>
      <point x="802.76636" y="194.69849"/>
      <point x="719.09591" y="111.02804"/>
      <point x="616.03738" y="111.02804" type="curve"/>
      <point x="217.34578704833984" y="111.02803802490234" type="line"/>
      <point x="217.34578704833984" y="484.48597717285156" type="line"/>
    </contour>
  </outline>
</glyph>
<glyph name="C" format="2">
  <advance width="1197.6314315082868"/>
  <unicode hex="0043"/>
  <anchor x="625.621235721703" y="1200.4906542056074" name="above" identifier="above"/>
  <anchor x="625.621235721703" y="-121.12149532710279" name="below" identifier="below"/>
  <anchor x="625.621235721703" y="0" name="cedilla" identifier="cedilla"/>
  <outline>
    <contour>
      <point x="625.62124" y="96.25026" type="curve" smooth="yes"/>
      <point x="380.88317" y="96.25026"/>
      <point x="182.18692" y="294.94652"/>
      <point x="182.18692" y="539.68458" type="curve" smooth="yes"/>
      <point x="182.18692" y="784.42264"/>
      <point x="380.88317" y="983.1189"/>
      <point x="625.62124" y="983.1189" type="curve" smooth="yes"/>
      <point x="787.38208" y="983.1189"/>
      <point x="929.02903" y="896.31615"/>
      <point x="1006.48386" y="766.78738" type="curve"/>
      <point x="1131.51928" y="766.78738" type="line"/>
      <point x="1044.69911" y="959.69805"/>
      <point x="850.73739" y="1094.14694"/>
      <point x="625.62124" y="1094.14694" type="curve" smooth="yes"/>
      <point x="319.60513" y="1094.14694"/>
      <point x="71.15888" y="845.70068"/>
      <point x="71.15888" y="539.68458" type="curve" smooth="yes"/>
      <point x="71.15888" y="233.66848"/>
      <point x="319.60513" y="-14.77778"/>
      <point x="625.62124" y="-14.77778" type="curve" smooth="yes"/>
      <point x="850.73188" y="-14.77778"/>
      <point x="1044.68962" y="119.66453"/>
      <point x="1131.51297" y="312.58177" type="curve"/>
      <point x="1006.48138" y="312.58177" type="line"/>
      <point x="929.02603" y="183.05117"/>
      <point x="787.38037" y="96.25026"/>
    </contour>
  </outline>
</glyph>
<glyph name="D" format="2">
  <advance width="1105.9065420560746"/>
  <unicode hex="0044"/>
  <outline>
    <contour>
      <point x="106.31775665283203" y="0" type="line"/>
      <point x="494.91588592529297" y="0" type="line"/>
      <point x="792.9499986504673" y="0.0"/>
      <point x="1034.9158878504672" y="241.96588920000002"/>
      <point x="1034.9158878504672" y="539.9999999999999" type="curve" smooth="yes"/>
      <point x="1034.9158878504672" y="838.0341107999999"/>
      <point x="792.9499986504671" y="1079.9999999999998"/>
      <point x="494.91588785046724" y="1079.9999999999998" type="curve"/>
      <point x="106.31775665283203" y="1080" type="line"/>
    </contour>
    <contour>
      <point x="494.91588592529297" y="968.9719619750977" type="line"/>
      <point x="731.67195717757" y="968.9719626168223"/>
      <point x="923.8878504672896" y="776.7560693271026"/>
      <point x="923.8878504672896" y="539.9999999999999" type="curve" smooth="yes"/>
      <point x="923.8878504672896" y="303.2439306728972"/>
      <point x="731.67195717757" y="111.02803738317756"/>
      <point x="494.91588785046724" y="111.02803738317756" type="curve"/>
      <point x="217.34579467773438" y="111.02803802490234" type="line"/>
      <point x="217.34579467773438" y="968.9719619750977" type="line"/>
    </contour>
  </outline>
</glyph>
<glyph name="E" format="2">
  <advance width="944.4112149532709"/>
  <unicode hex="0045"/>
  <anchor x="479.7757009345794" y="1201.1214953271026" name="above" identifier="above"/>
  <anchor x="479.7757009345794" y="-121.12149532710279" name="below" identifier="below"/>
  <anchor x="479.7757009345794" y="0" name="cedilla" identifier="cedilla"/>
  <anchor x="853.233644859813" y="0" name="ogonek" identifier="ogonek"/>
  <outline>
    <contour>
      <point x="106.31775665283203" y="0" type="line"/>
      <point x="853.233642578125" y="0" type="line"/>
      <point x="853.233642578125" y="111.02803802490234" type="line"/>
      <point x="217.34578704833984" y="111.02803802490234" type="line"/>
      <point x="217.34578704833984" y="484.48597717285156" type="line"/>
      <point x="792.6728973388672" y="484.48597717285156" type="line"/>
      <point x="792.6728973388672" y="595.5140228271484" type="line"/>
      <point x="217.34578704833984" y="595.5140228271484" type="line"/>
      <point x="217.34578704833984" y="968.9719619750977" type="line"/>
      <point x="853.233642578125" y="968.9719619750977" type="line"/>
      <point x="853.233642578125" y="1080" type="line"/>
      <point x="106.31775665283203" y="1080" type="line"/>
    </contour>
  </outline>
</glyph>
<glyph name="F" format="2">
  <advance width="914.467289719626"/>
  <unicode hex="0046"/>
  <anchor x="472.37383177570086" y="1200.4906542056074" name="above" identifier="above"/>
  <anchor x="106.4859813084112" y="0" name="hookleft" identifier="hookleft"/>
  <outline>
    <contour>
      <point x="106.48597717285156" y="0" type="line"/>
      <point x="217.51402282714844" y="0" type="line"/>
      <point x="217.51402282714844" y="465.6658935546875" type="line"/>
      <point x="747.4205627441406" y="465.6658935546875" type="line"/>
      <point x="747.4205627441406" y="576.6939315795898" type="line"/>
      <point x="217.51402282714844" y="576.6939315795898" type="line"/>
      <point x="217.51402282714844" y="968.3411178588867" type="line"/>
      <point x="838.2616806030273" y="968.3411178588867" type="line"/>
      <point x="838.2616806030273" y="1079.3691635131836" type="line"/>
      <point x="106.48597717285156" y="1079.3691635131836" type="line"/>
    </contour>
  </outline>
</glyph>
<glyph name="G" format="2">
  <advance width="1251.9813084112145"/>
  <unicode hex="0047"/>
  <outline>
    <contour>
      <point x="625.9906539916992" y="439.06542205810547" type="line"/>
      <point x="1058.410499572754" y="439.06542205810547" type="line"/>
      <point x="1012.648782631967" y="242.57299518534626"/>
      <point x="836.2983826337734" y="96.02803738317749"/>
      <point x="625.9906542056074" y="96.02803738317749" type="curve" smooth="yes"/>
      <point x="380.9558595785046" y="96.02803738317762"/>
      <point x="182.01869158878498" y="294.96520537289723"/>
      <point x="182.01869158878503" y="539.9999999999999" type="curve" smooth="yes"/>
      <point x="182.01869158878503" y="785.0347946271028"/>
      <point x="380.95585957850466" y="983.9719626168223"/>
      <point x="625.9906542056074" y="983.9719626168223" type="curve" smooth="yes"/>
      <point x="781.6744911111157" y="983.9719626168223"/>
      <point x="918.7498821680113" y="903.6660599521726"/>
      <point x="998.0172729492186" y="782.2429940767377" type="curve"/>
      <point x="1125.3915557861328" y="782.2429962158203" type="line"/>
      <point x="1035.367838598088" y="967.3212889861868"/>
      <point x="845.472071717832" y="1094.9999999999998"/>
      <point x="625.9906542056074" y="1094.9999999999998" type="curve" smooth="yes"/>
      <point x="319.67781810560746" y="1094.9999999999998"/>
      <point x="70.99065420560747" y="846.3128360999999"/>
      <point x="70.99065420560747" y="539.9999999999999" type="curve" smooth="yes"/>
      <point x="70.99065420560747" y="233.6871639"/>
      <point x="319.67781810560734" y="-15.0"/>
      <point x="625.9906542056073" y="-15.0" type="curve" smooth="yes"/>
      <point x="932.3034903056073" y="-15.0"/>
      <point x="1180.9906542056071" y="233.68716389999983"/>
      <point x="1180.9906542056071" y="539.9999999999999" type="curve" smooth="yes"/>
      <point x="1180.9906542056071" y="543.4570466682246"/>
      <point x="1180.9589779775247" y="546.9067533358341"/>
      <point x="1180.8959039705933" y="550.0934613664573" type="curve"/>
      <point x="625.9906539916992" y="550.0934600830078" type="line"/>
    </contour>
  </outline>
</glyph>
<glyph name="H" format="2">
  <advance width="1050.392523364486"/>
  <unicode hex="0048"/>
  <anchor x="525.196261682243" y="1201.1214953271026" name="above" identifier="above"/>
  <anchor x="525.196261682243" y="-121.12149532710279" name="below" identifier="below"/>
  <anchor x="161.83177570093457" y="0" name="cedilla" identifier="cedilla"/>
  <anchor x="525.196261682243" y="837.7570093457942" name="stroke" identifier="stroke"/>
  <outline>
    <contour>
      <point x="106.31775665283203" y="0" type="line"/>
      <point x="217.34578704833984" y="0" type="line"/>
      <point x="217.34578704833984" y="484.48597717285156" type="line"/>
      <point x="833.0467300415039" y="484.48597717285156" type="line"/>
      <point x="833.0467300415039" y="0" type="line"/>
      <point x="944.0747680664062" y="0" type="line"/>
      <point x="944.0747680664062" y="1080" type="line"/>
      <point x="833.0467300415039" y="1080" type="line"/>
      <point x="833.0467300415039" y="595.5140228271484" type="line"/>
      <point x="217.34578704833984" y="595.5140228271484" type="line"/>
      <point x="217.34578704833984" y="1080" type="line"/>
      <point x="106.31775665283203" y="1080" type="line"/>
    </contour>
  </outline>
</glyph>
<glyph name="I" format="2">
  <advance width="323.66355140186914"/>
  <unicode hex="0049"/>
  <outline>
    <contour>
      <point x="106.31775700934578" y="0.0" type="line"/>
      <point x="217.34579439252335" y="0.0" type="line"/>
      <point x="217.34579439252335" y="1079.9999999999998" type="line"/>
      <point x="106.31775700934578" y="1079.9999999999998" type="line"/>
    </contour>
  </outline>
</glyph>
<glyph name="J" format="2">
  <advance width="868.7102803738317"/>
  <unicode hex="004A"/>
  <anchor x="722.0186915887849" y="1201.1214953271026" name="above" identifier="above"/>
  <outline>
    <contour>
      <point x="60.89720153808594" y="343.31775665283203" type="line"/>
      <point x="60.897199999999984" y="145.55679999999992"/>
      <point x="221.4539999999999" y="-14.999999999999975"/>
      <point x="419.21495" y="-15.0" type="curve" smooth="yes"/>
      <point x="591.6371171497493" y="-15.0"/>
      <point x="777.5327108725062" y="112.5776726045759"/>
      <point x="777.5327099243732" y="363.31776" type="curve"/>
      <point x="777.5327072143555" y="1080" type="line"/>
      <point x="666.5046691894531" y="1080" type="line"/>
      <point x="666.5046691894531" y="363.31775665283203" type="line"/>
      <point x="666.5046691894531" y="176.8184091438092"/>
      <point x="533.4823865960748" y="96.02804"/>
      <point x="419.21495" y="96.02804" type="curve" smooth="yes"/>
      <point x="282.7320399999999" y="96.02804000000002"/>
      <point x="171.92523" y="206.83484999999993"/>
      <point x="171.92523" y="343.31776" type="curve"/>
    </contour>
  </outline>
</glyph>
<glyph name="K" format="2">
  <advance width="984.7850467289547"/>
  <unicode hex="004B"/>
  <outline>
    <contour>
      <point x="106.31775665283203" y="0" type="line"/>
      <point x="217.34578704833984" y="0" type="line"/>
      <point x="217.34578704833984" y="484.4859848022461" type="line"/>
      <point x="770.5132522583008" y="0" type="line"/>
      <point x="939.0280380249023" y="0" type="line"/>
      <point x="322.476806640625" y="540" type="line"/>
      <point x="939.0280380249023" y="1080" type="line"/>
      <point x="770.5132522583008" y="1080" type="line"/>
      <point x="217.34578704833984" y="595.5140151977539" type="line"/>
      <point x="217.34578704833984" y="1080" type="line"/>
      <point x="106.31775665283203" y="1080" type="line"/>
    </contour>
  </outline>
</glyph>
<glyph name="L" format="2">
  <advance width="868.7102803738317"/>
  <unicode hex="004C"/>
  <anchor x="161.83177570093457" y="1201.1214953271026" name="above" identifier="above"/>
  <anchor x="464.63551401869154" y="-121.12149532710279" name="below" identifier="below"/>
  <anchor x="338.46728971962614" y="1079.9999999999998" name="caron" identifier="caron"/>
  <anchor x="106.31775700934578" y="539.9999999999999" name="stroke" identifier="stroke"/>
  <anchor x="464.63551401869154" y="539.9999999999999" name="dotmiddle" identifier="dotmiddle"/>
  <outline>
    <contour>
      <point x="106.31775665283203" y="0" type="line"/>
      <point x="822.9532699584961" y="0" type="line"/>
      <point x="822.9532699584961" y="111.02803802490234" type="line"/>
      <point x="217.34578704833984" y="111.02803802490234" type="line"/>
      <point x="217.34578704833984" y="1080" type="line"/>
      <point x="106.31775665283203" y="1080" type="line"/>
    </contour>
  </outline>
</glyph>
<glyph name="M" format="2">
  <advance width="1208.2289719626167"/>
  <unicode hex="004D"/>
  <anchor x="604.1144859813083" y="1200.4906542056074" name="above" identifier="above"/>
  <anchor x="604.1144859813083" y="-121.12149532710279" name="below" identifier="below"/>
  <outline>
    <contour>
      <point x="106.48597717285156" y="0" type="line"/>
      <point x="217.51402282714844" y="0" type="line"/>
      <point x="217.51402282714844" y="880.1448287963867" type="line"/>
      <point x="548.600471496582" y="286.05641174316406" type="line"/>
      <point x="659.6285018920898" y="286.05641174316406" type="line"/>
      <point x="990.7149505615234" y="880.1448440551758" type="line"/>
      <point x="990.7149505615234" y="0" type="line"/>
      <point x="1101.7429885864258" y="0" type="line"/>
      <point x="1101.7429885864258" y="1079.3691635131836" type="line"/>
      <point x="974.63720703125" y="1079.3691635131836" type="line"/>
      <point x="604.1144866943359" y="414.51782989501953" type="line"/>
      <point x="233.59175872802734" y="1079.3691635131836" type="line"/>
      <point x="106.48597717285156" y="1079.3691635131836" type="line"/>
    </contour>
  </outline>
</glyph>
<glyph name="N" format="2">
  <advance width="1078.485981308411"/>
  <unicode hex="004E"/>
  <anchor x="539.2429906542055" y="1200.4906542056074" name="above" identifier="above"/>
  <anchor x="539.2429906542055" y="-121.12149532710279" name="below" identifier="below"/>
  <anchor x="106.4859813084112" y="0" name="hookleft" identifier="hookleft"/>
  <outline>
    <contour>
      <point x="106.48597717285156" y="0" type="line"/>
      <point x="217.51402282714844" y="0" type="line"/>
      <point x="217.51402282714844" y="889.884521484375" type="line"/>
      <point x="860.9719619750977" y="0" type="line"/>
      <point x="972" y="0" type="line"/>
      <point x="972" y="1079.3691635131836" type="line"/>
      <point x="860.9719619750977" y="1079.3691635131836" type="line"/>
      <point x="860.9719619750977" y="189.4846420288086" type="line"/>
      <point x="217.51402282714844" y="1079.3691635131836" type="line"/>
      <point x="106.48597717285156" y="1079.3691635131836" type="line"/>
    </contour>
  </outline>
</glyph>
<glyph name="O" format="2">
  <advance width="1251.242471443406"/>
  <unicode hex="004F"/>
  <anchor x="625.621235721703" y="1200.4906542056074" name="above" identifier="above"/>
  <anchor x="625.621235721703" y="-121.12149532710279" name="below" identifier="below"/>
  <anchor x="625.621235721703" y="0" name="ogonek" identifier="ogonek"/>
  <anchor x="625.621235721703" y="539.6845794392523" name="stroke" identifier="stroke"/>
  <anchor x="625.621235721703" y="1094.1469366562824" name="horn" identifier="horn"/>
  <outline>
    <contour>
      <point x="1180.08359" y="539.68458" type="curve" smooth="yes"/>
      <point x="1180.08359" y="845.70068"/>
      <point x="931.63734" y="1094.14694"/>
      <point x="625.62124" y="1094.14694" type="curve" smooth="yes"/>
      <point x="319.60513" y="1094.14694"/>
      <point x="71.15888" y="845.70068"/>
      <point x="71.15888" y="539.68458" type="curve" smooth="yes"/>
      <point x="71.15888" y="233.66848"/>
      <point x="319.60513" y="-14.77778"/>
      <point x="625.62124" y="-14.77778" type="curve" smooth="yes"/>
      <point x="931.63734" y="-14.77778"/>
      <point x="1180.08359" y="233.66848"/>
    </contour>
    <contour>
      <point x="1069.05556" y="539.68458" type="curve" smooth="yes"/>
      <point x="1069.05556" y="294.94652"/>
      <point x="870.3593" y="96.25026"/>
      <point x="625.62124" y="96.25026" type="curve" smooth="yes"/>
      <point x="380.88317" y="96.25026"/>
      <point x="182.18692" y="294.94652"/>
      <point x="182.18692" y="539.68458" type="curve" smooth="yes"/>
      <point x="182.18692" y="784.42264"/>
      <point x="380.88317" y="983.1189"/>
      <point x="625.62124" y="983.1189" type="curve" smooth="yes"/>
      <point x="870.3593" y="983.1189"/>
      <point x="1069.05556" y="784.42264"/>
    </contour>
  </outline>
</glyph>
<glyph name="P" format="2">
  <advance width="973.7663551401868"/>
  <unicode hex="0050"/>
  <anchor x="487.2455867082035" y="1200.4906542056074" name="above" identifier="above"/>
  <outline>
    <contour>
      <point x="106.48597717285156" y="0" type="line"/>
      <point x="217.51402282714844" y="0" type="line"/>
      <point x="217.51402282714844" y="391.4970016479492" type="line"/>
      <point x="533.6246719360352" y="391.4970016479492" type="line"/>
      <point x="776.0232861084452" y="391.4970016479492"/>
      <point x="897.56075" y="570.5121475509999"/>
      <point x="897.56075" y="735.43308" type="curve" smooth="yes"/>
      <point x="897.56075" y="900.3540124490002"/>
      <point x="776.0232860242166" y="1079.3691582526067"/>
      <point x="533.62467" y="1079.3691601571406" type="curve"/>
      <point x="106.48597717285156" y="1079.3691635131836" type="line"/>
    </contour>
    <contour>
      <point x="533.6246719360352" y="968.3411178588867" type="line"/>
      <point x="711.689540126478" y="968.3411178588867"/>
      <point x="786.53271" y="842.2908835817955"/>
      <point x="786.53271" y="735.43308" type="curve" smooth="yes"/>
      <point x="786.53271" y="628.5748366246575"/>
      <point x="711.6891670972324" y="502.5250290390129"/>
      <point x="533.62467" y="502.52503012159434" type="curve"/>
      <point x="217.51402282714844" y="502.52503204345703" type="line"/>
      <point x="217.51402282714844" y="968.3411178588867" type="line"/>
    </contour>
  </outline>
</glyph>
<glyph name="Q" format="2">
  <advance width="1246.4567291727572"/>
  <unicode hex="0051"/>
  <outline>
    <contour>
      <point x="628.21842" y="980.85866" type="curve"/>
      <point x="871.62158" y="980.85866"/>
      <point x="1069.23406" y="783.24618"/>
      <point x="1069.23406" y="539.84302" type="curve"/>
      <point x="1069.23406" y="429.9192366222"/>
      <point x="1028.9303231092917" y="329.3346160125068"/>
      <point x="962.3066329956055" y="252.07427215576172" type="curve"/>
      <point x="802.0287322998047" y="430.08091735839844" type="line"/>
      <point x="650.4155120849609" y="430.08091735839844" type="line"/>
      <point x="878.4944152832031" y="176.7736358642578" type="line"/>
      <point x="807.3708649299397" y="127.62183749395075"/>
      <point x="721.13076104152" y="98.82739"/>
      <point x="628.21842" y="98.82738999999998" type="curve"/>
      <point x="384.81527" y="98.82739"/>
      <point x="187.20279" y="296.43987"/>
      <point x="187.20279" y="539.84302" type="curve"/>
      <point x="187.20279" y="783.24618"/>
      <point x="384.81527" y="980.85866"/>
    </contour>
    <contour>
      <point x="1189.2753295898438" y="0" type="line"/>
      <point x="1039.9745483398438" y="165.81531524658203" type="line"/>
      <point x="1130.574143935886" y="264.4428103531932"/>
      <point x="1185.8601" y="395.72715513056"/>
      <point x="1185.8600999999999" y="539.84302" type="curve"/>
      <point x="1185.8601" y="846.20136"/>
      <point x="936.02661" y="1094.57494"/>
      <point x="628.21842" y="1094.57494" type="curve"/>
      <point x="320.41024" y="1094.57494"/>
      <point x="70.57674" y="846.20136"/>
      <point x="70.57674" y="539.84302" type="curve"/>
      <point x="70.57674" y="233.48468"/>
      <point x="320.41024" y="-14.88889"/>
      <point x="628.21842" y="-14.88889" type="curve"/>
      <point x="750.59156744097" y="-14.88889"/>
      <point x="863.8014460471139" y="24.368127170860657"/>
      <point x="955.7920074462891" y="90.92596435546875" type="curve"/>
      <point x="1037.662109375" y="0" type="line"/>
    </contour>
  </outline>
</glyph>
<glyph name="R" format="2">
  <advance width="979.9106731283866"/>
  <unicode hex="0052"/>
  <outline>
    <contour>
      <point x="106.31775665283203" y="0" type="line"/>
      <point x="217.34579467773438" y="0" type="line"/>
      <point x="217.34579467773438" y="389.319091796875" type="line"/>
      <point x="524.9859161376953" y="389.319091796875" type="line"/>
      <point x="807.128547668457" y="0" type="line"/>
      <point x="944.2471237182617" y="0" type="line"/>
      <point x="651.7632904052734" y="403.5885696411133" type="line"/>
      <point x="794.462084786767" y="446.005460497171"/>
      <point x="898.6542056074766" y="578.2608287584253"/>
      <point x="898.6542056074766" y="734.6595460614153" type="curve" smooth="yes"/>
      <point x="898.6542056074766" y="925.2581296037383"/>
      <point x="743.9123352112149" y="1079.9999999999998"/>
      <point x="553.3137516688918" y="1079.9999999999998" type="curve"/>
      <point x="106.31775665283203" y="1080" type="line"/>
    </contour>
    <contour>
      <point x="553.3137512207031" y="968.9719619750977" type="line"/>
      <point x="682.6342937383176" y="968.9719626168223"/>
      <point x="787.626168224299" y="863.9800881308411"/>
      <point x="787.626168224299" y="734.6595460614152" type="curve" smooth="yes"/>
      <point x="787.626168224299" y="605.3390039919893"/>
      <point x="682.6342937383176" y="500.34712950600795"/>
      <point x="553.3137516688918" y="500.34712950600795" type="curve"/>
      <point x="217.34579467773438" y="500.34712982177734" type="line"/>
      <point x="217.34579467773438" y="968.9719619750977" type="line"/>
    </contour>
  </outline>
</glyph>
<glyph name="S" format="2">
  <advance width="969.6448598130839"/>
  <unicode hex="0053"/>
  <outline>
    <contour>
      <point x="65.94392395019531" y="293.28504943847656" type="line"/>
      <point x="65.94392523364485" y="123.1378989978505"/>
      <point x="253.63709162242984" y="-15.0"/>
      <point x="484.8224299065419" y="-15.0" type="curve" smooth="yes"/>
      <point x="716.0077681906541" y="-15.0"/>
      <point x="903.700934579439" y="123.13789899785036"/>
      <point x="903.700934579439" y="293.2850467289719" type="curve"/>
      <point x="903.700934579439" y="441.2701881738194"/>
      <point x="761.697731911408" y="564.9112667899602"/>
      <point x="572.6274898921217" y="594.7728667927679" type="curve"/>
      <point x="420.94276428222656" y="618.7298278808594" type="line"/>
      <point x="300.0082772354299" y="637.8301231568026"/>
      <point x="210.05607476635515" y="711.4597913715229"/>
      <point x="210.05607562198816" y="798.8271062262704" type="curve"/>
      <point x="210.0560747663551" y="901.0113318103738"/>
      <point x="333.1747515140187" y="983.9719626168223"/>
      <point x="484.82242990654197" y="983.9719626168223" type="curve" smooth="yes"/>
      <point x="636.4701082990655" y="983.9719626168223"/>
      <point x="759.5887850467288" y="901.0113318103738"/>
      <point x="759.5887850467288" y="798.8271028037382" type="curve"/>
      <point x="873.4205627441406" y="798.8271026611328" type="line"/>
      <point x="873.4205607476636" y="962.2893732832708"/>
      <point x="699.2955750616823" y="1094.9999999999998"/>
      <point x="484.82242990654197" y="1094.9999999999998" type="curve" smooth="yes"/>
      <point x="270.34928475140185" y="1094.9999999999998"/>
      <point x="96.22429906542055" y="962.2893732832708"/>
      <point x="96.22429906542055" y="798.8271028037382" type="curve"/>
      <point x="96.22429906542055" y="655.8832703638784"/>
      <point x="229.40322802925837" y="536.6088611553313"/>
      <point x="406.22945995865575" y="508.7341157431914" type="curve"/>
      <point x="558.2454376220703" y="484.7704391479492" type="line"/>
      <point x="691.2366361296904" y="463.8058130263607"/>
      <point x="789.8691588785045" y="385.78818685071616"/>
      <point x="789.8691580228715" y="293.28504672897196" type="curve"/>
      <point x="789.8691588785045" y="184.41594047074759"/>
      <point x="653.1823014280374" y="96.02803738317753"/>
      <point x="484.82242990654197" y="96.02803738317756" type="curve" smooth="yes"/>
      <point x="316.46255838504663" y="96.02803738317759"/>
      <point x="179.7757009345794" y="184.4159404707477"/>
      <point x="179.7757009345794" y="293.285046728972" type="curve"/>
    </contour>
  </outline>
</glyph>
<glyph name="T" format="2">
  <advance width="959.8878504672895"/>
  <unicode hex="0054"/>
  <anchor x="479.9439252336448" y="1200.4906542056074" name="above" identifier="above"/>
  <anchor x="479.9439252336448" y="-121.12149532710279" name="below" identifier="below"/>
  <anchor x="479.9439252336448" y="0" name="cedilla" identifier="cedilla"/>
  <anchor x="479.9439252336448" y="539.6845794392523" name="stroke" identifier="stroke"/>
  <outline>
    <contour>
      <point x="424.4299087524414" y="0" type="line"/>
      <point x="535.4579391479492" y="0" type="line"/>
      <point x="535.4579391479492" y="968.3411178588867" type="line"/>
      <point x="898.8224334716797" y="968.3411178588867" type="line"/>
      <point x="898.8224334716797" y="1079.3691635131836" type="line"/>
      <point x="61.06542205810547" y="1079.3691635131836" type="line"/>
      <point x="61.06542205810547" y="968.3411178588867" type="line"/>
      <point x="424.4299087524414" y="968.3411178588867" type="line"/>
    </contour>
  </outline>
</glyph>
<glyph name="V" format="2">
  <advance width="1041.2663551400885"/>
  <unicode hex="0056"/>
  <anchor x="520.6331775700934" y="1200.4906542056074" name="above" identifier="above"/>
  <anchor x="520.6331775700934" y="-121.12149532710279" name="below" identifier="below"/>
  <outline>
    <contour>
      <point x="460.68396759033203" y="0" type="line"/>
      <point x="580.5823822021484" y="0" type="line"/>
      <point x="1020.5747680664062" y="1079.3691635131836" type="line"/>
      <point x="900.6763534545898" y="1079.3691635131836" type="line"/>
      <point x="520.6331787109375" y="147.0646514892578" type="line"/>
      <point x="140.58999633789062" y="1079.3691635131836" type="line"/>
      <point x="20.69158935546875" y="1079.3691635131836" type="line"/>
    </contour>
  </outline>
</glyph>
<glyph name="W" format="2">
  <advance width="1489.1635514018565"/>
  <unicode hex="0057"/>
  <anchor x="744.5817757009345" y="1200.4906542056074" name="above" identifier="above"/>
  <anchor x="744.5817757009345" y="-121.12149532710279" name="below" identifier="below"/>
  <outline>
    <contour>
      <point x="356.1317825317383" y="0" type="line"/>
      <point x="472.2448425292969" y="0" type="line"/>
      <point x="744.5817794799805" y="889.7031173706055" type="line"/>
      <point x="1016.9187088012695" y="0" type="line"/>
      <point x="1133.0317687988281" y="0" type="line"/>
      <point x="1463.4252319335938" y="1079.3691635131836" type="line"/>
      <point x="1347.3121795654297" y="1079.3691635131836" type="line"/>
      <point x="1074.975242614746" y="189.6660614013672" type="line"/>
      <point x="802.638298034668" y="1079.3691635131836" type="line"/>
      <point x="686.5252532958984" y="1079.3691635131836" type="line"/>
      <point x="414.18831634521484" y="189.6660614013672" type="line"/>
      <point x="141.85137176513672" y="1079.3691635131836" type="line"/>
      <point x="25.738319396972656" y="1079.3691635131836" type="line"/>
    </contour>
  </outline>
</glyph>
<glyph name="X" format="2">
  <advance width="1037.4906976744187"/>
  <unicode hex="0058"/>
  <anchor x="518.7453488372093" y="1200.2441860465117" name="above" identifier="above"/>
  <outline>
    <contour>
      <point x="25.36743927001953" y="0" type="line"/>
      <point x="170.48681640625" y="0" type="line"/>
      <point x="518.7453536987305" y="454.2123489379883" type="line"/>
      <point x="867.0038833618164" y="0" type="line"/>
      <point x="1012.1232604980469" y="0" type="line"/>
      <point x="591.5334625244141" y="543.8058090209961" type="line"/>
      <point x="1005.5186004638672" y="1079.686050415039" type="line"/>
      <point x="860.6402130126953" y="1079.686050415039" type="line"/>
      <point x="518.7453536987305" y="634.777229309082" type="line"/>
      <point x="176.85047912597656" y="1079.686050415039" type="line"/>
      <point x="31.972091674804688" y="1079.686050415039" type="line"/>
      <point x="445.9572296142578" y="543.8058090209961" type="line"/>
    </contour>
  </outline>
</glyph>
<glyph name="Y" format="2">
  <advance width="1038.3279069767443"/>
  <unicode hex="0059"/>
  <anchor x="519.1639534883722" y="1200.2441860465117" name="above" identifier="above"/>
  <anchor x="519.1639534883722" y="-120.55813953488374" name="below" identifier="below"/>
  <outline>
    <contour>
      <point x="461.3965072631836" y="0" type="line"/>
      <point x="576.931396484375" y="0" type="line"/>
      <point x="576.931396484375" y="411.93688201904297" type="line"/>
      <point x="1007.9372100830078" y="1079.686050415039" type="line"/>
      <point x="871.5840377807617" y="1079.686050415039" type="line"/>
      <point x="519.1639633178711" y="533.2271194458008" type="line"/>
      <point x="519.1639556884766" y="411.93688201904297" type="line"/>
      <point x="519.163948059082" y="533.2271194458008" type="line"/>
      <point x="166.7438735961914" y="1079.686050415039" type="line"/>
      <point x="30.390701293945312" y="1079.686050415039" type="line"/>
      <point x="461.3965072631836" y="411.93688201904297" type="line"/>
    </contour>
  </outline>
</glyph>
<glyph name="Z" format="2">
  <advance width="929.2710280374471"/>
  <unicode hex="005A"/>
  <outline>
    <contour>
      <point x="76.0373764038086" y="0" type="line"/>
      <point x="853.233642578125" y="0" type="line"/>
      <point x="853.233642578125" y="111.02803802490234" type="line"/>
      <point x="214.45958709716797" y="111.02803802490234" type="line"/>
      <point x="853.233642578125" y="968.9719619750977" type="line"/>
      <point x="853.233642578125" y="1080" type="line"/>
      <point x="76.0373764038086" y="1080" type="line"/>
      <point x="76.0373764038086" y="968.9719619750977" type="line"/>
      <point x="714.8114395141602" y="968.9719619750977" type="line"/>
      <point x="76.0373764038086" y="111.02803802490234" type="line"/>
    </contour>
  </outline>
</glyph>
<glyph name="bracketleft" format="2">
  <advance width="505.3457943925232"/>
  <unicode hex="005B"/>
  <outline>
    <contour>
      <point x="166.87850189208984" y="-111.02803802490234" type="line"/>
      <point x="459.5887908935547" y="-111.02803802490234" type="line"/>
      <point x="459.5887908935547" y="0" type="line"/>
      <point x="277.9065399169922" y="0" type="line"/>
      <point x="277.9065399169922" y="1140.5607528686523" type="line"/>
      <point x="459.5887908935547" y="1140.5607528686523" type="line"/>
      <point x="459.5887908935547" y="1251.5887908935547" type="line"/>
      <point x="166.87850189208984" y="1251.5887908935547" type="line"/>
    </contour>
  </outline>
</glyph>
<glyph name="backslash" format="2">
  <advance width="762.829129405259"/>
  <unicode hex="005C"/>
  <outline>
    <contour>
      <point x="656.34315" y="-60.56075" type="line"/>
      <point x="179.21899" y="1250.3271" type="line"/>
      <point x="61.06542" y="1250.3271" type="line"/>
      <point x="538.18958" y="-60.56075" type="line"/>
    </contour>
  </outline>
</glyph>
<glyph name="bracketright" format="2">
  <advance width="505.6822429906541"/>
  <unicode hex="005D"/>
  <outline>
    <contour>
      <point x="338.63551330566406" y="-55.51402282714844" type="line"/>
      <point x="338.63551330566406" y="1194.8130798339844" type="line"/>
      <point x="45.92523193359375" y="1194.8130798339844" type="line"/>
      <point x="45.92523193359375" y="1083.7850494384766" type="line"/>
      <point x="227.60748291015625" y="1083.7850494384766" type="line"/>
      <point x="227.60748291015625" y="55.51402282714844" type="line"/>
      <point x="45.92523193359375" y="55.51402282714844" type="line"/>
      <point x="45.92523193359375" y="-55.51402282714844" type="line"/>
    </contour>
  </outline>
</glyph>
<glyph name="asciicircum" format="2">
  <advance width="754.5765636233539"/>
  <unicode hex="005E"/>
  <outline>
    <contour>
      <point x="65.94392395019531" y="605.6074752807617" type="line"/>
      <point x="191.30055236816406" y="605.6074752807617" type="line"/>
      <point x="377.2882843017578" y="960.4254837036133" type="line"/>
      <point x="563.2760162353516" y="605.6074752807617" type="line"/>
      <point x="688.6326370239258" y="605.6074752807617" type="line"/>
      <point x="439.96659088134766" y="1080" type="line"/>
      <point x="314.60997009277344" y="1080" type="line"/>
    </contour>
  </outline>
</glyph>
<glyph name="power" format="2">
  <advance width="756.6955277280861"/>
  <unicode hex="005E"/>
  <outline>
    <contour>
      <point x="65.5534896850586" y="583.7844390869141" type="line"/>
      <point x="190.87969207763672" y="583.7844390869141" type="line"/>
      <point x="378.34776306152344" y="949.2552719116211" type="line"/>
      <point x="565.8158416748047" y="583.7844390869141" type="line"/>
      <point x="691.1420364379883" y="583.7844390869141" type="line"/>
      <point x="433.41593170166016" y="1079.686050415039" type="line"/>
      <point x="323.27960205078125" y="1079.686050415039" type="line"/>
    </contour>
  </outline>
</glyph>
<glyph name="underscore" format="2">
  <advance width="777.196261682243"/>
  <unicode hex="005F"/>
  <outline>
    <contour>
      <point x="0.0" y="-156.2803738317757" type="line"/>
      <point x="777.196261682243" y="-156.2803738317757" type="line"/>
      <point x="777.196261682243" y="-65.60747663551402" type="line"/>
      <point x="0.0" y="-65.60747663551402" type="line"/>
    </contour>
  </outline>
</glyph>
<glyph name="grave" format="2">
  <advance width="522.1573604980645"/>
  <unicode hex="0060"/>
  <outline>
    <contour>
      <point x="416.41783" y="1200.24419" type="line"/>
      <point x="237.8732" y="1479.87209" type="line"/>
      <point x="105.73953" y="1479.87209" type="line"/>
      <point x="290.37988" y="1200.24419" type="line"/>
    </contour>
  </outline>
</glyph>
<glyph name="b" format="2">
  <advance width="984.5046728971961"/>
  <unicode hex="0062"/>
  <outline>
    <contour>
      <point x="106.31775665283203" y="0" type="line"/>
      <point x="217.34578704833984" y="0" type="line"/>
      <point x="217.34578704833984" y="110.70227813720703" type="line"/>
      <point x="290.89995486780913" y="33.28774051396556"/>
      <point x="394.81331621489994" y="-15.0"/>
      <point x="509.91589" y="-14.999999999999986" type="curve" smooth="yes"/>
      <point x="732.66776" y="-15.0"/>
      <point x="913.51402" y="165.84626"/>
      <point x="913.51402" y="388.59813" type="curve" smooth="yes"/>
      <point x="913.51402" y="611.35"/>
      <point x="732.66776" y="792.19626"/>
      <point x="509.91589" y="792.19626" type="curve" smooth="yes"/>
      <point x="394.8133162149" y="792.19626"/>
      <point x="290.8999548678092" y="743.9085194860345"/>
      <point x="217.34578704833984" y="666.4940032958984" type="curve"/>
      <point x="217.34578704833984" y="1140.5607528686523" type="line"/>
      <point x="106.31775665283203" y="1140.5607528686523" type="line"/>
    </contour>
    <contour>
      <point x="802.48598" y="388.59813" type="curve" smooth="yes"/>
      <point x="802.48598" y="227.1243"/>
      <point x="671.38972" y="96.02804"/>
      <point x="509.91589" y="96.02804" type="curve" smooth="yes"/>
      <point x="348.44206" y="96.02804"/>
      <point x="217.34579" y="227.1243"/>
      <point x="217.34579" y="388.59813" type="curve" smooth="yes"/>
      <point x="217.34579" y="550.07196"/>
      <point x="348.44206" y="681.16822"/>
      <point x="509.91589" y="681.16822" type="curve" smooth="yes"/>
      <point x="671.38972" y="681.16822"/>
      <point x="802.48598" y="550.07196"/>
    </contour>
  </outline>
</glyph>
<glyph name="c" format="2">
  <advance width="941.8064181604117"/>
  <unicode hex="0063"/>
  <anchor x="486.21709501557626" y="929.0712616822428" name="above" identifier="above"/>
  <anchor x="486.21709501557626" y="-121.12149532710279" name="below" identifier="below"/>
  <anchor x="489.9115394600207" y="0" name="cedilla" identifier="cedilla"/>
  <outline>
    <contour>
      <point x="489.91154" y="95.09886" type="curve" smooth="yes"/>
      <point x="319.43822" y="95.09886"/>
      <point x="181.03551" y="233.50157"/>
      <point x="181.03551" y="403.97488" type="curve" smooth="yes"/>
      <point x="181.03551" y="574.4482"/>
      <point x="319.43822" y="712.85091"/>
      <point x="489.91154" y="712.85091" type="curve" smooth="yes"/>
      <point x="605.38113" y="712.85091"/>
      <point x="706.13676" y="649.35189"/>
      <point x="759.13402" y="555.37675" type="curve"/>
      <point x="880.40455" y="555.37675" type="line"/>
      <point x="819.6575" y="711.76532"/>
      <point x="667.64058" y="822.72754"/>
      <point x="489.91154" y="822.72754" type="curve" smooth="yes"/>
      <point x="258.79566" y="822.72754"/>
      <point x="71.15888" y="635.09077"/>
      <point x="71.15888" y="403.97488" type="curve" smooth="yes"/>
      <point x="71.15888" y="172.859"/>
      <point x="258.79566" y="-14.77778"/>
      <point x="489.91154" y="-14.77778" type="curve" smooth="yes"/>
      <point x="667.63988" y="-14.77778"/>
      <point x="819.65632" y="96.18358"/>
      <point x="880.40399" y="252.57301" type="curve"/>
      <point x="759.13697" y="252.57301" type="line"/>
      <point x="706.14063" y="158.60031"/>
      <point x="605.38335" y="95.09886"/>
    </contour>
  </outline>
</glyph>
<glyph name="d" format="2">
  <advance width="1015.1501817237797"/>
  <unicode hex="0064"/>
  <anchor x="489.9115394600207" y="929.0712616822428" name="above" identifier="above"/>
  <anchor x="493.6059839044652" y="-121.12149532710279" name="below" identifier="below"/>
  <anchor x="853.7258826583592" y="973.6244158878503" name="stroke" identifier="stroke"/>
  <anchor x="1029.7856957424713" y="1139.2990654205607" name="caron" identifier="caron"/>
  <outline>
    <contour>
      <point x="798.7875595092773" y="0" type="line"/>
      <point x="908.6641998291016" y="0" type="line"/>
      <point x="908.6641998291016" y="1139.299072265625" type="line"/>
      <point x="798.7875595092773" y="1139.299072265625" type="line"/>
      <point x="798.7875595092773" y="686.5996551513672" type="line"/>
      <point x="722.2049680697206" y="770.2476615927769"/>
      <point x="612.13855983328" y="822.72754"/>
      <point x="489.91153999999995" y="822.7275400000001" type="curve" smooth="yes"/>
      <point x="258.79566" y="822.72754"/>
      <point x="71.15888" y="635.09077"/>
      <point x="71.15888" y="403.97488" type="curve" smooth="yes"/>
      <point x="71.15888" y="172.859"/>
      <point x="258.79566" y="-14.77778"/>
      <point x="489.91154" y="-14.77778" type="curve" smooth="yes"/>
      <point x="612.1385598332799" y="-14.77778"/>
      <point x="722.2049680697205" y="37.70210120410972"/>
      <point x="798.7875595092773" y="121.35021209716797" type="curve"/>
    </contour>
    <contour>
      <point x="798.78756" y="403.97488" type="curve" smooth="yes"/>
      <point x="798.78756" y="233.50157"/>
      <point x="660.38486" y="95.09886"/>
      <point x="489.91154" y="95.09886" type="curve" smooth="yes"/>
      <point x="319.43822" y="95.09886"/>
      <point x="181.03551" y="233.50157"/>
      <point x="181.03551" y="403.97488" type="curve" smooth="yes"/>
      <point x="181.03551" y="574.4482"/>
      <point x="319.43822" y="712.85091"/>
      <point x="489.91154" y="712.85091" type="curve" smooth="yes"/>
      <point x="660.38486" y="712.85091"/>
      <point x="798.78756" y="574.4482"/>
    </contour>
  </outline>
</glyph>
<glyph name="f" format="2">
  <advance width="541.2552120776419"/>
  <unicode hex="0066"/>
  <outline>
    <contour>
      <point x="158.929443359375" y="0" type="line"/>
      <point x="269.95748138427734" y="0" type="line"/>
      <point x="269.95748138427734" y="666.1682205200195" type="line"/>
      <point x="480.35801696777344" y="666.1682205200195" type="line"/>
      <point x="480.35801696777344" y="777.1962585449219" type="line"/>
      <point x="269.95748138427734" y="777.1962585449219" type="line"/>
      <point x="269.95748138427734" y="921.8691558837891" type="line"/>
      <point x="269.95748177056583" y="981.2902900037383"/>
      <point x="318.19990204720136" y="1029.5327102803737"/>
      <point x="377.621033172435" y="1029.5327102803737" type="curve"/>
      <point x="480.35801696777344" y="1029.5327072143555" type="line"/>
      <point x="480.35801696777344" y="1140.5607452392578" type="line"/>
      <point x="377.62103271484375" y="1140.5607452392578" type="line"/>
      <point x="256.92186057430416" y="1140.5607476635512"/>
      <point x="158.92944438738826" y="1042.5683314766354"/>
      <point x="158.92944438738826" y="921.8691588785047" type="curve"/>
      <point x="158.929443359375" y="777.1962585449219" type="line"/>
      <point x="50.803741455078125" y="777.1962585449219" type="line"/>
      <point x="50.803741455078125" y="666.1682205200195" type="line"/>
      <point x="158.929443359375" y="666.1682205200195" type="line"/>
    </contour>
  </outline>
</glyph>
<glyph name="g" format="2">
  <advance width="984.5046728971961"/>
  <unicode hex="0067"/>
  <outline>
    <contour>
      <point x="81.08411407470703" y="-35.32710266113281" type="line"/>
      <point x="81.0841121495327" y="-255.29360773738313"/>
      <point x="259.66900908504664" y="-433.8785046728971"/>
      <point x="479.6355140186915" y="-433.8785046728971" type="curve" smooth="yes"/>
      <point x="699.6020189523363" y="-433.8785046728971"/>
      <point x="878.1869158878503" y="-255.29360773738327"/>
      <point x="878.1869158878503" y="-35.32710280373841" type="curve"/>
      <point x="878.1869125366211" y="777.1962585449219" type="line"/>
      <point x="767.1588821411133" y="777.1962585449219" type="line"/>
      <point x="767.1588821411133" y="666.4939880371094" type="line"/>
      <point x="693.6047206308227" y="743.9085210652164"/>
      <point x="589.6913590670134" y="792.1962616822427"/>
      <point x="474.58878504672884" y="792.1962616822427" type="curve" smooth="yes"/>
      <point x="251.83691459158877" y="792.1962616822428"/>
      <point x="70.99065420560747" y="611.3500012962616"/>
      <point x="70.99065420560747" y="388.5981308411215" type="curve" smooth="yes"/>
      <point x="70.99065420560747" y="165.84626038598134"/>
      <point x="251.83691459158865" y="-14.999999999999973"/>
      <point x="474.58878504672884" y="-14.999999999999973" type="curve" smooth="yes"/>
      <point x="589.6913590670134" y="-15.000000000000004"/>
      <point x="693.6047206308227" y="33.28774061702636"/>
      <point x="767.1588821411133" y="110.7022476196289" type="curve"/>
      <point x="767.1588821411133" y="-35.32710266113281" type="line"/>
      <point x="767.1588785046728" y="-194.01556626448604"/>
      <point x="638.3239774794391" y="-322.8504672897196"/>
      <point x="479.6355140186915" y="-322.8504672897196" type="curve" smooth="yes"/>
      <point x="320.94705055794384" y="-322.8504672897196"/>
      <point x="192.11214953271025" y="-194.01556626448595"/>
      <point x="192.11214953271025" y="-35.327102803738306" type="curve"/>
    </contour>
    <contour>
      <point x="767.1588785046728" y="388.5981308411215" type="curve" smooth="yes"/>
      <point x="767.1588785046728" y="227.12430185887843"/>
      <point x="636.0626140289719" y="96.02803738317753"/>
      <point x="474.58878504672884" y="96.02803738317759" type="curve" smooth="yes"/>
      <point x="313.1149560644859" y="96.02803738317759"/>
      <point x="182.01869158878503" y="227.1243018588785"/>
      <point x="182.01869158878503" y="388.5981308411215" type="curve" smooth="yes"/>
      <point x="182.01869158878503" y="550.0719598233645"/>
      <point x="313.11495606448597" y="681.1682242990653"/>
      <point x="474.5887850467289" y="681.1682242990653" type="curve" smooth="yes"/>
      <point x="636.0626140289719" y="681.1682242990653"/>
      <point x="767.1588785046728" y="550.0719598233644"/>
    </contour>
  </outline>
</glyph>
<glyph name="h" format="2">
  <advance width="911.9439252336447"/>
  <unicode hex="0068"/>
  <anchor x="463.54205607476626" y="1260.4205607476633" name="above" identifier="above"/>
  <anchor x="463.54205607476626" y="-121.12149532710279" name="below" identifier="below"/>
  <anchor x="161.42429906542054" y="1260.4205607476633" name="stem" identifier="stem"/>
  <anchor x="161.42429906542054" y="0" name="cedilla" identifier="cedilla"/>
  <anchor x="161.42429906542054" y="973.6244158878503" name="stroke" identifier="stroke"/>
  <outline>
    <contour>
      <point x="106.48597717285156" y="0" type="line"/>
      <point x="216.36261749267578" y="0" type="line"/>
      <point x="216.36261749267578" y="445.67147064208984" type="line"/>
      <point x="216.36261749267578" y="632.1072358929188"/>
      <point x="349.33274363747137" y="712.85091"/>
      <point x="463.54206" y="712.85091" type="curve" smooth="yes"/>
      <point x="577.7513840408586" y="712.85091"/>
      <point x="710.721501221617" y="632.1072205504958"/>
      <point x="710.7214998532025" y="445.67147" type="curve"/>
      <point x="710.7214965820312" y="0" type="line"/>
      <point x="820.5981292724609" y="0" type="line"/>
      <point x="820.5981292724609" y="445.67147064208984" type="line"/>
      <point x="820.5981292724609" y="695.6802060113934"/>
      <point x="635.305686612961" y="822.72754"/>
      <point x="463.54206" y="822.72754" type="curve" smooth="yes"/>
      <point x="367.6498295801699" y="822.72754"/>
      <point x="280.53586917643156" y="784.8443653849358"/>
      <point x="216.36261749267578" y="723.227653503418" type="curve"/>
      <point x="216.36261749267578" y="1139.299072265625" type="line"/>
      <point x="106.48597717285156" y="1139.299072265625" type="line"/>
    </contour>
  </outline>
</glyph>
<glyph name="i" format="2">
  <advance width="327.0139534883721"/>
  <unicode hex="0069"/>
  <anchor x="163.50697674418606" y="-120.55813953488374" name="below" identifier="below"/>
  <anchor x="163.50697674418606" y="426.7831360741972" name="stroke" identifier="stroke"/>
  <anchor x="221.27441860465117" y="0" name="ogonek" identifier="ogonek"/>
  <anchor x="163.50697674418606" y="1182.7816445182725" name="above" identifier="above"/>
  <outline>
    <contour>
      <point x="256.84385" y="1049.25872" type="curve" smooth="yes"/>
      <point x="256.84385" y="1100.77275"/>
      <point x="215.021" y="1142.5956"/>
      <point x="163.50698" y="1142.5956" type="curve" smooth="yes"/>
      <point x="111.99295" y="1142.5956"/>
      <point x="70.1701" y="1100.77275"/>
      <point x="70.1701" y="1049.25872" type="curve" smooth="yes"/>
      <point x="70.1701" y="997.7447"/>
      <point x="111.99295" y="955.92184"/>
      <point x="163.50698" y="955.92184" type="curve" smooth="yes"/>
      <point x="215.021" y="955.92184"/>
      <point x="256.84385" y="997.7447"/>
    </contour>
    <contour>
      <point x="105.73953" y="0.0" type="line"/>
      <point x="221.27442" y="0.0" type="line"/>
      <point x="221.27442" y="808.97965" type="line"/>
      <point x="105.73953" y="808.97965" type="line"/>
    </contour>
  </outline>
</glyph>
<glyph name="j" format="2">
  <advance width="322.4619492656875"/>
  <unicode hex="006A"/>
  <outline>
    <contour>
      <point x="251.27904" y="996.36849" type="curve" smooth="yes"/>
      <point x="251.27904" y="1046.39896"/>
      <point x="210.66064" y="1087.01736"/>
      <point x="160.63017" y="1087.01736" type="curve" smooth="yes"/>
      <point x="110.5997" y="1087.01736"/>
      <point x="69.98131" y="1046.39896"/>
      <point x="69.98131" y="996.36849" type="curve" smooth="yes"/>
      <point x="69.98131" y="946.33802"/>
      <point x="110.5997" y="905.71963"/>
      <point x="160.63017" y="905.71963" type="curve" smooth="yes"/>
      <point x="210.66064" y="905.71963"/>
      <point x="251.27904" y="946.33802"/>
    </contour>
    <contour>
      <point x="-122.70761108398438" y="-418.87850189208984" type="line"/>
      <point x="-76.91322326660156" y="-418.87850189208984" type="line"/>
      <point x="205.13664808561697" y="-418.87850189208984"/>
      <point x="216.14419011445705" y="-217.8943098586519"/>
      <point x="216.14418991207992" y="-125.82109" type="curve"/>
      <point x="216.1441879272461" y="777.1962585449219" type="line"/>
      <point x="105.11614990234375" y="777.1962585449219" type="line"/>
      <point x="105.11614990234375" y="-129.61400307897057" type="line"/>
      <point x="105.11614990234375" y="-196.27898370703025"/>
      <point x="98.45046442618852" y="-307.85046763874004"/>
      <point x="-76.91322" y="-307.8504706977528" type="curve"/>
      <point x="-122.70761108398438" y="-307.85047149658203" type="line"/>
    </contour>
  </outline>
</glyph>
<glyph name="k" format="2">
  <advance width="810.1682242990137"/>
  <unicode hex="006B"/>
  <anchor x="365.86381842456603" y="1261.682242990654" name="above" identifier="above"/>
  <anchor x="365.86381842456603" y="-121.12149532710279" name="below" identifier="below"/>
  <anchor x="161.17383177570093" y="1261.682242990654" name="stem" identifier="stem"/>
  <anchor x="439.4719626168224" y="-121.12149532710279" name="macronbelow" identifier="macronbelow"/>
  <outline>
    <contour>
      <point x="106.31775665283203" y="0" type="line"/>
      <point x="216.0299072265625" y="0" type="line"/>
      <point x="216.0299072265625" y="335.9015579223633" type="line"/>
      <point x="616.8237533569336" y="0" type="line"/>
      <point x="787.6261672973633" y="0" type="line"/>
      <point x="322.1488838195801" y="390.1121520996094" type="line"/>
      <point x="784.0131530761719" y="777.1962585449219" type="line"/>
      <point x="613.2107315063477" y="777.1962585449219" type="line"/>
      <point x="216.0299072265625" y="444.3227310180664" type="line"/>
      <point x="216.0299072265625" y="1140.5607528686523" type="line"/>
      <point x="106.31775665283203" y="1140.5607528686523" type="line"/>
    </contour>
  </outline>
</glyph>
<glyph name="l" format="2">
  <advance width="324.0"/>
  <unicode hex="006C"/>
  <anchor x="161.99999999999997" y="1260.4205607476633" name="above" identifier="above"/>
  <anchor x="161.99999999999997" y="-121.12149532710279" name="below" identifier="below"/>
  <anchor x="338.63551401869154" y="1139.2990654205607" name="caron" identifier="caron"/>
  <anchor x="161.99999999999997" y="569.6495327102804" name="stroke" identifier="stroke"/>
  <anchor x="324.0" y="569.6495327102804" name="dotmiddle" identifier="dotmiddle"/>
  <outline>
    <contour>
      <point x="106.48598" y="0.0" type="line"/>
      <point x="217.51402" y="0.0" type="line"/>
      <point x="217.51402" y="1139.29907" type="line"/>
      <point x="106.48598" y="1139.29907" type="line"/>
    </contour>
  </outline>
</glyph>
<glyph name="m" format="2">
  <advance width="1393.5700934579438"/>
  <unicode hex="006D"/>
  <outline>
    <contour>
      <point x="106.31775665283203" y="0" type="line"/>
      <point x="217.34578704833984" y="0" type="line"/>
      <point x="217.34578704833984" y="425.4205627441406" type="line"/>
      <point x="217.34578704833984" y="643.3167317668485"/>
      <point x="357.3254864923148" y="681.16822"/>
      <point x="433.09346" y="681.16822" type="curve" smooth="yes"/>
      <point x="508.8614335076852" y="681.16822"/>
      <point x="648.8411208183908" y="643.3167290227079"/>
      <point x="648.8411198159847" y="425.42056" type="curve"/>
      <point x="648.8411178588867" y="0" type="line"/>
      <point x="759.8691635131836" y="0" type="line"/>
      <point x="759.8691635131836" y="425.4205627441406" type="line"/>
      <point x="759.8691635131836" y="643.3167317668485"/>
      <point x="899.8488464923148" y="681.16822"/>
      <point x="975.61682" y="681.16822" type="curve" smooth="yes"/>
      <point x="1051.3847935076851" y="681.16822"/>
      <point x="1191.364491263513" y="643.3167290227079"/>
      <point x="1191.3644897158988" y="425.42056" type="curve"/>
      <point x="1191.364486694336" y="0" type="line"/>
      <point x="1302.3925170898438" y="0" type="line"/>
      <point x="1302.3925170898438" y="425.4205627441406" type="line"/>
      <point x="1302.3925170898438" y="709.8709812628911"/>
      <point x="1107.3058014766812" y="792.19626"/>
      <point x="975.61682" y="792.19626" type="curve" smooth="yes"/>
      <point x="862.6895129218399" y="792.19626"/>
      <point x="763.0645091874294" y="734.7893558713736"/>
      <point x="704.3577117919922" y="647.5734252929688" type="curve"/>
      <point x="645.6518168950824" y="734.7858718780457"/>
      <point x="546.02419377414" y="792.19626"/>
      <point x="433.09345999999994" y="792.1962600000002" type="curve" smooth="yes"/>
      <point x="350.44317613418" y="792.19626"/>
      <point x="274.91842931710704" y="761.4455688112738"/>
      <point x="217.34578704833984" y="710.7585296630859" type="curve"/>
      <point x="217.34578704833984" y="777.1962585449219" type="line"/>
      <point x="106.31775665283203" y="777.1962585449219" type="line"/>
    </contour>
  </outline>
</glyph>
<glyph name="n" format="2">
  <advance width="911.6074766355139"/>
  <unicode hex="006E"/>
  <outline>
    <contour>
      <point x="106.31775665283203" y="0" type="line"/>
      <point x="217.34578704833984" y="0" type="line"/>
      <point x="217.34578704833984" y="435.1401901245117" type="line"/>
      <point x="217.34579" y="570.92676"/>
      <point x="327.58726" y="681.16822"/>
      <point x="463.37383" y="681.16822" type="curve" smooth="yes"/>
      <point x="599.1604" y="681.16822"/>
      <point x="709.40187" y="570.92676"/>
      <point x="709.40187" y="435.14019" type="curve"/>
      <point x="709.4018707275391" y="0" type="line"/>
      <point x="820.4299087524414" y="0" type="line"/>
      <point x="820.4299087524414" y="435.1401901245117" type="line"/>
      <point x="820.42991" y="632.2048"/>
      <point x="660.43844" y="792.19626"/>
      <point x="463.37383" y="792.19626" type="curve" smooth="yes"/>
      <point x="368.05387520761" y="792.19626"/>
      <point x="281.4077296709153" y="754.7639024425711"/>
      <point x="217.34578704833984" y="693.8034973144531" type="curve"/>
      <point x="217.34578704833984" y="777.1962585449219" type="line"/>
      <point x="106.31775665283203" y="777.1962585449219" type="line"/>
    </contour>
  </outline>
</glyph>
<glyph name="o" format="2">
  <advance width="949.1775700934578"/>
  <unicode hex="006F"/>
  <anchor x="474.5887850467289" y="898.3177570093457" name="above" identifier="above"/>
  <anchor x="474.5887850467289" y="-121.12149532710279" name="below" identifier="below"/>
  <anchor x="474.5887850467289" y="0" name="ogonek" identifier="ogonek"/>
  <anchor x="474.5887850467289" y="388.5981308411215" name="stroke" identifier="stroke"/>
  <anchor x="474.5887850467289" y="792.1962616822428" name="horn" identifier="horn"/>
  <outline>
    <contour>
      <point x="878.18692" y="388.59813" type="curve" smooth="yes"/>
      <point x="878.18692" y="611.35"/>
      <point x="697.34066" y="792.19626"/>
      <point x="474.58879" y="792.19626" type="curve" smooth="yes"/>
      <point x="251.83691" y="792.19626"/>
      <point x="70.99065" y="611.35"/>
      <point x="70.99065" y="388.59813" type="curve" smooth="yes"/>
      <point x="70.99065" y="165.84626"/>
      <point x="251.83691" y="-15.0"/>
      <point x="474.58879" y="-15.0" type="curve" smooth="yes"/>
      <point x="697.34066" y="-15.0"/>
      <point x="878.18692" y="165.84626"/>
    </contour>
    <contour>
      <point x="768.47477" y="388.59813" type="curve" smooth="yes"/>
      <point x="768.47477" y="226.39804"/>
      <point x="636.78887" y="94.71215"/>
      <point x="474.58879" y="94.71215" type="curve" smooth="yes"/>
      <point x="312.3887" y="94.71215"/>
      <point x="180.7028" y="226.39804"/>
      <point x="180.7028" y="388.59813" type="curve" smooth="yes"/>
      <point x="180.7028" y="550.79822"/>
      <point x="312.3887" y="682.48411"/>
      <point x="474.58879" y="682.48411" type="curve" smooth="yes"/>
      <point x="636.78887" y="682.48411"/>
      <point x="768.47477" y="550.79822"/>
    </contour>
  </outline>
</glyph>
<glyph name="q" format="2">
  <advance width="1024.0522265288546"/>
  <unicode hex="0071"/>
  <outline>
    <contour>
      <point x="495.34257" y="95.5997" type="curve" smooth="yes"/>
      <point x="324.86147" y="95.5997"/>
      <point x="186.45245" y="234.00873"/>
      <point x="186.45245" y="404.48983" type="curve"/>
      <point x="186.45245" y="574.97092"/>
      <point x="324.86147" y="713.37995"/>
      <point x="495.34257" y="713.37995" type="curve" smooth="yes"/>
      <point x="665.82367" y="713.37995"/>
      <point x="804.23269" y="574.97092"/>
      <point x="804.23269" y="404.48983" type="curve"/>
      <point x="804.23269" y="234.00873"/>
      <point x="665.82367" y="95.5997"/>
    </contour>
    <contour>
      <point x="804.2326889038086" y="-328.8662796020508" type="line"/>
      <point x="918.3126907348633" y="-328.8662796020508" type="line"/>
      <point x="918.3126907348633" y="808.9796524047852" type="line"/>
      <point x="806.9262466430664" y="808.9796524047852" type="line"/>
      <point x="806.9262466430664" y="654.2376098632812" type="line"/>
      <point x="736.1406101501254" y="757.1462009034547"/>
      <point x="620.69378779682" y="823.86854"/>
      <point x="482.77264" y="823.8685400000002" type="curve" smooth="yes"/>
      <point x="251.31123" y="823.86854"/>
      <point x="70.57674" y="635.95124"/>
      <point x="70.57674" y="404.48983" type="curve"/>
      <point x="70.57674" y="173.02841"/>
      <point x="251.31123" y="-14.88889"/>
      <point x="482.77264" y="-14.88889" type="curve" smooth="yes"/>
      <point x="618.95829006966" y="-14.88889"/>
      <point x="733.231656728006" y="50.164844663756426"/>
      <point x="804.2326889038086" y="150.8788833618164" type="curve"/>
    </contour>
  </outline>
</glyph>
<glyph name="r" format="2">
  <advance width="593.6635514018691"/>
  <unicode hex="0072"/>
  <outline>
    <contour>
      <point x="106.31775665283203" y="0" type="line"/>
      <point x="217.34578704833984" y="0" type="line"/>
      <point x="217.34578704833984" y="353.64485931396484" type="line"/>
      <point x="217.34578704833987" y="652.5802753190482"/>
      <point x="435.03027414602263" y="666.1682195086393"/>
      <point x="529.86916" y="666.1682203584032" type="curve"/>
      <point x="547.9065399169922" y="666.1682205200195" type="line"/>
      <point x="547.9065399169922" y="777.1962585449219" type="line"/>
      <point x="529.8691635131836" y="777.1962585449219" type="line"/>
      <point x="450.6489010968943" y="777.1962585449219"/>
      <point x="328.7219486252668" y="775.93279166854"/>
      <point x="217.34578704833984" y="663.4253768920898" type="curve"/>
      <point x="217.34578704833984" y="777.1962585449219" type="line"/>
      <point x="106.31775665283203" y="777.1962585449219" type="line"/>
    </contour>
  </outline>
</glyph>
<glyph name="s" format="2">
  <advance width="863.663551401869"/>
  <unicode hex="0073"/>
  <outline>
    <contour>
      <point x="772.485981308411" y="571.0759345794391" type="line"/>
      <point x="772.485981308411" y="695.5914447983411"/>
      <point x="619.843948401869" y="796.6822429906541"/>
      <point x="431.8317757009345" y="796.6822429906541" type="curve" smooth="yes"/>
      <point x="243.81960299999997" y="796.6822429906541"/>
      <point x="91.17757009345793" y="695.5914447983412"/>
      <point x="91.17757009345793" y="571.0759345794391" type="curve"/>
      <point x="203.84579439252332" y="571.0759345794391" type="line"/>
      <point x="203.84579439252332" y="634.6151512569393"/>
      <point x="306.0028882673831" y="686.2009345794393"/>
      <point x="431.8317757009345" y="686.2009345794393" type="curve" smooth="yes"/>
      <point x="557.660663134486" y="686.2009345794393"/>
      <point x="659.8177570093457" y="634.6151512569393"/>
      <point x="659.8177570093457" y="571.0759345794391" type="curve"/>
    </contour>
    <contour>
      <point x="76.03738403320312" y="214.1950912475586" type="line"/>
      <point x="76.03738317757008" y="85.22299840464956"/>
      <point x="235.46350643551392" y="-19.485981308411187"/>
      <point x="431.8317757009345" y="-19.485981308411215" type="curve" smooth="yes"/>
      <point x="628.200044966355" y="-19.485981308411244"/>
      <point x="787.6261682242989" y="85.22299840464945"/>
      <point x="787.6261682242989" y="214.19509345794384" type="curve"/>
      <point x="787.6261682242989" y="327.91120835947913"/>
      <point x="663.6679406624729" y="422.6230963405063"/>
      <point x="499.7631764634747" y="443.60500300041974" type="curve"/>
      <point x="374.87672424316406" y="459.5920639038086" type="line"/>
      <point x="276.546013116692" y="472.1796555379541"/>
      <point x="203.84579439252332" y="517.4658006744821"/>
      <point x="203.84579439252332" y="571.075931156907" type="curve"/>
      <point x="91.17756652832031" y="571.0759353637695" type="line"/>
      <point x="91.17757009345793" y="461.1618601818671"/>
      <point x="210.13566659598882" y="369.62999474012594"/>
      <point x="367.3378814982476" y="349.5203786119122" type="curve"/>
      <point x="492.27610778808594" y="333.5380325317383" type="line"/>
      <point x="597.283703534107" y="320.10525736630666"/>
      <point x="674.9579439252335" y="271.6188397549659"/>
      <point x="674.9579439252335" y="214.1950934579439" type="curve"/>
      <point x="674.9579439252335" y="146.19929194605132"/>
      <point x="566.0167596989719" y="90.99532710280371"/>
      <point x="431.8317757009345" y="90.99532710280373" type="curve" smooth="yes"/>
      <point x="297.64679170289713" y="90.99532710280374"/>
      <point x="188.70560747663546" y="146.19929194605143"/>
      <point x="188.70560747663546" y="214.19509345794395" type="curve"/>
    </contour>
  </outline>
</glyph>
<glyph name="t" format="2">
  <advance width="531.1617541337166"/>
  <unicode hex="0074"/>
  <anchor x="260.5341480948957" y="1025.2069425901202" name="above" identifier="above"/>
  <anchor x="311.671562082777" y="-121.12149532710279" name="below" identifier="below"/>
  <anchor x="208.7387901817808" y="1025.2069425901202" name="stem" identifier="stem"/>
  <anchor x="250.30666529731946" y="403.1943035157988" name="stroke" identifier="stroke"/>
  <anchor x="311.671562082777" y="0" name="cedilla" identifier="cedilla"/>
  <anchor x="384.7163602752387" y="898.3177570093457" name="t_caron" identifier="t_caron"/>
  <outline>
    <contour>
      <point x="153.88272094726562" y="254.3124237060547" type="line"/>
      <point x="153.88272094726562" y="95.48220703156926"/>
      <point x="250.97284095872615" y="1.6804883704606894e-14"/>
      <point x="408.19513" y="-2.4492935982947065e-15" type="curve"/>
      <point x="475.31128692626953" y="0" type="line"/>
      <point x="475.31128692626953" y="109.71215057373047" type="line"/>
      <point x="404.07709653993055" y="109.71215057373047" type="line"/>
      <point x="375.95861607752374" y="109.71215057373047"/>
      <point x="263.59486106491994" y="110.89916045500485"/>
      <point x="263.5948598274221" y="254.31242" type="curve"/>
      <point x="263.59485626220703" y="667.4841079711914" type="line"/>
      <point x="475.31128692626953" y="667.4841079711914" type="line"/>
      <point x="475.31128692626953" y="777.1962585449219" type="line"/>
      <point x="263.59485626220703" y="777.1962585449219" type="line"/>
      <point x="263.59485626220703" y="964.6461868286133" type="line"/>
      <point x="153.88272094726562" y="964.6461868286133" type="line"/>
      <point x="153.88272094726562" y="777.1962585449219" type="line"/>
      <point x="45.75701141357422" y="777.1962585449219" type="line"/>
      <point x="45.75701141357422" y="667.4841079711914" type="line"/>
      <point x="153.88272094726562" y="667.4841079711914" type="line"/>
    </contour>
  </outline>
</glyph>
<glyph name="u" format="2">
  <advance width="911.6074766355139"/>
  <unicode hex="0075"/>
  <anchor x="448.233644859813" y="898.3177570093457" name="above" identifier="above"/>
  <anchor x="448.233644859813" y="-121.12149532710279" name="below" identifier="below"/>
  <anchor x="805.2897196261681" y="0" name="ogonek" identifier="ogonek"/>
  <anchor x="805.2897196261681" y="777.196261682243" name="horn" identifier="horn"/>
  <outline>
    <contour>
      <point x="91.17756652832031" y="362.05606842041016" type="line"/>
      <point x="91.17756652832033" y="112.04733305110665"/>
      <point x="276.470013387039" y="-14.999999999999979"/>
      <point x="448.23364" y="-15.0" type="curve" smooth="yes"/>
      <point x="544.20784929759" y="-15.0"/>
      <point x="631.3887761503026" y="22.94797369449074"/>
      <point x="695.5775680541992" y="84.65804290771484" type="curve"/>
      <point x="695.5775680541992" y="0" type="line"/>
      <point x="805.2897186279297" y="0" type="line"/>
      <point x="805.2897186279297" y="777.1962585449219" type="line"/>
      <point x="695.5775680541992" y="777.1962585449219" type="line"/>
      <point x="695.5775680541992" y="362.05606842041016" type="line"/>
      <point x="695.5775680541992" y="175.52576688316256"/>
      <point x="562.5300063679473" y="94.71215"/>
      <point x="448.23364" y="94.71215" type="curve" smooth="yes"/>
      <point x="333.93727363205267" y="94.71215000000001"/>
      <point x="200.88972110905948" y="175.5257684004965"/>
      <point x="200.8897198668039" y="362.05607" type="curve"/>
      <point x="200.88971710205078" y="777.1962585449219" type="line"/>
      <point x="91.17756652832031" y="777.1962585449219" type="line"/>
    </contour>
  </outline>
</glyph>
<glyph name="v" format="2">
  <advance width="893.9439252335677"/>
  <unicode hex="0076"/>
  <outline>
    <contour>
      <point x="386.3609085083008" y="0" type="line"/>
      <point x="507.5830078125" y="0" type="line"/>
      <point x="848.1869201660156" y="777.1962585449219" type="line"/>
      <point x="726.9648208618164" y="777.1962585449219" type="line"/>
      <point x="446.97196197509766" y="138.30340576171875" type="line"/>
      <point x="166.97911071777344" y="777.1962585449219" type="line"/>
      <point x="45.75701141357422" y="777.1962585449219" type="line"/>
    </contour>
  </outline>
</glyph>
<glyph name="w" format="2">
  <advance width="1378.4299065420755"/>
  <unicode hex="0077"/>
  <anchor x="689.214953271028" y="898.3177570093457" name="above" identifier="above"/>
  <anchor x="689.214953271028" y="-121.12149532710279" name="below" identifier="below"/>
  <outline>
    <contour>
      <point x="345.84271240234375" y="0" type="line"/>
      <point x="462.6961669921875" y="0" type="line"/>
      <point x="689.2149505615234" y="617.8358459472656" type="line"/>
      <point x="915.7337417602539" y="0" type="line"/>
      <point x="1032.5871963500977" y="0" type="line"/>
      <point x="1317.5327072143555" y="777.1962585449219" type="line"/>
      <point x="1200.6792526245117" y="777.1962585449219" type="line"/>
      <point x="974.1604690551758" y="159.36041259765625" type="line"/>
      <point x="747.6416778564453" y="777.1962585449219" type="line"/>
      <point x="630.7882232666016" y="777.1962585449219" type="line"/>
      <point x="404.2694396972656" y="159.36041259765625" type="line"/>
      <point x="177.75064849853516" y="777.1962585449219" type="line"/>
      <point x="60.89720153808594" y="777.1962585449219" type="line"/>
    </contour>
  </outline>
</glyph>
<glyph name="x" format="2">
  <advance width="863.6635514018833"/>
  <unicode hex="0078"/>
  <anchor x="431.8317757009345" y="898.3177570093457" name="above" identifier="above"/>
  <outline>
    <contour>
      <point x="60.89720153808594" y="0" type="line"/>
      <point x="199.7592315673828" y="0" type="line"/>
      <point x="431.83177947998047" y="299.1107482910156" type="line"/>
      <point x="663.9043197631836" y="0" type="line"/>
      <point x="802.766357421875" y="0" type="line"/>
      <point x="501.2627944946289" y="388.59812927246094" type="line"/>
      <point x="802.766357421875" y="777.1962585449219" type="line"/>
      <point x="663.9043197631836" y="777.1962585449219" type="line"/>
      <point x="431.83177947998047" y="478.08551025390625" type="line"/>
      <point x="199.7592315673828" y="777.1962585449219" type="line"/>
      <point x="60.89720153808594" y="777.1962585449219" type="line"/>
      <point x="362.40076446533203" y="388.59812927246094" type="line"/>
    </contour>
  </outline>
</glyph>
<glyph name="y" format="2">
  <advance width="893.9439252336447"/>
  <unicode hex="0079"/>
  <anchor x="446.97196261682234" y="898.3177570093457" name="above" identifier="above"/>
  <anchor x="733.554072096128" y="-121.12149532710279" name="below" identifier="below"/>
  <outline>
    <contour>
      <point x="203.1107406616211" y="-418.87850189208984" type="line"/>
      <point x="322.9357376098633" y="-418.87850189208984" type="line"/>
      <point x="506.88446617126465" y="3.814697265625e-06" type="line"/>
      <point x="848.1869201660156" y="777.1962585449219" type="line"/>
      <point x="728.3619079589844" y="777.1962585449219" type="line"/>
      <point x="446.97196197509766" y="136.42964935302734" type="line"/>
      <point x="165.58202362060547" y="777.1962585449219" type="line"/>
      <point x="45.75701141357422" y="777.1962585449219" type="line"/>
      <point x="387.05946350097656" y="0" type="line"/>
    </contour>
  </outline>
</glyph>
<glyph name="z" format="2">
  <advance width="840.7850467289718"/>
  <unicode hex="007A"/>
  <anchor x="420.39252336448595" y="929.0712616822428" name="above" identifier="above"/>
  <anchor x="420.39252336448595" y="-121.12149532710279" name="below" identifier="below"/>
  <anchor x="420.39252336448595" y="411.363772066459" name="stroke" identifier="stroke"/>
  <outline>
    <contour>
      <point x="91.34578704833984" y="0" type="line"/>
      <point x="749.4392471313477" y="0" type="line"/>
      <point x="749.4392471313477" y="109.87664031982422" type="line"/>
      <point x="237.06419372558594" y="109.87664031982422" type="line"/>
      <point x="749.4392471313477" y="698.073127746582" type="line"/>
      <point x="749.4392471313477" y="807.9497680664062" type="line"/>
      <point x="91.34578704833984" y="807.9497680664062" type="line"/>
      <point x="91.34578704833984" y="698.073127746582" type="line"/>
      <point x="603.7208480834961" y="698.073127746582" type="line"/>
      <point x="91.34578704833984" y="109.87664031982422" type="line"/>
    </contour>
  </outline>
</glyph>
<glyph name="braceleft" format="2">
  <advance width="570.9532710280373"/>
  <unicode hex="007B"/>
  <outline>
    <contour>
      <point x="247.6261677040892" y="164.48597717285156" type="line"/>
      <point x="247.6261650289246" y="-98.60663351961904"/>
      <point x="427.5745208024591" y="-111.02804191879024"/>
      <point x="523.14019" y="-111.02803861872249" type="curve"/>
      <point x="540.3364486694336" y="-111.02803802490234" type="line"/>
      <point x="540.3364486694336" y="0" type="line"/>
      <point x="514.8749951687125" y="-3.886392741894582e-15" type="line"/>
      <point x="454.42697497024346" y="3.516354703190385e-15"/>
      <point x="358.65420867844296" y="5.480943755767441"/>
      <point x="358.654210444202" y="164.48597999999998" type="curve"/>
      <point x="358.6542125074581" y="350.2803726196289" type="line"/>
      <point x="358.65421323889257" y="416.14539907936273"/>
      <point x="358.6542087120238" y="499.61649794951234"/>
      <point x="274.94627380371094" y="570.2734069824219" type="curve"/>
      <point x="358.65420977872566" y="640.9531066082199"/>
      <point x="358.65420971268594" y="724.4079956482865"/>
      <point x="358.65421044420196" y="790.28037" type="curve"/>
      <point x="358.6542125992435" y="984.3399625667936" type="line"/>
      <point x="358.65421327052184" y="1044.7879827652625"/>
      <point x="364.1351537557676" y="1140.5607440313565"/>
      <point x="523.14019" y="1140.560752006182" type="curve"/>
      <point x="540.3364486694336" y="1140.5607528686523" type="line"/>
      <point x="540.3364486694336" y="1251.5887908935547" type="line"/>
      <point x="523.1401901245117" y="1251.5887908935547" type="line"/>
      <point x="260.0475794320411" y="1251.5887908935547"/>
      <point x="247.62617056499994" y="1071.640439197541"/>
      <point x="247.62616959327408" y="976.07477" type="curve"/>
      <point x="247.6261676200474" y="782.0151694825628" type="line"/>
      <point x="247.62616700539994" y="721.5668497621342"/>
      <point x="242.14517736881027" y="625.794394541247"/>
      <point x="83.14019000000003" y="625.7943884735944" type="curve"/>
      <point x="65.94393157958984" y="625.7943878173828" type="line"/>
      <point x="65.94393157958984" y="514.766357421875" type="line"/>
      <point x="83.14019012451172" y="514.766357421875" type="line"/>
      <point x="242.14519432004235" y="514.766357421875"/>
      <point x="247.6261702919623" y="418.993790180619"/>
      <point x="247.6261696773158" y="358.5455650708218" type="curve"/>
    </contour>
  </outline>
</glyph>
<glyph name="bar" format="2">
  <advance width="424.9345794392523"/>
  <unicode hex="007C"/>
  <outline>
    <contour>
      <point x="156.95327" y="-55.51402" type="line"/>
      <point x="267.98131" y="-55.51402" type="line"/>
      <point x="267.98131" y="1194.81308" type="line"/>
      <point x="156.95327" y="1194.81308" type="line"/>
    </contour>
  </outline>
</glyph>
<glyph name="braceright" format="2">
  <advance width="519.2658260120586"/>
  <unicode hex="007D"/>
  <outline>
    <contour>
      <point x="47.569305419921875" y="-55.59657287597656" type="line"/>
      <point x="296.3341877008635" y="-55.59657287597656"/>
      <point x="299.45524018922737" y="160.28709260648176"/>
      <point x="299.45523981273305" y="200.49646" type="curve"/>
      <point x="299.45523849135117" y="341.61925237199955" type="line"/>
      <point x="299.45523717817343" y="481.8658543489645"/>
      <point x="417.06336515566863" y="482.4392998665924"/>
      <point x="436.53373565429683" y="482.4393002228156" type="curve"/>
      <point x="453.71234130859375" y="482.4393005371094" type="line"/>
      <point x="453.71234130859375" y="597.2467422485352" type="line"/>
      <point x="436.5337371826172" y="597.2467422485352" type="line"/>
      <point x="300.3065018784197" y="597.2467422485352"/>
      <point x="299.4552400357803" y="718.3253147428841"/>
      <point x="299.45523981273305" y="742.14663" type="curve"/>
      <point x="299.4552385295521" y="879.1895904541016" type="line"/>
      <point x="299.45523652575423" y="1093.1940120829347"/>
      <point x="149.54741551782485" y="1135.2826160191375"/>
      <point x="47.56930564697265" y="1135.2826091836848" type="curve"/>
      <point x="30.390701293945312" y="1135.2826080322266" type="line"/>
      <point x="30.390701293945312" y="1024.0894775390625" type="line"/>
      <point x="47.569305419921875" y="1024.0894775390625" type="line"/>
      <point x="183.79654072411935" y="1024.0894775390625"/>
      <point x="184.6478000727199" y="903.0109052571158"/>
      <point x="184.6477996193985" y="879.18959" type="curve"/>
      <point x="184.64779701146085" y="742.1466293334961" type="line"/>
      <point x="184.6477956658166" y="671.4351712264915"/>
      <point x="201.7996679409422" y="595.8516466538264"/>
      <point x="272.6649398803711" y="539.8413696289062" type="curve"/>
      <point x="201.7996659778973" y="483.83545227919984"/>
      <point x="184.64780096502616" y="408.2499899643144"/>
      <point x="184.6477996193985" y="337.53941" type="curve"/>
      <point x="184.64779693382118" y="196.41661763462372" type="line"/>
      <point x="184.64779426491776" y="56.17001565765878"/>
      <point x="67.03967614560077" y="55.596569285662724"/>
      <point x="47.569305646972644" y="55.59657119307599" type="curve"/>
      <point x="30.390701293945312" y="55.59657287597656" type="line"/>
      <point x="30.390701293945312" y="-55.59657287597656" type="line"/>
    </contour>
  </outline>
</glyph>
<glyph name="tilde" format="2">
  <advance width="1018.1322034401264"/>
  <unicode hex="007E"/>
  <outline>
    <contour>
      <point x="559.8050994873047" y="396.13646697998047" type="line"/>
      <point x="595.4798890397642" y="375.539619638876"/>
      <point x="635.947851858575" y="364.6962616822429"/>
      <point x="677.1415492345191" y="364.69626168224295" type="curve"/>
      <point x="806.6610459840517" y="364.69626168224295"/>
      <point x="911.8144464307807" y="469.8496621289719"/>
      <point x="911.8144464307807" y="599.3691588785047" type="curve"/>
      <point x="800.7864074707031" y="599.3691558837891" type="line"/>
      <point x="800.7864090476031" y="531.1277036018691"/>
      <point x="745.3830045111546" y="475.7242990654205"/>
      <point x="677.1415492345191" y="475.7242990654205" type="curve"/>
      <point x="655.4373430902044" y="475.7242990654205"/>
      <point x="634.1155132179277" y="481.4374661608508"/>
      <point x="615.319119327977" y="492.2895692330081" type="curve"/>
      <point x="458.3271026611328" y="582.928955078125" type="line"/>
      <point x="422.65231440036234" y="603.5258009218715"/>
      <point x="382.1843515815515" y="614.3691588785045"/>
      <point x="340.9906542056075" y="614.3691588785045" type="curve"/>
      <point x="211.47115745607476" y="614.3691588785045"/>
      <point x="106.31775700934578" y="509.21575843177567"/>
      <point x="106.31775700934578" y="379.69626168224295" type="curve"/>
      <point x="217.34579467773438" y="379.6962585449219" type="line"/>
      <point x="217.34579439252335" y="447.9377169588784"/>
      <point x="272.74919892897196" y="503.34112149532706"/>
      <point x="340.9906542056074" y="503.34112149532706" type="curve"/>
      <point x="362.69486034992207" y="503.34112149532706"/>
      <point x="384.01669022219875" y="497.6279543998967"/>
      <point x="402.81308411214945" y="486.7758513277394" type="curve"/>
    </contour>
  </outline>
</glyph>
<glyph name="inv_exclamation" format="2">
  <advance width="418.8837209302326"/>
  <unicode hex="00A1"/>
  <outline>
    <contour>
      <point x="105.73953" y="720.16621" type="curve" smooth="yes"/>
      <point x="105.73953" y="662.93134"/>
      <point x="152.20699" y="616.46389"/>
      <point x="209.44186" y="616.46389" type="curve" smooth="yes"/>
      <point x="266.67673" y="616.46389"/>
      <point x="313.14419" y="662.93134"/>
      <point x="313.14419" y="720.16621" type="curve" smooth="yes"/>
      <point x="313.14419" y="777.40109"/>
      <point x="266.67673" y="823.86854"/>
      <point x="209.44186" y="823.86854" type="curve" smooth="yes"/>
      <point x="152.20699" y="823.86854"/>
      <point x="105.73953" y="777.40109"/>
    </contour>
    <contour>
      <point x="267.2093" y="494.23133" type="line"/>
      <point x="151.67442" y="494.23133" type="line"/>
      <point x="151.67442" y="-270.7064" type="line"/>
      <point x="267.2093" y="-270.7064" type="line"/>
    </contour>
  </outline>
</glyph>
<glyph name="invertedexclam" format="2">
  <advance width="396.3364485981308"/>
  <unicode hex="00A1"/>
  <outline>
    <contour>
      <point x="106.31776" y="700.34579" type="curve" smooth="yes"/>
      <point x="106.31776" y="649.65214"/>
      <point x="147.47457" y="608.49533"/>
      <point x="198.16822" y="608.49533" type="curve" smooth="yes"/>
      <point x="248.86188" y="608.49533"/>
      <point x="290.01869" y="649.65214"/>
      <point x="290.01869" y="700.34579" type="curve" smooth="yes"/>
      <point x="290.01869" y="751.03945"/>
      <point x="248.86188" y="792.19626"/>
      <point x="198.16822" y="792.19626" type="curve" smooth="yes"/>
      <point x="147.47457" y="792.19626"/>
      <point x="106.31776" y="751.03945"/>
    </contour>
    <contour>
      <point x="253.68224" y="484.00935" type="line"/>
      <point x="142.65421" y="484.00935" type="line"/>
      <point x="142.65421" y="-302.80374" type="line"/>
      <point x="253.68224" y="-302.80374" type="line"/>
    </contour>
  </outline>
</glyph>
<glyph name="cent" format="2">
  <advance width="919.7719715154059"/>
  <unicode hex="00A2"/>
  <outline>
    <contour>
      <point x="429.2523422241211" y="0" type="line"/>
      <point x="519.9252319335938" y="0" type="line"/>
      <point x="519.9252319335938" y="108.64989471435547" type="line"/>
      <point x="669.381061322305" y="125.38240375432363"/>
      <point x="794.27228332312" y="223.87798702536"/>
      <point x="848.78132" y="358.31776" type="curve"/>
      <point x="724.9205322265625" y="358.31775665283203" type="line"/>
      <point x="681.07189173272" y="286.0117922836"/>
      <point x="606.8006336906537" y="234.18692869622197"/>
      <point x="519.9252319335938" y="220.66024780273438" type="curve"/>
      <point x="519.9252319335938" y="798.7822723388672" type="line"/>
      <point x="606.8008493951255" y="785.2523583155956"/>
      <point x="681.0724249623" y="733.4272531987499"/>
      <point x="724.9212" y="661.1215" type="curve"/>
      <point x="848.7740097045898" y="661.1214981079102" type="line"/>
      <point x="794.2614480322" y="795.5681662717"/>
      <point x="669.3746889993356" y="894.0573455728966"/>
      <point x="519.9252319335938" y="910.7911834716797" type="curve"/>
      <point x="519.9252319335938" y="1019.4392471313477" type="line"/>
      <point x="429.2523422241211" y="1019.4392471313477" type="line"/>
      <point x="429.2523422241211" y="910.7884292602539" type="line"/>
      <point x="227.80815273704067" y="888.2345894746277"/>
      <point x="70.9906500000001" y="717.1459485921299"/>
      <point x="70.99065000000013" y="509.71962999999994" type="curve" smooth="yes"/>
      <point x="70.99065" y="302.29331140787"/>
      <point x="227.8081527370406" y="131.20467052537228"/>
      <point x="429.2523422241211" y="108.65186309814453" type="curve"/>
    </contour>
    <contour>
      <point x="182.01869" y="509.71963" type="curve" smooth="yes"/>
      <point x="182.01869" y="655.77513134245"/>
      <point x="289.2747605132506" y="776.9773032199106"/>
      <point x="429.2523422241211" y="798.7799606323242" type="curve"/>
      <point x="429.2523422241211" y="220.65771484375" type="line"/>
      <point x="289.2747605132506" y="242.46194859861555"/>
      <point x="182.01869" y="363.66412865754995"/>
    </contour>
  </outline>
</glyph>
<glyph name="pound" format="2">
  <advance width="974.6915887850466"/>
  <unicode hex="00A3"/>
  <outline>
    <contour>
      <point x="91.17756652832031" y="0" type="line"/>
      <point x="868.3738327026367" y="0" type="line"/>
      <point x="868.3738327026367" y="111.02803802490234" type="line"/>
      <point x="323.3271026611328" y="111.02803802490234" type="line"/>
      <point x="323.3271026611328" y="440.76168060302734" type="line"/>
      <point x="686.6915893554688" y="440.76168060302734" type="line"/>
      <point x="686.6915893554688" y="531.4345779418945" type="line"/>
      <point x="323.3271026611328" y="531.4345779418945" type="line"/>
      <point x="323.3271026611328" y="726.9626235961914" type="line"/>
      <point x="323.3271026611328" y="945.6091036216213"/>
      <point x="463.9225637194811" y="983.97196"/>
      <point x="540.33645" y="983.97196" type="curve" smooth="yes"/>
      <point x="660.10717" y="983.97196"/>
      <point x="757.34579" y="886.73333"/>
      <point x="757.34579" y="766.96262" type="curve"/>
      <point x="868.3738327026367" y="766.9626235961914" type="line"/>
      <point x="868.37383" y="948.0113800000001"/>
      <point x="721.3852100000001" y="1095.0"/>
      <point x="540.33645" y="1095.0" type="curve" smooth="yes"/>
      <point x="408.05303901046267" y="1095.0"/>
      <point x="212.29906764095878" y="1012.2019510531675"/>
      <point x="212.2990703847737" y="726.96262" type="curve"/>
      <point x="212.299072265625" y="531.4345779418945" type="line"/>
      <point x="91.17756652832031" y="531.4345779418945" type="line"/>
      <point x="91.17756652832031" y="440.76168060302734" type="line"/>
      <point x="212.299072265625" y="440.76168060302734" type="line"/>
      <point x="212.299072265625" y="111.02803802490234" type="line"/>
      <point x="91.17756652832031" y="111.02803802490234" type="line"/>
    </contour>
  </outline>
</glyph>
<glyph name="currency" format="2">
  <advance width="947.2586103683028"/>
  <unicode hex="00A4"/>
  <outline>
    <contour>
      <point x="774.33024" y="540.0" type="curve" smooth="yes"/>
      <point x="774.33024" y="606.64294583752"/>
      <point x="752.6037505493401" y="668.2514397240228"/>
      <point x="715.8534393310547" y="718.1087112426758" type="curve"/>
      <point x="901.5016021728516" y="903.7568817138672" type="line"/>
      <point x="837.3861770629883" y="967.8722991943359" type="line"/>
      <point x="651.7375335693359" y="782.2236404418945" type="line"/>
      <point x="601.868782602064" y="818.9786605825672"/>
      <point x="540.26578334448" y="840.7009300000001"/>
      <point x="473.6293099999999" y="840.70093" type="curve" smooth="yes"/>
      <point x="406.99266667896995" y="840.70093"/>
      <point x="345.38952412926363" y="818.978552381707"/>
      <point x="295.5205993652344" y="782.2241287231445" type="curve"/>
      <point x="109.87242889404297" y="967.8722991943359" type="line"/>
      <point x="45.75701141357422" y="903.7568817138672" type="line"/>
      <point x="231.40565490722656" y="718.1082229614258" type="line"/>
      <point x="194.65507587366886" y="668.2520534200247"/>
      <point x="172.92837000000006" y="606.6432777602402"/>
      <point x="172.9283700000001" y="540.0000000000001" type="curve" smooth="yes"/>
      <point x="172.92837" y="473.35688820112"/>
      <point x="194.6549676620296" y="411.7482534279451"/>
      <point x="231.4051742553711" y="361.89129638671875" type="curve"/>
      <point x="45.75701141357422" y="176.2431182861328" type="line"/>
      <point x="109.87242889404297" y="112.12770080566406" type="line"/>
      <point x="295.52108001708984" y="297.77635955810547" type="line"/>
      <point x="345.389830979743" y="261.0213394174329"/>
      <point x="406.99283264033994" y="239.29907"/>
      <point x="473.62931" y="239.29906999999997" type="curve" smooth="yes"/>
      <point x="540.26594930584" y="239.29907"/>
      <point x="601.8690894525314" y="261.021447618293"/>
      <point x="651.7380142211914" y="297.77587127685547" type="curve"/>
      <point x="837.3861770629883" y="112.12770080566406" type="line"/>
      <point x="901.5016021728516" y="176.2431182861328" type="line"/>
      <point x="715.8529510498047" y="361.8917770385742" type="line"/>
      <point x="752.6035341263312" y="411.74794657997535"/>
      <point x="774.33024" y="473.35672223975996"/>
    </contour>
    <contour>
      <point x="663.3022" y="540.0" type="curve" smooth="yes"/>
      <point x="663.3022" y="435.31668"/>
      <point x="578.31263" y="350.3271"/>
      <point x="473.62931" y="350.3271" type="curve" smooth="yes"/>
      <point x="368.94598" y="350.3271"/>
      <point x="283.95641" y="435.31668"/>
      <point x="283.95641" y="540.0" type="curve" smooth="yes"/>
      <point x="283.95641" y="644.68332"/>
      <point x="368.94598" y="729.6729"/>
      <point x="473.62931" y="729.6729" type="curve" smooth="yes"/>
      <point x="578.31263" y="729.6729"/>
      <point x="663.3022" y="644.68332"/>
    </contour>
  </outline>
</glyph>
<glyph name="yen" format="2">
  <advance width="971.6635514018689"/>
  <unicode hex="00A5"/>
  <anchor x="485.8317757009345" y="1200.4906542056074" name="above" identifier="above"/>
  <anchor x="485.8317757009345" y="-121.12149532710279" name="below" identifier="below"/>
  <outline>
    <contour>
      <point x="97.233642578125" y="195.2723617553711" type="line"/>
      <point x="430.31775665283203" y="195.2723617553711" type="line"/>
      <point x="430.31775665283203" y="0" type="line"/>
      <point x="541.3457870483398" y="0" type="line"/>
      <point x="541.3457870483398" y="195.2723617553711" type="line"/>
      <point x="874.4299087524414" y="195.2723617553711" type="line"/>
      <point x="874.4299087524414" y="285.9452590942383" type="line"/>
      <point x="541.3457870483398" y="285.9452590942383" type="line"/>
      <point x="541.3457870483398" y="411.18824768066406" type="line"/>
      <point x="874.4299087524414" y="411.18824768066406" type="line"/>
      <point x="874.4299087524414" y="501.8611526489258" type="line"/>
      <point x="594.9095611572266" y="501.8611526489258" type="line"/>
      <point x="940.8785018920898" y="1079.3691635131836" type="line"/>
      <point x="811.4516525268555" y="1079.3691635131836" type="line"/>
      <point x="485.83177947998047" y="535.8287963867188" type="line"/>
      <point x="160.21189880371094" y="1079.3691635131836" type="line"/>
      <point x="30.785049438476562" y="1079.3691635131836" type="line"/>
      <point x="376.75399017333984" y="501.8611526489258" type="line"/>
      <point x="97.233642578125" y="501.8611526489258" type="line"/>
      <point x="97.233642578125" y="411.18824768066406" type="line"/>
      <point x="430.31775665283203" y="411.18824768066406" type="line"/>
      <point x="430.31775665283203" y="285.9452590942383" type="line"/>
      <point x="97.233642578125" y="285.9452590942383" type="line"/>
    </contour>
  </outline>
</glyph>
<glyph name="brokenbar" format="2">
  <advance width="427.47906976744196"/>
  <unicode hex="00A6"/>
  <outline>
    <contour>
      <point x="155.97209" y="660.24419" type="line"/>
      <point x="271.50698" y="660.24419" type="line"/>
      <point x="271.50698" y="1197.4186" type="line"/>
      <point x="155.97209" y="1197.4186" type="line"/>
    </contour>
    <contour>
      <point x="155.97209" y="-57.76744" type="line"/>
      <point x="271.50698" y="-57.76744" type="line"/>
      <point x="271.50698" y="479.40698" type="line"/>
      <point x="155.97209" y="479.40698" type="line"/>
    </contour>
  </outline>
</glyph>
<glyph name="section" format="2">
  <advance width="804.1121495327102"/>
  <unicode hex="00A7"/>
  <outline>
    <contour>
      <point x="99.2523422241211" y="93.70552062988281" type="line"/>
      <point x="99.25234" y="-26.86071"/>
      <point x="234.64707" y="-125.12065"/>
      <point x="402.05607" y="-125.12065" type="curve" smooth="yes"/>
      <point x="569.46508" y="-125.12065"/>
      <point x="704.85981" y="-26.86071"/>
      <point x="704.85981" y="93.70552" type="curve"/>
      <point x="704.85981" y="168.84530820196"/>
      <point x="652.2894308309618" y="235.37947344893877"/>
      <point x="572.1284637451172" y="274.7640380859375" type="curve"/>
      <point x="656.8622819496254" y="319.61061195473985"/>
      <point x="712.8383512851858" y="396.9825724943583"/>
      <point x="712.9344186782837" y="484.94642543792725" type="curve"/>
      <point x="712.9346249252671" y="621.2639059809779"/>
      <point x="588.5692264235079" y="696.0358998578613"/>
      <point x="494.86562485572176" y="725.2216291422035" type="curve"/>
      <point x="334.9884706032626" y="775.0183420186852" type="line"/>
      <point x="307.3617848739404" y="783.6231870537644"/>
      <point x="218.35514" y="812.2629731407256"/>
      <point x="218.35514" y="876.17383" type="curve"/>
      <point x="218.35514" y="937.3253026536831"/>
      <point x="303.60763885957647" y="983.97196"/>
      <point x="402.05607" y="983.97196" type="curve" smooth="yes"/>
      <point x="503.72547" y="983.97196"/>
      <point x="585.75701" y="935.50386"/>
      <point x="585.75701" y="876.17383" type="curve"/>
      <point x="696.7850494384766" y="876.173828125" type="line"/>
      <point x="696.78505" y="996.75695"/>
      <point x="564.97796" y="1095.0"/>
      <point x="402.05607" y="1095.0" type="curve" smooth="yes"/>
      <point x="239.13419" y="1095.0"/>
      <point x="107.3271" y="996.75695"/>
      <point x="107.3271" y="876.17383" type="curve"/>
      <point x="107.3271" y="801.77088570784"/>
      <point x="157.4909261326797" y="735.8162927348701"/>
      <point x="234.20891571044922" y="696.2934265136719" type="curve"/>
      <point x="148.2296696980576" y="651.6177693745135"/>
      <point x="91.27249983016429" y="573.6596992288831"/>
      <point x="91.17772579193115" y="484.93292236328125" type="curve"/>
      <point x="91.17752636778005" y="347.7234240928481"/>
      <point x="217.0976568457952" y="272.9236312166878"/>
      <point x="311.1307751627425" y="244.18903474001277" type="curve"/>
      <point x="474.5614741353532" y="194.2479579052509" type="line"/>
      <point x="503.02851133781616" y="185.54901394231476"/>
      <point x="593.83178" y="156.93572741622188"/>
      <point x="593.83178" y="93.70552" type="curve"/>
      <point x="593.83178" y="31.762876219399104"/>
      <point x="503.3382553429481" y="-14.09261"/>
      <point x="402.05607" y="-14.09261" type="curve" smooth="yes"/>
      <point x="295.8953" y="-14.09261"/>
      <point x="210.28037" y="34.38806"/>
      <point x="210.28037" y="93.70552" type="curve"/>
    </contour>
    <contour>
      <point x="402.05607" y="625.02514" type="curve" smooth="yes"/>
      <point x="512.46294883703" y="625.02514"/>
      <point x="601.7440966839118" y="562.2192070610364"/>
      <point x="601.9063186645508" y="484.94161224365234" type="curve"/>
      <point x="601.90654" y="407.77448"/>
      <point x="512.5634" y="344.85421"/>
      <point x="402.05607" y="344.85421" type="curve" smooth="yes"/>
      <point x="291.64964318316" y="344.85421"/>
      <point x="202.36876821544433" y="407.6596400353665"/>
      <point x="202.2058334350586" y="484.93773651123047" type="curve"/>
      <point x="202.20561" y="562.10487"/>
      <point x="291.54875" y="625.02514"/>
    </contour>
  </outline>
</glyph>
<glyph name="diaeresis" format="2">
  <advance width="659.1893190921228"/>
  <unicode hex="00A8"/>
  <outline>
    <contour>
      <point x="287.61549" y="1041.78905" type="curve" smooth="yes"/>
      <point x="287.61549" y="1091.81952"/>
      <point x="246.99709" y="1132.43792"/>
      <point x="196.96662" y="1132.43792" type="curve" smooth="yes"/>
      <point x="146.93615" y="1132.43792"/>
      <point x="106.31776" y="1091.81952"/>
      <point x="106.31776" y="1041.78905" type="curve" smooth="yes"/>
      <point x="106.31776" y="991.75858"/>
      <point x="146.93615" y="951.14019"/>
      <point x="196.96662" y="951.14019" type="curve" smooth="yes"/>
      <point x="246.99709" y="951.14019"/>
      <point x="287.61549" y="991.75858"/>
    </contour>
    <contour>
      <point x="552.87156" y="1041.78905" type="curve" smooth="yes"/>
      <point x="552.87156" y="1091.81952"/>
      <point x="512.25317" y="1132.43792"/>
      <point x="462.2227" y="1132.43792" type="curve" smooth="yes"/>
      <point x="412.19223" y="1132.43792"/>
      <point x="371.57383" y="1091.81952"/>
      <point x="371.57383" y="1041.78905" type="curve" smooth="yes"/>
      <point x="371.57383" y="991.75858"/>
      <point x="412.19223" y="951.14019"/>
      <point x="462.2227" y="951.14019" type="curve" smooth="yes"/>
      <point x="512.25317" y="951.14019"/>
      <point x="552.87156" y="991.75858"/>
    </contour>
  </outline>
</glyph>
<glyph name="copyright" format="2">
  <advance width="1232.07476635514"/>
  <unicode hex="00A9"/>
  <outline>
    <contour>
      <point x="1156.0373831775698" y="539.9999999999999" type="curve" smooth="yes"/>
      <point x="1156.0373831775698" y="838.0341107999999"/>
      <point x="914.07149397757" y="1079.9999999999998"/>
      <point x="616.03738317757" y="1079.9999999999998" type="curve" smooth="yes"/>
      <point x="318.0032723775701" y="1079.9999999999998"/>
      <point x="76.03738317757008" y="838.0341108"/>
      <point x="76.03738317757008" y="539.9999999999999" type="curve" smooth="yes"/>
      <point x="76.03738317757008" y="241.96588920000002"/>
      <point x="318.00327237757" y="0.0"/>
      <point x="616.0373831775698" y="0.0" type="curve" smooth="yes"/>
      <point x="914.0714939775698" y="0.0"/>
      <point x="1156.0373831775698" y="241.96588919999985"/>
    </contour>
    <contour>
      <point x="1070.9158878504672" y="539.9999999999999" type="curve" smooth="yes"/>
      <point x="1070.915887850467" y="288.94572099588777"/>
      <point x="867.0916621816821" y="85.12149532710278"/>
      <point x="616.03738317757" y="85.12149532710283" type="curve" smooth="yes"/>
      <point x="364.98310417345783" y="85.12149532710289"/>
      <point x="161.15887850467286" y="288.9457209958879"/>
      <point x="161.1588785046729" y="539.9999999999999" type="curve" smooth="yes"/>
      <point x="161.1588785046729" y="791.0542790041121"/>
      <point x="364.98310417345795" y="994.8785046728971"/>
      <point x="616.03738317757" y="994.8785046728971" type="curve" smooth="yes"/>
      <point x="867.0916621816822" y="994.8785046728971"/>
      <point x="1070.9158878504672" y="791.0542790041121"/>
    </contour>
    <contour>
      <point x="616.03738317757" y="342.75116822429914" type="curve" smooth="yes"/>
      <point x="507.17279024310744" y="342.75116822429914"/>
      <point x="418.78855140186914" y="431.13540706553744"/>
      <point x="418.78855140186914" y="539.9999999999999" type="curve" smooth="yes"/>
      <point x="418.78855140186914" y="648.8645929344626"/>
      <point x="507.1727902431075" y="737.2488317757009"/>
      <point x="616.03738317757" y="737.2488317757009" type="curve" smooth="yes"/>
      <point x="691.6265335002777" y="737.2488317757009"/>
      <point x="757.3419121020299" y="694.637957272437"/>
      <point x="790.4528193964022" y="632.1382447715118" type="curve"/>
      <point x="905.4322924747645" y="632.1382447715118" type="line"/>
      <point x="866.3794690105778" y="754.742871677165"/>
      <point x="751.5092662026963" y="843.6507009345793"/>
      <point x="616.0373831775701" y="843.6507009345793" type="curve" smooth="yes"/>
      <point x="448.44800049824767" y="843.6507009345793"/>
      <point x="312.3866822429907" y="707.5893826793225"/>
      <point x="312.3866822429907" y="539.9999999999999" type="curve" smooth="yes"/>
      <point x="312.3866822429907" y="372.4106173206776"/>
      <point x="448.44800049824755" y="236.34929906542064"/>
      <point x="616.0373831775698" y="236.34929906542064" type="curve" smooth="yes"/>
      <point x="751.5109420965231" y="236.34929906542058"/>
      <point x="866.3823110770779" y="325.2593280561006"/>
      <point x="905.4336940016701" y="447.86175622672675" type="curve"/>
      <point x="790.4527385390807" y="447.86175622672675" type="line"/>
      <point x="757.3419121020298" y="385.3620427275629"/>
      <point x="691.6265335002777" y="342.75116822429914"/>
    </contour>
  </outline>
</glyph>
<glyph name="ordinal_a" format="2">
  <advance width="679.8092359522637"/>
  <unicode hex="00AA"/>
  <outline>
    <contour>
      <point x="330.69206" y="716.58394" type="curve" smooth="yes"/>
      <point x="252.73323" y="716.58394"/>
      <point x="189.44055" y="779.87663"/>
      <point x="189.44055" y="857.83546" type="curve"/>
      <point x="189.44055" y="935.79429"/>
      <point x="252.73323" y="999.08697"/>
      <point x="330.69206" y="999.08697" type="curve" smooth="yes"/>
      <point x="408.6509" y="999.08697"/>
      <point x="471.94358" y="935.79429"/>
      <point x="471.94358" y="857.83546" type="curve"/>
      <point x="471.94358" y="779.87663"/>
      <point x="408.6509" y="716.58394"/>
    </contour>
    <contour>
      <point x="83.99535" y="458.55661" type="line"/>
      <point x="574.0697" y="458.55661" type="line"/>
      <point x="574.0697" y="534.13784" type="line"/>
      <point x="83.99535" y="534.13784" type="line"/>
    </contour>
    <contour>
      <point x="476.92220306396484" y="630.4015426635742" type="line"/>
      <point x="574.0697021484375" y="630.4015426635742" type="line"/>
      <point x="574.0697021484375" y="1085.2693786621094" type="line"/>
      <point x="476.92220306396484" y="1085.2693786621094" type="line"/>
      <point x="476.92220306396484" y="1019.7844467163086" type="line"/>
      <point x="439.1139926482487" y="1065.8177665686428"/>
      <point x="383.37122468648" y="1094.57494"/>
      <point x="315.34122999999994" y="1094.57494" type="curve" smooth="yes"/>
      <point x="184.68115" y="1094.57494"/>
      <point x="83.99535" y="988.49553"/>
      <point x="83.99535" y="857.83546" type="curve"/>
      <point x="83.99535" y="727.17538"/>
      <point x="184.68115" y="621.09598"/>
      <point x="315.34123" y="621.09598" type="curve" smooth="yes"/>
      <point x="383.37122468648" y="621.09598"/>
      <point x="439.1139926482487" y="649.8531507204472"/>
      <point x="476.92220306396484" y="695.8779983520508" type="curve"/>
    </contour>
  </outline>
</glyph>
<glyph name="ordinalfeminine" format="2">
  <advance width="638.1074766355139"/>
  <unicode hex="00AA"/>
  <outline>
    <contour>
      <point x="433.71495056152344" y="691.4018707275391" type="line"/>
      <point x="531.7897186279297" y="691.4018707275391" type="line"/>
      <point x="531.7897186279297" y="1122.5607452392578" type="line"/>
      <point x="433.71495056152344" y="1122.5607452392578" type="line"/>
      <point x="433.71495056152344" y="1092.0263061523438" type="line"/>
      <point x="397.9016682855619" y="1116.4058546121826"/>
      <point x="354.6609534642494" y="1130.6518691588788"/>
      <point x="308.11915887850466" y="1130.6518691588785" type="curve" smooth="yes"/>
      <point x="184.67201687004672" y="1130.6518691588785"/>
      <point x="84.44859813084113" y="1030.4284504196728"/>
      <point x="84.44859813084113" y="906.9813084112147" type="curve" smooth="yes"/>
      <point x="84.4485981308411" y="783.5341664027569"/>
      <point x="184.67201687004666" y="683.3107476635513"/>
      <point x="308.1191588785046" y="683.3107476635513" type="curve" smooth="yes"/>
      <point x="354.66095346424936" y="683.3107476635513"/>
      <point x="397.90166828556187" y="697.5567622102474"/>
      <point x="433.71495056152344" y="721.9246520996094" type="curve"/>
    </contour>
    <contour>
      <point x="433.714953271028" y="906.9813084112147" type="curve" smooth="yes"/>
      <point x="433.714953271028" y="837.6631030371494"/>
      <point x="377.4373642525701" y="781.3855140186914"/>
      <point x="308.1191588785046" y="781.3855140186914" type="curve" smooth="yes"/>
      <point x="238.80095350443924" y="781.3855140186914"/>
      <point x="182.5233644859813" y="837.6631030371494"/>
      <point x="182.5233644859813" y="906.9813084112147" type="curve" smooth="yes"/>
      <point x="182.5233644859813" y="976.2995137852803"/>
      <point x="238.80095350443924" y="1032.5771028037382"/>
      <point x="308.11915887850466" y="1032.5771028037382" type="curve" smooth="yes"/>
      <point x="377.4373642525701" y="1032.5771028037382"/>
      <point x="433.714953271028" y="976.2995137852803"/>
    </contour>
    <contour>
      <point x="84.4485981308411" y="512.1305073431241" type="line"/>
      <point x="531.7897196261681" y="512.1305073431241" type="line"/>
      <point x="531.7897196261681" y="586.4135514018691" type="line"/>
      <point x="84.4485981308411" y="586.4135514018691" type="line"/>
    </contour>
  </outline>
</glyph>
<glyph name="angleleft_dbl" format="2">
  <advance width="846.9767441860465"/>
  <unicode hex="00AB"/>
  <outline>
    <contour>
      <point x="370.0744171142578" y="489.76744079589844" type="line"/>
      <point x="599.6578598022461" y="215.08429718017578" type="line"/>
      <point x="741.2372131347656" y="215.08429718017578" type="line"/>
      <point x="511.65377044677734" y="489.76744079589844" type="line"/>
      <point x="741.2372131347656" y="764.4505767822266" type="line"/>
      <point x="599.6578598022461" y="764.4505767822266" type="line"/>
    </contour>
    <contour>
      <point x="105.73953247070312" y="489.76744079589844" type="line"/>
      <point x="330.46893310546875" y="220.10755920410156" type="line"/>
      <point x="471.87906646728516" y="220.10755920410156" type="line"/>
      <point x="247.14967346191406" y="489.76744079589844" type="line"/>
      <point x="471.87906646728516" y="759.4273300170898" type="line"/>
      <point x="330.46893310546875" y="759.4273300170898" type="line"/>
    </contour>
  </outline>
</glyph>
<glyph name="logicalnot" format="2">
  <advance width="989.8317757009345"/>
  <unicode hex="00AC"/>
  <outline>
    <contour>
      <point x="106.31775665283203" y="434.01869201660156" type="line"/>
      <point x="772.4859848022461" y="434.01869201660156" type="line"/>
      <point x="772.4859848022461" y="0" type="line"/>
      <point x="883.5140151977539" y="0" type="line"/>
      <point x="883.5140151977539" y="545.0467300415039" type="line"/>
      <point x="106.31775665283203" y="545.0467300415039" type="line"/>
    </contour>
  </outline>
</glyph>
<glyph name="registered" format="2">
  <advance width="1230.886046511628"/>
  <unicode hex="00AE"/>
  <outline>
    <contour>
      <point x="1155.28605" y="539.84302" type="curve" smooth="yes"/>
      <point x="1155.28605" y="837.7905"/>
      <point x="913.3905" y="1079.68605"/>
      <point x="615.44302" y="1079.68605" type="curve" smooth="yes"/>
      <point x="317.49555" y="1079.68605"/>
      <point x="75.6" y="837.7905"/>
      <point x="75.6" y="539.84302" type="curve" smooth="yes"/>
      <point x="75.6" y="241.89555"/>
      <point x="317.49555" y="0.0"/>
      <point x="615.44302" y="0.0" type="curve" smooth="yes"/>
      <point x="913.3905" y="0.0"/>
      <point x="1155.28605" y="241.89555"/>
    </contour>
    <contour>
      <point x="1050.66279" y="539.84302" type="curve" smooth="yes"/>
      <point x="1050.66279" y="299.6387"/>
      <point x="855.64735" y="104.62326"/>
      <point x="615.44302" y="104.62326" type="curve" smooth="yes"/>
      <point x="375.2387" y="104.62326"/>
      <point x="180.22326" y="299.6387"/>
      <point x="180.22326" y="539.84302" type="curve" smooth="yes"/>
      <point x="180.22326" y="780.04735"/>
      <point x="375.2387" y="975.06279"/>
      <point x="615.44302" y="975.06279" type="curve" smooth="yes"/>
      <point x="855.64735" y="975.06279"/>
      <point x="1050.66279" y="780.04735"/>
    </contour>
    <contour>
      <point x="490.8982925415039" y="726.4464492797852" type="line"/>
      <point x="674.2322672637589" y="726.4464492797852" type="line"/>
      <point x="751.2300877314196" y="726.4464492797852"/>
      <point x="777.09146" y="674.2644960001502"/>
      <point x="777.09146" y="635.21582" type="curve" smooth="yes"/>
      <point x="777.09146" y="596.167141983188"/>
      <point x="751.2300847965466" y="543.9851895489611"/>
      <point x="674.2322649676668" y="543.9851900802355" type="curve"/>
      <point x="490.8982925415039" y="543.9851913452148" type="line"/>
    </contour>
    <contour>
      <point x="387.18433380126953" y="253.0438232421875" type="line"/>
      <point x="490.8982925415039" y="253.0438232421875" type="line"/>
      <point x="490.8982925415039" y="446.4280471801758" type="line"/>
      <point x="656.701545715332" y="446.4280471801758" type="line"/>
      <point x="781.1464080810547" y="253.0438232421875" type="line"/>
      <point x="902.81005859375" y="253.0438232421875" type="line"/>
      <point x="767.1777114868164" y="462.7046127319336" type="line"/>
      <point x="835.4141370965258" y="491.5939894000049"/>
      <point x="882.91633" y="556.4503704217"/>
      <point x="882.9163300000001" y="636.22102" type="curve" smooth="yes"/>
      <point x="882.91633" y="720.3011044446175"/>
      <point x="827.2065697039333" y="826.6422202160544"/>
      <point x="665.86083" y="826.6422199694289" type="curve"/>
      <point x="387.18433380126953" y="826.642219543457" type="line"/>
    </contour>
  </outline>
</glyph>
<glyph name="macron" format="2">
  <advance width="750.7988372093023"/>
  <unicode hex="00AF"/>
  <anchor x="375.39941860465115" y="1481.0314501045898" name="above" identifier="above"/>
  <outline>
    <contour>
      <point x="105.73953" y="1253.0649" type="line"/>
      <point x="645.0593" y="1253.0649" type="line"/>
      <point x="645.0593" y="1360.47331" type="line"/>
      <point x="105.73953" y="1360.47331" type="line"/>
    </contour>
  </outline>
</glyph>
<glyph name="degree" format="2">
  <advance width="661.3137516688918"/>
  <unicode hex="00B0"/>
  <outline>
    <contour>
      <point x="585.2763684913217" y="840.380507343124" type="curve" smooth="yes"/>
      <point x="585.2763684913217" y="980.9088297252334"/>
      <point x="471.18519821655536" y="1094.9999999999998"/>
      <point x="330.6568758344459" y="1094.9999999999998" type="curve" smooth="yes"/>
      <point x="190.12855345233643" y="1094.9999999999998"/>
      <point x="76.03738317757008" y="980.9088297252334"/>
      <point x="76.03738317757008" y="840.380507343124" type="curve" smooth="yes"/>
      <point x="76.03738317757005" y="699.8521849610146"/>
      <point x="190.12855345233638" y="585.7610146862482"/>
      <point x="330.6568758344458" y="585.7610146862481" type="curve" smooth="yes"/>
      <point x="471.18519821655525" y="585.7610146862481"/>
      <point x="585.2763684913217" y="699.8521849610145"/>
    </contour>
    <contour>
      <point x="474.2483311081441" y="840.380507343124" type="curve" smooth="yes"/>
      <point x="474.2483311081441" y="761.1302264339116"/>
      <point x="409.90715674365816" y="696.7890520694257"/>
      <point x="330.6568758344458" y="696.7890520694257" type="curve" smooth="yes"/>
      <point x="251.4065949252336" y="696.7890520694257"/>
      <point x="187.06542056074764" y="761.1302264339117"/>
      <point x="187.06542056074764" y="840.380507343124" type="curve" smooth="yes"/>
      <point x="187.06542056074764" y="919.6307882523363"/>
      <point x="251.4065949252336" y="983.9719626168223"/>
      <point x="330.6568758344459" y="983.9719626168223" type="curve" smooth="yes"/>
      <point x="409.90715674365816" y="983.9719626168223"/>
      <point x="474.2483311081441" y="919.6307882523363"/>
    </contour>
  </outline>
</glyph>
<glyph name="plusminus" format="2">
  <advance width="898.9906542056074"/>
  <unicode hex="00B1"/>
  <outline>
    <contour>
      <point x="393.98130798339844" y="233.83177947998047" type="line"/>
      <point x="505.0093460083008" y="233.83177947998047" type="line"/>
      <point x="505.0093460083008" y="521.4953308105469" type="line"/>
      <point x="792.6728973388672" y="521.4953308105469" type="line"/>
      <point x="792.6728973388672" y="632.5233612060547" type="line"/>
      <point x="505.0093460083008" y="632.5233612060547" type="line"/>
      <point x="505.0093460083008" y="920.1869125366211" type="line"/>
      <point x="393.98130798339844" y="920.1869125366211" type="line"/>
      <point x="393.98130798339844" y="632.5233612060547" type="line"/>
      <point x="106.31775665283203" y="632.5233612060547" type="line"/>
      <point x="106.31775665283203" y="521.4953308105469" type="line"/>
      <point x="393.98130798339844" y="521.4953308105469" type="line"/>
    </contour>
    <contour>
      <point x="106.31775700934578" y="58.87850467289717" type="line"/>
      <point x="792.6728971962616" y="58.87850467289717" type="line"/>
      <point x="792.6728971962616" y="169.90654205607473" type="line"/>
      <point x="106.31775700934578" y="169.90654205607473" type="line"/>
    </contour>
  </outline>
</glyph>
<glyph name="sup_two" format="2">
  <advance width="666.8651535380507"/>
  <unicode hex="00B2"/>
  <outline>
    <contour>
      <point x="107.04271697998047" y="382.35713958740234" type="line"/>
      <point x="566.7957305908203" y="382.35713958740234" type="line"/>
      <point x="566.7957305908203" y="480.4319076538086" type="line"/>
      <point x="255.80101013183594" y="480.4319076538086" type="line"/>
      <point x="487.8186569213867" y="683.8751602172852" type="line"/>
      <point x="538.01356" y="727.88825"/>
      <point x="566.79573" y="791.40551"/>
      <point x="566.79573" y="858.16389" type="curve"/>
      <point x="566.79573" y="986.09838"/>
      <point x="462.92915" y="1089.96495"/>
      <point x="334.99466" y="1089.96495" type="curve" smooth="yes"/>
      <point x="207.06017" y="1089.96495"/>
      <point x="103.19359" y="986.09838"/>
      <point x="103.19359" y="858.16389" type="curve"/>
      <point x="201.2683563232422" y="858.1638870239258" type="line"/>
      <point x="201.26836" y="931.96944"/>
      <point x="261.18911" y="991.89019"/>
      <point x="334.99466" y="991.89019" type="curve" smooth="yes"/>
      <point x="408.80021" y="991.89019"/>
      <point x="468.72096" y="931.96944"/>
      <point x="468.72096" y="858.16389" type="curve"/>
      <point x="468.72096" y="819.6509"/>
      <point x="452.1165" y="783.00772"/>
      <point x="423.159" y="757.61652" type="curve"/>
      <point x="107.04271697998047" y="480.4319076538086" type="line"/>
    </contour>
  </outline>
</glyph>
<glyph name="sup_three" format="2">
  <advance width="673.1134846461948"/>
  <unicode hex="00B3"/>
  <outline>
    <contour>
      <point x="96.94525909423828" y="581.7114334106445" type="line"/>
      <point x="96.94526" y="465.6326"/>
      <point x="204.07345" y="372.66389"/>
      <point x="338.11883" y="372.66389" type="curve" smooth="yes"/>
      <point x="472.1642" y="372.66389"/>
      <point x="579.29239" y="465.6326"/>
      <point x="579.29239" y="581.71143" type="curve"/>
      <point x="579.29239" y="647.17071425322"/>
      <point x="545.2248870124403" y="705.2808273798411"/>
      <point x="491.47425079345703" y="743.4980697631836" type="curve"/>
      <point x="537.8367497840543" y="779.743423657104"/>
      <point x="566.79573" y="832.3930635387"/>
      <point x="566.7957300000002" y="891.3245799999999" type="curve"/>
      <point x="566.79573" y="1001.65368"/>
      <point x="465.29523" y="1089.96495"/>
      <point x="338.11883" y="1089.96495" type="curve" smooth="yes"/>
      <point x="210.94242" y="1089.96495"/>
      <point x="109.44192" y="1001.65368"/>
      <point x="109.44192" y="891.32458" type="curve"/>
      <point x="207.51669311523438" y="891.324577331543" type="line"/>
      <point x="207.51669" y="946.7513"/>
      <point x="265.93761" y="991.89019"/>
      <point x="338.11883" y="991.89019" type="curve" smooth="yes"/>
      <point x="410.30004" y="991.89019"/>
      <point x="468.72096" y="946.7513"/>
      <point x="468.72096" y="891.32458" type="curve"/>
      <point x="468.72096" y="835.89786"/>
      <point x="410.30004" y="790.75897"/>
      <point x="338.11883" y="790.75897" type="curve"/>
      <point x="289.0814437866211" y="790.7589721679688" type="line"/>
      <point x="289.0814437866211" y="692.684196472168" type="line"/>
      <point x="338.1188278198242" y="692.684196472168" type="line"/>
      <point x="417.20382" y="692.6842"/>
      <point x="481.21762" y="642.87631"/>
      <point x="481.21762" y="581.71143" type="curve"/>
      <point x="481.21762" y="520.54654"/>
      <point x="417.20382" y="470.73865"/>
      <point x="338.11883" y="470.73865" type="curve" smooth="yes"/>
      <point x="259.03383" y="470.73865"/>
      <point x="195.02003" y="520.54654"/>
      <point x="195.02003" y="581.71143" type="curve"/>
    </contour>
  </outline>
</glyph>
<glyph name="acute" format="2">
  <advance width="522.1573604980645"/>
  <unicode hex="00B4"/>
  <anchor x="170.28243721871982" y="1520.0581395348838" name="above" identifier="above"/>
  <outline>
    <contour>
      <point x="105.73953" y="1200.24419" type="line"/>
      <point x="231.77748" y="1200.24419" type="line"/>
      <point x="416.41783" y="1479.87209" type="line"/>
      <point x="284.28416" y="1479.87209" type="line"/>
    </contour>
  </outline>
</glyph>
<glyph name="micron" format="2">
  <advance width="880.790689472756"/>
  <unicode hex="00B5"/>
  <outline>
    <contour>
      <point x="106.48597717285156" y="-204.28571319580078" type="line"/>
      <point x="216.36261749267578" y="-204.28571319580078" type="line"/>
      <point x="216.36261749267578" y="71.63016510009766" type="line"/>
      <point x="275.6235570775378" y="17.938505772805314"/>
      <point x="354.21894766174" y="-14.777780000000007"/>
      <point x="440.39534" y="-14.77778" type="curve" smooth="yes"/>
      <point x="526.5717370144" y="-14.77778"/>
      <point x="605.1671300881137" y="17.93850577280533"/>
      <point x="664.4280700683594" y="71.62722778320312" type="curve"/>
      <point x="664.4280700683594" y="0" type="line"/>
      <point x="774.3047103881836" y="0" type="line"/>
      <point x="774.3047103881836" y="807.9497680664062" type="line"/>
      <point x="664.4280700683594" y="807.9497680664062" type="line"/>
      <point x="664.4280700683594" y="339.131591796875" type="line"/>
      <point x="664.4280700683594" y="165.89593045677077"/>
      <point x="542.2218987279284" y="95.09886"/>
      <point x="440.39534" y="95.09886" type="curve" smooth="yes"/>
      <point x="338.5687862720716" y="95.09886000000002"/>
      <point x="216.3626207860008" y="165.89592955833328"/>
      <point x="216.3626198974128" y="339.13159" type="curve"/>
      <point x="216.36261749267578" y="807.9497680664062" type="line"/>
      <point x="106.48597717285156" y="807.9497680664062" type="line"/>
    </contour>
  </outline>
</glyph>
<glyph name="pilcrow" format="2">
  <advance width="956.1869158878503"/>
  <unicode hex="00B6"/>
  <outline>
    <contour>
      <point x="405.7570114135742" y="-185.71428680419922" type="line"/>
      <point x="516.7850494384766" y="-185.71428680419922" type="line"/>
      <point x="516.7850494384766" y="968.9719619750977" type="line"/>
      <point x="637.9065399169922" y="968.9719619750977" type="line"/>
      <point x="637.9065399169922" y="-185.71428680419922" type="line"/>
      <point x="748.9345779418945" y="-185.71428680419922" type="line"/>
      <point x="748.9345779418945" y="968.9719619750977" type="line"/>
      <point x="865.0093536376953" y="968.9719619750977" type="line"/>
      <point x="865.0093536376953" y="1080" type="line"/>
      <point x="445.7570114135742" y="1080.0" type="line"/>
      <point x="165.4997942067141" y="1080.0"/>
      <point x="86.13084000000005" y="888.3627408586708"/>
      <point x="86.13084" y="760.37383" type="curve" smooth="yes"/>
      <point x="86.13084000000002" y="583.9673499999999"/>
      <point x="229.3505299999999" y="440.74766"/>
      <point x="405.75701" y="440.74766" type="curve"/>
    </contour>
  </outline>
</glyph>
<glyph name="interpunct" format="2">
  <advance width="366.39252336448595"/>
  <unicode hex="00B7"/>
  <outline>
    <contour>
      <point x="275.04673" y="482.14382" type="curve" smooth="yes"/>
      <point x="275.04673" y="532.83747"/>
      <point x="233.88991" y="573.99429"/>
      <point x="183.19626" y="573.99429" type="curve" smooth="yes"/>
      <point x="132.50261" y="573.99429"/>
      <point x="91.34579" y="532.83747"/>
      <point x="91.34579" y="482.14382" type="curve" smooth="yes"/>
      <point x="91.34579" y="431.45017"/>
      <point x="132.50261" y="390.29335"/>
      <point x="183.19626" y="390.29335" type="curve" smooth="yes"/>
      <point x="233.88991" y="390.29335"/>
      <point x="275.04673" y="431.45017"/>
    </contour>
  </outline>
</glyph>
<glyph name="cedilla" format="2">
  <advance width="442.89252336448584"/>
  <unicode hex="00B8"/>
  <outline>
    <contour>
      <point x="147.9532699584961" y="-118.59812927246094" type="line"/>
      <point x="173.3461522355292" y="-118.59812927246094" type="line"/>
      <point x="239.31205346854134" y="-118.59812927246094"/>
      <point x="253.30374" y="-156.91492899118055"/>
      <point x="253.30374" y="-182.31308" type="curve" smooth="yes"/>
      <point x="253.30374" y="-207.7113084063434"/>
      <point x="239.31193510839762" y="-246.02804117937853"/>
      <point x="173.34615122467753" y="-246.02803961474243" type="curve"/>
      <point x="106.31775665283203" y="-246.02803802490234" type="line"/>
      <point x="106.31775665283203" y="-329.299072265625" type="line"/>
      <point x="152.1181410236902" y="-329.299072265625" type="line"/>
      <point x="311.4153203596361" y="-329.299072265625"/>
      <point x="336.57477" y="-239.26404778337096"/>
      <point x="336.57477" y="-182.31308" type="curve" smooth="yes"/>
      <point x="336.57477" y="-115.64808065086999"/>
      <point x="292.0977364108876" y="-59.289278034675235"/>
      <point x="231.22429656982422" y="-41.33557891845703" type="curve"/>
      <point x="231.22429656982422" y="55.51402282714844" type="line"/>
      <point x="147.9532699584961" y="55.51402282714844" type="line"/>
    </contour>
  </outline>
</glyph>
<glyph name="sup_one" format="2">
  <advance width="545.3114064230343"/>
  <unicode hex="00B9"/>
  <outline>
    <contour>
      <point x="250.5472869873047" y="375.3888626098633" type="line"/>
      <point x="358.80774688720703" y="375.3888626098633" type="line"/>
      <point x="358.80774688720703" y="1082.168098449707" type="line"/>
      <point x="250.5472869873047" y="1082.168098449707" type="line"/>
      <point x="127.48371887207031" y="1014.9503173828125" type="line"/>
      <point x="127.48371887207031" y="894.8887405395508" type="line"/>
      <point x="250.5472869873047" y="962.1065063476562" type="line"/>
    </contour>
  </outline>
</glyph>
<glyph name="ordinal_o" format="2">
  <advance width="631.8319861255337"/>
  <unicode hex="00BA"/>
  <anchor x="547.1684347236644" y="1010.2026869158876" name="above" identifier="above"/>
  <anchor x="547.1684347236644" y="-121.12149532710279" name="below" identifier="below"/>
  <anchor x="547.1684347236644" y="0" name="ogonek" identifier="ogonek"/>
  <anchor x="547.1684347236644" y="444.54059579439246" name="stroke" identifier="stroke"/>
  <anchor x="547.1684347236644" y="907.0454791161876" name="horn" identifier="horn"/>
  <outline>
    <contour>
      <point x="547.16843" y="862.89449" type="curve" smooth="yes"/>
      <point x="547.16843" y="990.52619"/>
      <point x="443.54769" y="1094.14694"/>
      <point x="315.91599" y="1094.14694" type="curve" smooth="yes"/>
      <point x="188.2843" y="1094.14694"/>
      <point x="84.66355" y="990.52619"/>
      <point x="84.66355" y="862.89449" type="curve" smooth="yes"/>
      <point x="84.66355" y="735.2628"/>
      <point x="188.2843" y="631.64205"/>
      <point x="315.91599" y="631.64205" type="curve" smooth="yes"/>
      <point x="443.54769" y="631.64205"/>
      <point x="547.16843" y="735.2628"/>
    </contour>
    <contour>
      <point x="451.1829" y="862.89449" type="curve" smooth="yes"/>
      <point x="451.1829" y="788.23866"/>
      <point x="390.57183" y="727.62759"/>
      <point x="315.91599" y="727.62759" type="curve" smooth="yes"/>
      <point x="241.26015" y="727.62759"/>
      <point x="180.64908" y="788.23866"/>
      <point x="180.64908" y="862.89449" type="curve" smooth="yes"/>
      <point x="180.64908" y="937.55033"/>
      <point x="241.26015" y="998.1614"/>
      <point x="315.91599" y="998.1614" type="curve" smooth="yes"/>
      <point x="390.57183" y="998.1614"/>
      <point x="451.1829" y="937.55033"/>
    </contour>
    <contour>
      <point x="84.66355" y="460.46181" type="line"/>
      <point x="547.16843" y="460.46181" type="line"/>
      <point x="547.16843" y="534.74486" type="line"/>
      <point x="84.66355" y="534.74486" type="line"/>
    </contour>
  </outline>
</glyph>
<glyph name="ordinalmasculine" format="2">
  <advance width="616.2383177570092"/>
  <unicode hex="00BA"/>
  <outline>
    <contour>
      <point x="531.7897196261681" y="906.9813084112147" type="curve" smooth="yes"/>
      <point x="531.7897196261681" y="1030.4284504196728"/>
      <point x="431.5663008869625" y="1130.6518691588785"/>
      <point x="308.11915887850466" y="1130.6518691588785" type="curve" smooth="yes"/>
      <point x="184.67201687004672" y="1130.6518691588785"/>
      <point x="84.44859813084113" y="1030.4284504196728"/>
      <point x="84.44859813084113" y="906.9813084112147" type="curve" smooth="yes"/>
      <point x="84.4485981308411" y="783.5341664027569"/>
      <point x="184.67201687004666" y="683.3107476635513"/>
      <point x="308.1191588785046" y="683.3107476635513" type="curve" smooth="yes"/>
      <point x="431.5663008869625" y="683.3107476635513"/>
      <point x="531.7897196261681" y="783.5341664027568"/>
    </contour>
    <contour>
      <point x="433.714953271028" y="906.9813084112147" type="curve" smooth="yes"/>
      <point x="433.714953271028" y="837.6631030371494"/>
      <point x="377.4373642525701" y="781.3855140186914"/>
      <point x="308.1191588785046" y="781.3855140186914" type="curve" smooth="yes"/>
      <point x="238.80095350443924" y="781.3855140186914"/>
      <point x="182.5233644859813" y="837.6631030371494"/>
      <point x="182.5233644859813" y="906.9813084112147" type="curve" smooth="yes"/>
      <point x="182.5233644859813" y="976.2995137852803"/>
      <point x="238.80095350443924" y="1032.5771028037382"/>
      <point x="308.11915887850466" y="1032.5771028037382" type="curve" smooth="yes"/>
      <point x="377.4373642525701" y="1032.5771028037382"/>
      <point x="433.714953271028" y="976.2995137852803"/>
    </contour>
    <contour>
      <point x="84.4485981308411" y="512.1305073431241" type="line"/>
      <point x="531.7897196261681" y="512.1305073431241" type="line"/>
      <point x="531.7897196261681" y="586.4135514018691" type="line"/>
      <point x="84.4485981308411" y="586.4135514018691" type="line"/>
    </contour>
  </outline>
</glyph>
<glyph name="angledblright" format="2">
  <advance width="919.177570093363"/>
  <unicode hex="00BB"/>
  <outline>
    <contour>
      <point x="429.30841064453125" y="230.46729278564453" type="line"/>
      <point x="578.9087066650391" y="230.46729278564453" type="line"/>
      <point x="812.8598098754883" y="489.53270721435547" type="line"/>
      <point x="578.9087066650391" y="748.5981292724609" type="line"/>
      <point x="429.30841064453125" y="748.5981292724609" type="line"/>
      <point x="663.259521484375" y="489.53270721435547" type="line"/>
    </contour>
    <contour>
      <point x="106.31775665283203" y="230.46729278564453" type="line"/>
      <point x="255.91805267333984" y="230.46729278564453" type="line"/>
      <point x="489.86915588378906" y="489.53270721435547" type="line"/>
      <point x="255.91805267333984" y="748.5981292724609" type="line"/>
      <point x="106.31775665283203" y="748.5981292724609" type="line"/>
      <point x="340.2688674926758" y="489.53270721435547" type="line"/>
    </contour>
  </outline>
</glyph>
<glyph name="angleright_dbl" format="2">
  <advance width="841.953488372093"/>
  <unicode hex="00BB"/>
  <outline>
    <contour>
      <point x="476.90232849121094" y="489.76744079589844" type="line"/>
      <point x="247.31887817382812" y="764.4505767822266" type="line"/>
      <point x="105.73953247070312" y="764.4505767822266" type="line"/>
      <point x="335.32298278808594" y="489.76744079589844" type="line"/>
      <point x="105.73953247070312" y="215.08429718017578" type="line"/>
      <point x="247.31887817382812" y="215.08429718017578" type="line"/>
    </contour>
    <contour>
      <point x="736.2139511108398" y="489.76744079589844" type="line"/>
      <point x="511.4845504760742" y="759.4273300170898" type="line"/>
      <point x="370.0744171142578" y="759.4273300170898" type="line"/>
      <point x="594.8038177490234" y="489.76744079589844" type="line"/>
      <point x="370.0744171142578" y="220.10755920410156" type="line"/>
      <point x="511.4845504760742" y="220.10755920410156" type="line"/>
    </contour>
  </outline>
</glyph>
<glyph name="one_over_four" format="2">
  <advance width="1374.0527146824754"/>
  <unicode hex="00BC"/>
  <outline>
    <contour>
      <point x="225.28838348388672" y="382.35713958740234" type="line"/>
      <point x="323.36315155029297" y="382.35713958740234" type="line"/>
      <point x="323.36315155029297" y="1080.2716979980469" type="line"/>
      <point x="225.28838348388672" y="1080.2716979980469" type="line"/>
      <point x="101.27102661132812" y="1008.6702423095703" type="line"/>
      <point x="101.27102661132812" y="895.4232559204102" type="line"/>
      <point x="225.28838348388672" y="967.0247116088867" type="line"/>
    </contour>
    <contour>
      <point x="239.44325767690248" y="0.0" type="line"/>
      <point x="352.97802548467536" y="0.0" type="line"/>
      <point x="1166.8163995956932" y="1079.9999999999998" type="line"/>
      <point x="1053.28163178792" y="1079.9999999999998" type="line"/>
    </contour>
    <contour>
      <point x="896.8159637451172" y="241.84302520751953" type="line"/>
      <point x="1110.678123474121" y="532.4482650756836" type="line"/>
      <point x="1110.678123474121" y="241.84302520751953" type="line"/>
    </contour>
    <contour>
      <point x="775.0460357666016" y="143.7682647705078" type="line"/>
      <point x="1110.678123474121" y="143.7682647705078" type="line"/>
      <point x="1110.678123474121" y="0" type="line"/>
      <point x="1208.7528839111328" y="0" type="line"/>
      <point x="1208.7528839111328" y="143.7682647705078" type="line"/>
      <point x="1318.202247619629" y="143.7682647705078" type="line"/>
      <point x="1318.202247619629" y="241.84302520751953" type="line"/>
      <point x="1208.7528839111328" y="241.84302520751953" type="line"/>
      <point x="1208.7528839111328" y="697.91455078125" type="line"/>
      <point x="1110.678123474121" y="697.91455078125" type="line"/>
      <point x="775.0460357666016" y="241.84302520751953" type="line"/>
    </contour>
  </outline>
</glyph>
<glyph name="one_over_two" format="2">
  <advance width="1471.134156605039"/>
  <unicode hex="00BD"/>
  <outline>
    <contour>
      <point x="225.28838348388672" y="382.35713958740234" type="line"/>
      <point x="323.36315155029297" y="382.35713958740234" type="line"/>
      <point x="323.36315155029297" y="1080.2716979980469" type="line"/>
      <point x="225.28838348388672" y="1080.2716979980469" type="line"/>
      <point x="101.27102661132812" y="1008.6702423095703" type="line"/>
      <point x="101.27102661132812" y="895.4232635498047" type="line"/>
      <point x="225.28838348388672" y="967.0247116088867" type="line"/>
    </contour>
    <contour>
      <point x="239.44326" y="0.0" type="line"/>
      <point x="352.97803" y="0.0" type="line"/>
      <point x="1166.8164" y="1080.0" type="line"/>
      <point x="1053.28163" y="1080.0" type="line"/>
    </contour>
    <contour>
      <point x="915.156852722168" y="0" type="line"/>
      <point x="1374.9098587036133" y="0" type="line"/>
      <point x="1374.9098587036133" y="98.07476806640625" type="line"/>
      <point x="1063.915138244629" y="98.07476806640625" type="line"/>
      <point x="1295.9327926635742" y="301.5180130004883" type="line"/>
      <point x="1346.12769" y="345.5311"/>
      <point x="1374.90986" y="409.04837"/>
      <point x="1374.90986" y="475.80674" type="curve"/>
      <point x="1374.90986" y="603.74123"/>
      <point x="1271.04328" y="707.60781"/>
      <point x="1143.10879" y="707.60781" type="curve" smooth="yes"/>
      <point x="1015.1743" y="707.60781"/>
      <point x="911.30772" y="603.74123"/>
      <point x="911.30772" y="475.80674" type="curve"/>
      <point x="1009.3824920654297" y="475.8067398071289" type="line"/>
      <point x="1009.38249" y="549.6123"/>
      <point x="1069.30323" y="609.53304"/>
      <point x="1143.10879" y="609.53304" type="curve" smooth="yes"/>
      <point x="1216.91434" y="609.53304"/>
      <point x="1276.83509" y="549.6123"/>
      <point x="1276.83509" y="475.80674" type="curve"/>
      <point x="1276.83509" y="437.29376"/>
      <point x="1260.23063" y="400.65058"/>
      <point x="1231.27313" y="375.25938" type="curve"/>
      <point x="915.156852722168" y="98.07476806640625" type="line"/>
    </contour>
  </outline>
</glyph>
<glyph name="three_over_four" format="2">
  <advance width="1422.3451045356128"/>
  <unicode hex="00BE"/>
  <outline>
    <contour>
      <point x="91.17756652832031" y="581.7114334106445" type="line"/>
      <point x="91.17757" y="466.33495"/>
      <point x="199.24382" y="372.66389"/>
      <point x="332.35113" y="372.66389" type="curve" smooth="yes"/>
      <point x="465.45845" y="372.66389"/>
      <point x="573.5247" y="466.33495"/>
      <point x="573.5247" y="581.71143" type="curve"/>
      <point x="573.5247" y="646.89948167941"/>
      <point x="539.02688499819" y="705.1585534623187"/>
      <point x="485.00608825683594" y="743.4937210083008" type="curve"/>
      <point x="531.661235038158" y="779.8522130133473"/>
      <point x="561.02804" y="832.63287186911"/>
      <point x="561.02804" y="891.3245800000001" type="curve"/>
      <point x="561.02804" y="1000.95718"/>
      <point x="458.56135" y="1089.96495"/>
      <point x="332.35113" y="1089.96495" type="curve" smooth="yes"/>
      <point x="206.14092" y="1089.96495"/>
      <point x="103.67423" y="1000.95718"/>
      <point x="103.67423" y="891.32458" type="curve"/>
      <point x="201.7490005493164" y="891.324577331543" type="line"/>
      <point x="201.749" y="946.82825"/>
      <point x="260.26985" y="991.89019"/>
      <point x="332.35113" y="991.89019" type="curve" smooth="yes"/>
      <point x="404.43242" y="991.89019"/>
      <point x="462.95327" y="946.82825"/>
      <point x="462.95327" y="891.32458" type="curve"/>
      <point x="462.95327" y="835.82091"/>
      <point x="404.43242" y="790.75897"/>
      <point x="332.35113" y="790.75897" type="curve"/>
      <point x="283.3137512207031" y="790.7589721679688" type="line"/>
      <point x="283.3137512207031" y="692.684196472168" type="line"/>
      <point x="332.3511276245117" y="692.684196472168" type="line"/>
      <point x="411.32951" y="692.6842"/>
      <point x="475.44993" y="642.95897"/>
      <point x="475.44993" y="581.71143" type="curve"/>
      <point x="475.44993" y="520.46389"/>
      <point x="411.32951" y="470.73865"/>
      <point x="332.35113" y="470.73865" type="curve" smooth="yes"/>
      <point x="253.37276" y="470.73865"/>
      <point x="189.25234" y="520.46389"/>
      <point x="189.25234" y="581.71143" type="curve"/>
    </contour>
    <contour>
      <point x="287.73565" y="0.0" type="line"/>
      <point x="401.27042" y="0.0" type="line"/>
      <point x="1215.10879" y="1080.0" type="line"/>
      <point x="1101.57402" y="1080.0" type="line"/>
    </contour>
    <contour>
      <point x="945.1083526611328" y="241.84303283691406" type="line"/>
      <point x="1158.9705123901367" y="532.4482574462891" type="line"/>
      <point x="1158.9705123901367" y="241.84303283691406" type="line"/>
    </contour>
    <contour>
      <point x="823.3384323120117" y="143.76825714111328" type="line"/>
      <point x="1158.9705123901367" y="143.76825714111328" type="line"/>
      <point x="1158.9705123901367" y="0" type="line"/>
      <point x="1257.045280456543" y="0" type="line"/>
      <point x="1257.045280456543" y="143.76825714111328" type="line"/>
      <point x="1366.4946365356445" y="143.76825714111328" type="line"/>
      <point x="1366.4946365356445" y="241.84303283691406" type="line"/>
      <point x="1257.045280456543" y="241.84303283691406" type="line"/>
      <point x="1257.045280456543" y="697.91455078125" type="line"/>
      <point x="1158.9705123901367" y="697.91455078125" type="line"/>
      <point x="823.3384323120117" y="241.84303283691406" type="line"/>
    </contour>
  </outline>
</glyph>
<glyph name="inv_question" format="2">
  <advance width="808.485981308411"/>
  <unicode hex="00BF"/>
  <outline>
    <contour>
      <point x="327.19626" y="730.87708" type="curve" smooth="yes"/>
      <point x="327.19626" y="680.18342"/>
      <point x="368.35308" y="639.02661"/>
      <point x="419.04673" y="639.02661" type="curve" smooth="yes"/>
      <point x="469.74038" y="639.02661"/>
      <point x="510.8972" y="680.18342"/>
      <point x="510.8972" y="730.87708" type="curve" smooth="yes"/>
      <point x="510.8972" y="781.57073"/>
      <point x="469.74038" y="822.72754"/>
      <point x="419.04673" y="822.72754" type="curve" smooth="yes"/>
      <point x="368.35308" y="822.72754"/>
      <point x="327.19626" y="781.57073"/>
    </contour>
    <contour>
      <point x="474.56075286865234" y="514.5406265258789" type="line"/>
      <point x="363.53270721435547" y="514.5406265258789" type="line"/>
      <point x="363.53270721435547" y="367.3604507446289" type="line"/>
      <point x="201.66429798706997" y="347.2982104644065"/>
      <point x="76.20560999999994" y="209.10482265739998"/>
      <point x="76.20560999999995" y="41.840209999999956" type="curve"/>
      <point x="76.20561" y="-139.20855"/>
      <point x="223.19423" y="-286.19717"/>
      <point x="404.24299" y="-286.19717" type="curve" smooth="yes"/>
      <point x="585.29175" y="-286.19717"/>
      <point x="732.28037" y="-139.20855"/>
      <point x="732.28037" y="41.84021" type="curve"/>
      <point x="621.2523422241211" y="41.8402099609375" type="line"/>
      <point x="621.25234" y="-77.9305"/>
      <point x="524.01371" y="-175.16913"/>
      <point x="404.24299" y="-175.16913" type="curve" smooth="yes"/>
      <point x="284.47227" y="-175.16912999999997"/>
      <point x="187.23364" y="-77.93050000000004"/>
      <point x="187.23364" y="41.84021" type="curve"/>
      <point x="187.23364" y="139.93195426313682"/>
      <point x="255.03393604101345" y="258.8495523639692"/>
      <point x="424.24298999999996" y="258.8495610235345" type="curve"/>
      <point x="474.56075286865234" y="258.8495635986328" type="line"/>
    </contour>
  </outline>
</glyph>
<glyph name="invertedquestion" format="2">
  <advance width="808.1495327102803"/>
  <unicode hex="00BF"/>
  <outline>
    <contour>
      <point x="312.22429906542055" y="700.3457943925233" type="curve" smooth="yes"/>
      <point x="312.22429906542055" y="649.6521419013084"/>
      <point x="353.3811138639252" y="608.4953271028037"/>
      <point x="404.0747663551402" y="608.4953271028037" type="curve" smooth="yes"/>
      <point x="454.76841884635513" y="608.4953271028037"/>
      <point x="495.9252336448598" y="649.6521419013084"/>
      <point x="495.9252336448598" y="700.3457943925233" type="curve" smooth="yes"/>
      <point x="495.9252336448598" y="751.0394468837382"/>
      <point x="454.76841884635513" y="792.1962616822428"/>
      <point x="404.0747663551402" y="792.1962616822428" type="curve" smooth="yes"/>
      <point x="353.3811138639252" y="792.1962616822428"/>
      <point x="312.22429906542055" y="751.0394468837382"/>
    </contour>
    <contour>
      <point x="459.58878326416016" y="484.0093460083008" type="line"/>
      <point x="348.5607452392578" y="484.0093460083008" type="line"/>
      <point x="348.5607452392578" y="333.5786590576172" type="line"/>
      <point x="193.9105375076435" y="307.1784603777357"/>
      <point x="76.03738317757013" y="172.36280845225238"/>
      <point x="76.03738317757013" y="10.233644859813182" type="curve"/>
      <point x="76.03738317757002" y="-170.81511403738315"/>
      <point x="223.02600745794382" y="-317.80373831775694"/>
      <point x="404.07476635514007" y="-317.80373831775694" type="curve" smooth="yes"/>
      <point x="585.1235252523363" y="-317.80373831775694"/>
      <point x="732.1121495327102" y="-170.81511403738327"/>
      <point x="732.1121495327102" y="10.233644859813108" type="curve"/>
      <point x="621.084114074707" y="10.233642578125" type="line"/>
      <point x="621.0841121495326" y="-109.537072564486"/>
      <point x="523.8454837794392" y="-206.7757009345794"/>
      <point x="404.07476635514007" y="-206.7757009345794" type="curve" smooth="yes"/>
      <point x="284.304048930841" y="-206.7757009345794"/>
      <point x="187.0654205607476" y="-109.537072564486"/>
      <point x="187.0654205607476" y="10.233644859813108" type="curve"/>
      <point x="187.06542056074764" y="130.0043622841121"/>
      <point x="284.304048930841" y="227.2429906542056"/>
      <point x="404.0747663551401" y="227.2429906542056" type="curve"/>
      <point x="459.58878326416016" y="227.24298858642578" type="line"/>
    </contour>
  </outline>
</glyph>
<glyph name="A_with_grave" format="2">
  <advance width="1062.7149532709693"/>
  <unicode hex="00C0"/>
  <outline>
    <contour>
      <point x="579.19483" y="1200.49065" type="line"/>
      <point x="433.57444" y="1457.87383" type="line"/>
      <point x="337.89973" y="1457.87383" type="line"/>
      <point x="483.52012" y="1200.49065" type="line"/>
    </contour>
    <contour>
      <point x="15.644859313964844" y="0" type="line"/>
      <point x="136.15281677246094" y="0" type="line"/>
      <point x="262.81065368652344" y="300.1602096557617" type="line"/>
      <point x="799.9043045043945" y="300.1602096557617" type="line"/>
      <point x="926.562141418457" y="0" type="line"/>
      <point x="1047.0700912475586" y="0" type="line"/>
      <point x="591.611457824707" y="1079.3691635131836" type="line"/>
      <point x="471.10350036621094" y="1079.3691635131836" type="line"/>
    </contour>
    <contour>
      <point x="309.6608657836914" y="411.18824768066406" type="line"/>
      <point x="531.3574829101562" y="936.5762023925781" type="line"/>
      <point x="753.0540924072266" y="411.18824768066406" type="line"/>
    </contour>
  </outline>
</glyph>
<glyph name="A_with_acute" format="2">
  <advance width="1045.3457943925769"/>
  <unicode hex="00C1"/>
  <outline>
    <contour>
      <point x="474.83554263778325" y="1201.1214953271026" type="line"/>
      <point x="570.5102517547938" y="1201.1214953271026" type="line"/>
      <point x="716.1306471874217" y="1458.504672897196" type="line"/>
      <point x="620.4559380704111" y="1458.504672897196" type="line"/>
    </contour>
    <contour>
      <point x="15.476638793945312" y="0" type="line"/>
      <point x="135.64317321777344" y="0" type="line"/>
      <point x="260.00704193115234" y="300.4005355834961" type="line"/>
      <point x="785.338752746582" y="300.4005355834961" type="line"/>
      <point x="909.7026214599609" y="0" type="line"/>
      <point x="1029.869155883789" y="0" type="line"/>
      <point x="582.7561645507812" y="1080" type="line"/>
      <point x="462.5896301269531" y="1080" type="line"/>
    </contour>
    <contour>
      <point x="305.97193145751953" y="411.42857360839844" type="line"/>
      <point x="522.6728973388672" y="934.8690567016602" type="line"/>
      <point x="739.3738632202148" y="411.42857360839844" type="line"/>
    </contour>
  </outline>
</glyph>
<glyph name="A_with_circumflex" format="2">
  <advance width="1045.3457943925769"/>
  <unicode hex="00C2"/>
  <outline>
    <contour>
      <point x="267.39251708984375" y="1201.1214981079102" type="line"/>
      <point x="376.48082733154297" y="1201.1214981079102" type="line"/>
      <point x="522.6728973388672" y="1373.8666687011719" type="line"/>
      <point x="668.8649673461914" y="1201.1214981079102" type="line"/>
      <point x="777.9532699584961" y="1201.1214981079102" type="line"/>
      <point x="577.2170486450195" y="1438.317756652832" type="line"/>
      <point x="468.1287536621094" y="1438.317756652832" type="line"/>
    </contour>
    <contour>
      <point x="15.476638793945312" y="0" type="line"/>
      <point x="135.64317321777344" y="0" type="line"/>
      <point x="260.00704193115234" y="300.40052795410156" type="line"/>
      <point x="785.338752746582" y="300.40052795410156" type="line"/>
      <point x="909.7026214599609" y="0" type="line"/>
      <point x="1029.8691635131836" y="0" type="line"/>
      <point x="582.7561569213867" y="1080" type="line"/>
      <point x="462.5896301269531" y="1080" type="line"/>
    </contour>
    <contour>
      <point x="305.97193145751953" y="411.42857360839844" type="line"/>
      <point x="522.6728973388672" y="934.8690719604492" type="line"/>
      <point x="739.3738632202148" y="411.42857360839844" type="line"/>
    </contour>
  </outline>
</glyph>
